<svg xmlns="http://www.w3.org/2000/svg" width="918" height="576" viewBox="0 0 915 576">
  <path fill="#9DDDEC" fill-rule="evenodd" d="M0.732421875,277 L0.732421875,2.578125 L99.3056641,2.578125 C134.613783,2.578125 161.471425,9.04908894 179.879395,21.9912109 C198.287364,34.9333329 207.491211,53.7179758 207.491211,78.3457031 C207.491211,92.5443418 204.224317,104.669546 197.69043,114.72168 C191.156543,124.773813 181.544334,132.187151 168.853516,136.961914 C183.177806,140.731464 194.172162,147.767852 201.836914,158.071289 C209.501666,168.374726 213.333984,180.939705 213.333984,195.766602 C213.333984,222.656059 204.821211,242.854262 187.79541,256.361816 C170.769609,269.869371 145.545415,276.748697 112.12207,277 L0.732421875,277 Z M66.8876953,160.333008 L66.8876953,226.111328 L110.237305,226.111328 C122.174213,226.111328 131.346648,223.378445 137.754883,217.912598 C144.163118,212.44675 147.367188,204.750701 147.367188,194.824219 C147.367188,171.955615 135.995882,160.458659 113.25293,160.333008 L66.8876953,160.333008 Z M66.8876953,116.983398 L101.378906,116.983398 C115.828848,116.857747 126.132131,114.219101 132.289062,109.067383 C138.445994,103.915664 141.524414,96.3138523 141.524414,86.2617188 C141.524414,74.7017651 138.194695,66.3774669 131.535156,61.2885742 C124.875618,56.1996816 114.132561,53.6552734 99.3056641,53.6552734 L66.8876953,53.6552734 L66.8876953,116.983398 Z M419.904297,160.709961 L315.865234,160.709961 L315.865234,226.111328 L438.751953,226.111328 L438.751953,277 L249.709961,277 L249.709961,2.578125 L439.128906,2.578125 L439.128906,53.6552734 L315.865234,53.6552734 L315.865234,111.517578 L419.904297,111.517578 L419.904297,160.709961 Z M694.891602,277 L629.113281,277 L531.859375,106.240234 L531.859375,277 L465.704102,277 L465.704102,2.578125 L531.859375,2.578125 L628.924805,173.337891 L628.924805,2.578125 L694.891602,2.578125 L694.891602,277 Z M906.927734,160.709961 L802.888672,160.709961 L802.888672,226.111328 L925.775391,226.111328 L925.775391,277 L736.733398,277 L736.733398,2.578125 L926.152344,2.578125 L926.152344,53.6552734 L802.888672,53.6552734 L802.888672,111.517578 L906.927734,111.517578 L906.927734,160.709961 Z M173.56543,464.683594 L66.8876953,464.683594 L66.8876953,574 L0.732421875,574 L0.732421875,299.578125 L184.308594,299.578125 L184.308594,350.655273 L66.8876953,350.655273 L66.8876953,413.794922 L173.56543,413.794922 L173.56543,464.683594 Z M282.316406,574 L216.349609,574 L216.349609,299.578125 L282.316406,299.578125 L282.316406,574 Z M538.267578,350.655273 L455.90332,350.655273 L455.90332,574 L389.748047,574 L389.748047,350.655273 L308.891602,350.655273 L308.891602,299.578125 L538.267578,299.578125 L538.267578,350.655273 Z M704.692383,501.05957 C704.692383,491.384392 701.268426,483.845405 694.42041,478.442383 C687.572394,473.039361 675.541427,467.447946 658.327148,461.667969 C641.11287,455.887992 627.040094,450.296576 616.108398,444.893555 C580.548976,427.427973 562.769531,403.428864 562.769531,372.895508 C562.769531,357.691656 567.198686,344.278541 576.057129,332.655762 C584.915572,321.032982 597.449138,311.986198 613.658203,305.515137 C629.867269,299.044076 648.086487,295.808594 668.316406,295.808594 C688.043718,295.808594 705.728926,299.326788 721.372559,306.363281 C737.016191,313.399775 749.172808,323.420345 757.842773,336.425293 C766.512739,349.430241 770.847656,364.288328 770.847656,381 L704.880859,381 C704.880859,369.817001 701.456903,361.147166 694.608887,354.990234 C687.760871,348.833303 678.494199,345.754883 666.808594,345.754883 C654.997337,345.754883 645.66784,348.362116 638.819824,353.57666 C631.971808,358.791204 628.547852,365.419231 628.547852,373.460938 C628.547852,380.497431 632.317345,386.874158 639.856445,392.591309 C647.395546,398.30846 660.651598,404.213999 679.625,410.308105 C698.598402,416.402211 714.178976,422.967413 726.367188,430.003906 C756.020982,447.092533 770.847656,470.651868 770.847656,500.682617 C770.847656,524.682086 761.800872,543.529554 743.707031,557.225586 C725.613191,570.921618 700.797358,577.769531 669.258789,577.769531 C647.018443,577.769531 626.883065,573.780151 608.852051,565.80127 C590.821036,557.822388 577.250859,546.890857 568.141113,533.006348 C559.031367,519.121838 554.476562,503.132903 554.476562,485.039062 L620.820312,485.039062 C620.820312,499.740308 624.621219,510.577602 632.223145,517.55127 C639.825071,524.524937 652.170162,528.011719 669.258789,528.011719 C680.190484,528.011719 688.828907,525.655785 695.174316,520.943848 C701.519726,516.23191 704.692383,509.603884 704.692383,501.05957 Z" transform="translate(-9 -2)"/>
</svg>
