<?xml version="1.0" encoding="UTF-8"?>
<svg width="244px" height="206px" viewBox="0 0 244 206" version="1.1" xmlns="http://www.w3.org/2000/svg" xmlns:xlink="http://www.w3.org/1999/xlink">
    <!-- Generator: Sketch 50.2 (55047) - http://www.bohemiancoding.com/sketch -->
    <title>bubble-green</title>
    <desc>Created with Sketch.</desc>
    <defs></defs>
    <g id="Page-1" stroke="none" stroke-width="1" fill="none" fill-rule="evenodd">
        <g id="JOBS" transform="translate(-471.000000, -2441.000000)" fill="#6CC469">
            <g id="Group-7" transform="translate(471.000000, 2441.000000)">
                <path d="M203.120729,25.4422543 C195.295889,20.9511562 186.131559,18.2306758 177.218527,19.6254983 C169.446714,20.8404926 162.274329,25.0849031 154.414907,25.4606983 C133.56865,26.4566708 125.188187,2.17753583 105.480842,0.921042764 C26.8658748,-4.09570755 -25.9091397,89.9153346 13.7453206,155.591882 C31.9794558,185.793825 66.4304209,204.940935 101.591477,205.487337 C123.721894,205.82855 145.61715,199.276342 163.145805,185.579414 C167.980421,181.803019 172.466909,177.528637 177.746485,174.400084 C187.364997,168.696297 198.986982,167.14009 208.236615,160.749267 C218.127175,153.915789 226.828101,143.787763 232.937655,133.537546 C251.554502,102.305048 244.478947,63.4413714 220.398085,38.8256347 C215.355974,33.6728603 209.571495,29.1448743 203.120729,25.4422543 Z" id="bubble-green"></path>
            </g>
        </g>
    </g>
</svg>