<?xml version="1.0" encoding="UTF-8"?>
<svg width="239px" height="216px" viewBox="0 0 239 216" version="1.1" xmlns="http://www.w3.org/2000/svg" xmlns:xlink="http://www.w3.org/1999/xlink">
    <!-- Generator: Sketch 50.2 (55047) - http://www.bohemiancoding.com/sketch -->
    <title>bubble-gray</title>
    <desc>Created with Sketch.</desc>
    <defs></defs>
    <g id="Page-1" stroke="none" stroke-width="1" fill="none" fill-rule="evenodd">
        <g id="JOBS" transform="translate(-337.000000, -2585.000000)" fill="#637C91">
            <g id="Group-12" transform="translate(337.000000, 2585.000000)">
                <path d="M230.405237,66.7961924 C220.992268,44.4890977 205.842311,26.6987923 184.160697,15.0607539 C162.720046,3.55088776 117.221469,-8.86387432 96.5421612,10.8951565 C90.8026088,16.3783644 88.6800767,24.9735941 82.5739517,30.041524 C74.8502932,36.4501355 63.6352231,35.2094283 53.6967485,36.585998 C2.68932834,43.6559782 -9.09226293,116.419352 7.43426425,155.583659 C24.9989865,197.206308 82.5073021,232.481869 125.957688,205.970725 C134.250431,200.910486 141.681857,193.612359 151.256322,191.987135 C161.458832,190.259373 171.615199,195.434968 181.963825,195.314486 C208.034056,195.012 228.908185,160.223493 234.757966,138.241956 C241.29475,113.673903 240.207849,90.0210002 230.405237,66.7961924" id="bubble-gray"></path>
            </g>
        </g>
    </g>
</svg>