<?xml version="1.0" encoding="UTF-8"?>
<svg width="1623px" height="356px" viewBox="0 0 1623 356" version="1.1" xmlns="http://www.w3.org/2000/svg" xmlns:xlink="http://www.w3.org/1999/xlink">
    <!-- Generator: Sketch 50.2 (55047) - http://www.bohemiancoding.com/sketch -->
    <title>Group 22</title>
    <desc>Created with Sketch.</desc>
    <defs></defs>
    <g id="Page-1" stroke="none" stroke-width="1" fill="none" fill-rule="evenodd">
        <g id="Group-22">
            <rect id="Rectangle-9" fill="#FFFFFF" x="0" y="130.53125" width="1623" height="224.46875"></rect>
            <path d="M1622.12855,146.497896 C1615.41755,202.320603 1567.97265,245.583418 1510.44141,245.583418 C1480.08574,245.583418 1452.53814,233.538977 1432.30057,213.960208 C1417.30282,221.378837 1400.41663,225.547284 1382.55859,225.547284 C1372.2129,225.547284 1362.19337,224.148255 1352.67824,221.528742 C1332.92803,253.975158 1297.26852,275.637619 1256.55859,275.637619 C1238.94421,275.637619 1222.27533,271.58214 1207.43155,264.352376 C1187.84345,297.49447 1151.79153,319.717113 1110.55859,319.717113 C1075.09486,319.717113 1043.46374,303.278085 1022.84381,277.591568 C1010.61376,282.157955 997.37713,284.653879 983.558594,284.653879 C953.343369,284.653879 925.910278,272.720625 905.699106,253.301925 C891.914987,273.444123 868.777082,286.657492 842.558594,286.657492 C839.55078,286.657492 836.583509,286.483592 833.666253,286.14528 C817.803431,317.365544 785.42398,338.75144 748.058594,338.75144 C715.361162,338.75144 686.481721,322.37514 669.146864,297.363092 C655.353008,310.882576 636.474133,319.216209 615.652344,319.216209 C599.30675,319.216209 584.158499,314.080509 571.727681,305.331942 C551.376445,325.673486 523.289103,338.250536 492.269531,338.250536 C461.140227,338.250536 432.963935,325.584346 412.595694,305.115775 C395.145606,316.263182 374.421477,322.722533 352.191406,322.722533 C336.955663,322.722533 322.427301,319.688401 309.175535,314.190379 C290.045175,329.261129 265.916192,338.250536 239.691406,338.250536 C221.402799,338.250536 204.133457,333.878654 188.867907,326.121192 C168.904292,344.242094 142.416722,355.28125 113.355469,355.28125 C51.2234344,355.28125 0.85546875,304.822285 0.85546875,242.577998 C0.85546875,240.051569 0.938448009,237.544556 1.10182514,235.059545 L0.05859375,221.798336 L0.05859375,0.140780262 L1622.41406,0.140780262 L1622.41406,121.897386 C1622.76291,125.511108 1622.94141,129.174754 1622.94141,132.880166 C1622.94141,136.585578 1622.76291,140.249224 1622.41406,143.862946 L1622.41406,146.013225 L1622.12855,146.497896 Z" id="headerback" fill="#00B586"></path>
        </g>
    </g>
</svg>