<?xml version="1.0" encoding="UTF-8"?>
<svg width="230px" height="242px" viewBox="0 0 230 242" version="1.1" xmlns="http://www.w3.org/2000/svg" xmlns:xlink="http://www.w3.org/1999/xlink">
    <!-- Generator: Sketch 50.2 (55047) - http://www.bohemiancoding.com/sketch -->
    <title>bubble-purple</title>
    <desc>Created with Sketch.</desc>
    <defs></defs>
    <g id="Page-1" stroke="none" stroke-width="1" fill="none" fill-rule="evenodd">
        <g id="JOBS" transform="translate(-126.000000, -2405.000000)" fill="#8B73B9">
            <g id="Group-13" transform="translate(126.000000, 2405.000000)">
                <path d="M225.104219,98.2324495 C221.805615,88.8985346 216.550556,80.4962643 208.858665,73.9077897 C193.818427,61.0248909 172.213005,56.6548952 159.426182,41.5302264 C151.152013,31.7363119 147.364295,18.2187302 137.235571,10.3492442 C115.554453,-6.49023301 72.6958868,1.6238097 51.6610972,15.1879737 C30.3933965,28.8977071 12.2001231,49.067814 6.17063534,74.3444982 C-2.87505202,112.247879 -3.16619098,150.829613 17.9355606,185.093757 C44.9649012,228.980043 98.7615575,251.980021 148.942268,236.855352 C181.110211,227.157513 207.52816,202.707664 220.45473,171.788707 C229.340291,150.541386 233.314337,121.488629 225.104219,98.2324495" id="bubble-purple"></path>
            </g>
        </g>
    </g>
</svg>