<?xml version="1.0" encoding="UTF-8"?>
<svg width="240px" height="216px" viewBox="0 0 240 216" version="1.1" xmlns="http://www.w3.org/2000/svg" xmlns:xlink="http://www.w3.org/1999/xlink">
    <!-- Generator: Sketch 50.2 (55047) - http://www.bohemiancoding.com/sketch -->
    <title>bubble-blue</title>
    <desc>Created with Sketch.</desc>
    <defs></defs>
    <g id="Page-1" stroke="none" stroke-width="1" fill="none" fill-rule="evenodd">
        <g id="JOBS" transform="translate(-129.000000, -2251.000000)" fill="#468DCB">
            <g id="Group-14" transform="translate(100.000000, 2193.000000)">
                <path d="M194.436547,99.5820361 C194.413162,99.5735325 194.389777,99.5650288 194.364266,99.5565252 C193.556421,99.0144184 192.780464,98.4234157 192.049151,97.7601321 C192.844241,98.3681421 193.639331,98.9740261 194.436547,99.5820361 M45.8248773,98.9570189 C40.7907247,119.329605 42.4170451,141.334889 49.4516781,161.035688 C50.9865844,165.334276 52.7999848,169.605227 53.2868179,174.146169 C54.243477,183.09412 50.0469326,191.599882 50.4210926,200.501063 C50.8377707,210.458821 54.804717,221.162773 60.059964,229.519721 C68.4764378,242.902318 81.0341824,253.633907 95.5073709,259.973368 C112.416851,267.380035 125.875981,264.012595 143.176629,264.471791 C146.65249,264.563205 150.077329,265.300895 153.512798,265.845128 C190.114574,271.627601 229.900961,254.499152 247.716079,221.343475 C256.672533,204.678474 259.982574,185.226407 256.84048,166.552422 C253.896096,149.037057 243.460009,122.790585 224.953971,116.806151 C215.816814,113.846886 204.74508,116.466005 197.187473,110.534719 C191.685621,106.216998 189.961508,98.7125393 189.113271,91.7693205 C186.887444,73.5694134 179.013077,59.9997362 162.745621,50.5458188 C144.588232,39.9928065 122.298076,35.8494098 101.865965,41.196071 C74.5076417,48.3540066 52.5555052,71.709243 45.8248773,98.9570189" id="bubble-blue" transform="translate(150.449855, 152.908368) rotate(-30.000000) translate(-150.449855, -152.908368) "></path>
            </g>
        </g>
    </g>
</svg>