<?xml version="1.0" encoding="UTF-8"?>
<svg width="115px" height="547px" viewBox="0 0 115 547" version="1.1" xmlns="http://www.w3.org/2000/svg" xmlns:xlink="http://www.w3.org/1999/xlink">
    <!-- Generator: Sketch 50.2 (55047) - http://www.bohemiancoding.com/sketch -->
    <title>culture</title>
    <desc>Created with Sketch.</desc>
    <defs></defs>
    <g id="Page-1" stroke="none" stroke-width="1" fill="none" fill-rule="evenodd">
        <g id="JOBS" transform="translate(-403.000000, -798.000000)" fill="#00B586">
            <path d="M256.599609,1092.41797 C255.787105,1104.85944 252.435576,1113.98728 246.544922,1119.80176 C240.654267,1125.61624 232.503958,1128.52344 222.09375,1128.52344 C211.378853,1128.52344 202.923859,1124.47367 196.728516,1116.37402 C190.533172,1108.27437 187.410157,1097.26765 187.359375,1083.35352 L187.359375,1059.2832 C187.359375,1045.31829 190.520476,1034.37504 196.842773,1026.45312 C203.165071,1018.53121 211.810492,1014.57031 222.779297,1014.57031 C233.138724,1014.57031 241.162081,1017.54099 246.849609,1023.48242 C252.537138,1029.42386 255.787105,1038.539 256.599609,1050.82812 L247.763672,1050.82812 C246.951168,1040.77339 244.577168,1033.58791 240.641602,1029.27148 C236.706035,1024.95506 230.751993,1022.79688 222.779297,1022.79688 C214.400349,1022.79688 207.875023,1025.91989 203.203125,1032.16602 C198.531227,1038.41214 196.195312,1047.4765 196.195312,1059.35938 L196.195312,1083.125 C196.195312,1094.90631 198.455056,1104.07223 202.974609,1110.62305 C207.494163,1117.17386 213.867146,1120.44922 222.09375,1120.44922 C230.726606,1120.44922 236.972637,1118.29104 240.832031,1113.97461 C244.691426,1109.65818 247.001949,1102.47271 247.763672,1092.41797 L256.599609,1092.41797 Z M342.75,1016.09375 L342.75,1094.7793 C342.699218,1105.49419 339.817411,1113.79685 334.104492,1119.6875 C328.391573,1125.57815 320.279349,1128.52344 309.767578,1128.52344 C299.103462,1128.52344 290.940458,1125.61624 285.27832,1119.80176 C279.616183,1113.98728 276.785156,1105.54498 276.785156,1094.47461 L276.785156,1016.09375 L285.46875,1016.09375 L285.46875,1094.16992 C285.46875,1111.68954 293.568278,1120.44922 309.767578,1120.44922 C325.71297,1120.44922 333.787108,1111.94344 333.990234,1094.93164 L333.990234,1016.09375 L342.75,1016.09375 Z M376.037109,1118.92578 L421.740234,1118.92578 L421.740234,1127 L367.277344,1127 L367.277344,1016.09375 L376.037109,1016.09375 L376.037109,1118.92578 Z M482.144531,1024.32031 L450.609375,1024.32031 L450.609375,1127 L441.849609,1127 L441.849609,1024.32031 L410.390625,1024.32031 L410.390625,1016.09375 L482.144531,1016.09375 L482.144531,1024.32031 Z M564.410156,1016.09375 L564.410156,1094.7793 C564.359375,1105.49419 561.477568,1113.79685 555.764648,1119.6875 C550.051729,1125.57815 541.939506,1128.52344 531.427734,1128.52344 C520.763619,1128.52344 512.600614,1125.61624 506.938477,1119.80176 C501.276339,1113.98728 498.445312,1105.54498 498.445312,1094.47461 L498.445312,1016.09375 L507.128906,1016.09375 L507.128906,1094.16992 C507.128906,1111.68954 515.228435,1120.44922 531.427734,1120.44922 C547.373127,1120.44922 555.447265,1111.94344 555.650391,1094.93164 L555.650391,1016.09375 L564.410156,1016.09375 Z M623.443359,1080.83984 L597.544922,1080.83984 L597.544922,1127 L588.785156,1127 L588.785156,1016.09375 L619.177734,1016.09375 C629.283254,1016.09375 637.116183,1018.97556 642.676758,1024.73926 C648.237332,1030.50296 651.017578,1038.51362 651.017578,1048.77148 C651.017578,1055.93168 649.291033,1062.21579 645.837891,1067.62402 C642.384748,1073.03225 637.73831,1076.77733 631.898438,1078.85938 L654.978516,1126.00977 L654.978516,1127 L645.685547,1127 L623.443359,1080.83984 Z M597.544922,1072.76562 L620.701172,1072.76562 C627.251986,1072.76562 632.482402,1070.51858 636.392578,1066.02441 C640.302754,1061.53025 642.257812,1055.77933 642.257812,1048.77148 C642.257812,1041.00191 640.226583,1034.9844 636.164062,1030.71875 C632.101542,1026.4531 626.414099,1024.32031 619.101562,1024.32031 L597.544922,1024.32031 L597.544922,1072.76562 Z M726.427734,1073.9082 L683.390625,1073.9082 L683.390625,1118.92578 L732.902344,1118.92578 L732.902344,1127 L674.707031,1127 L674.707031,1016.09375 L732.521484,1016.09375 L732.521484,1024.32031 L683.390625,1024.32031 L683.390625,1065.83398 L726.427734,1065.83398 L726.427734,1073.9082 Z" id="culture" transform="translate(460.130859, 1071.546875) rotate(-90.000000) translate(-460.130859, -1071.546875) "></path>
        </g>
    </g>
</svg>