<?xml version="1.0" encoding="UTF-8"?>
<svg width="367px" height="401px" viewBox="0 0 367 401" version="1.1" xmlns="http://www.w3.org/2000/svg" xmlns:xlink="http://www.w3.org/1999/xlink">
    <!-- Generator: Sketch 50.2 (55047) - http://www.bohemiancoding.com/sketch -->
    <title>desk-gal</title>
    <desc>Created with Sketch.</desc>
    <defs>
        <polygon id="path-1" points="-0.000575 0.000863571429 150.635227 0.000863571429 150.635227 256.192857 -0.000575 256.192857"></polygon>
    </defs>
    <g id="Page-1" stroke="none" stroke-width="1" fill="none" fill-rule="evenodd">
        <g id="JOBS" transform="translate(-1026.000000, -821.000000)">
            <g id="desk-gal" transform="translate(1026.000000, 821.000000)">
                <path d="M324.4173,146.307135 L352.186925,146.307135 L359.374425,152.884671 L362.249425,173.034671 L347.874425,221.970385 L327.749425,250.756099 C327.749425,250.756099 275.999425,253.634671 273.124425,253.634671 C270.249425,253.634671 232.874425,249.794656 232.874425,249.794656 C232.874425,249.794656 293.71805,187.427528 293.485175,188.866814 C293.249425,190.306099 304.749425,147.127528 304.749425,147.127528 L324.4173,146.307135 Z" id="Fill-1" fill="#637C91"></path>
                <path d="M257.037363,173.32627 L322.779988,118.17572 C322.779988,118.17572 336.180363,108.94702 324.136988,95.0060986 C312.093613,81.0651771 297.649613,95.9560271 297.649613,95.9560271 L255.044988,152.465263 L185.938613,130.881734 L162.487237,147.027641 L182.275863,150.694941 L195.676238,141.46912 L257.037363,173.32627 Z" id="Fill-3" fill="#8EC363"></path>
                <path d="M276,83.7980929 C276,83.7980929 247.25,118.34095 247.25,129.855236 C247.25,141.369521 270.25,144.248093 270.25,152.883807 C270.25,161.519521 270.25,190.305236 261.625,198.94095 C253,207.576664 215.625,221.969521 215.625,221.969521 L244.375,247.876664 L290.375,247.876664 C290.375,247.876664 315.1,238.961729 319.125,224.848093 C324.875,204.698093 316.25,204.698093 313.375,187.426664 C310.5,170.155236 326.485,138.444893 318.489625,119.757207 C310.5,101.069521 276,83.7980929 276,83.7980929" id="Fill-5" fill="#F7BE1B"></path>
                <path d="M215.625,221.969521 C215.625,221.969521 184,236.362379 181.125,239.24095 C178.25,242.119521 186.875,256.512379 186.875,256.512379 L247.25,363.019521 L258.75,357.262379 L221.375,247.876664 L244.375,247.876664 L215.625,221.969521 Z" id="Fill-7" fill="#B6E58E"></path>
                <polygon id="Fill-9" fill="#8EC363" points="190.41815 262.764348 138.00115 363.019234 143.75115 371.654948 209.40465 296.262284"></polygon>
                <path d="M138,363.019521 C138,363.019521 103.5,391.805236 83.375,391.805236 L80.5,400.44095 L123.625,400.44095 L143.75,371.655236 L138,363.019521 Z" id="Fill-11" fill="#708FAC"></path>
                <path d="M247.25,363.019521 C247.25,363.019521 250.125,388.926664 215.625,391.805236 L212.75,400.44095 L238.625,400.44095 C238.625,400.44095 261.625,397.562379 270.25,388.926664 L258.75,357.262379 L247.25,363.019521 Z" id="Fill-13" fill="#6FA3D1"></path>
                <g id="Group-17" transform="translate(215.625000, 144.248093)">
                    <mask id="mask-2" fill="white">
                        <use xlink:href="#path-1"></use>
                    </mask>
                    <g id="Clip-16"></g>
                    <path d="M108.7923,2.05904214 C108.7923,2.05904214 126.499425,2.879435 132.249425,2.879435 C137.999425,2.879435 149.499425,8.63657786 137.999425,48.9365779 C126.499425,89.2365779 109.249425,97.8722921 109.249425,97.8722921 C109.249425,97.8722921 103.499425,103.629435 74.749425,103.629435 L5.749425,103.629435 L8.624425,115.143721 L11.499425,115.143721 L-0.000575,247.558006 L7.882675,246.369156 L31.624425,115.143721 L89.124425,115.143721 L117.874425,256.193721 L123.624425,256.193721 L112.124425,112.265149 C112.124425,112.265149 126.499425,109.386578 140.874425,71.9651493 C155.249425,34.5437207 149.499425,8.63657786 149.499425,8.63657786 C149.499425,8.63657786 146.624425,0.000863571429 132.249425,0.000863571429 C117.874425,0.000863571429 108.7923,2.05904214 108.7923,2.05904214" id="Fill-15" fill="#8FA8BD" mask="url(#mask-2)"></path>
                </g>
                <path d="M270.25,75.1623786 C270.25,75.1623786 276,89.5552357 278.875,95.3123786 C281.75,101.069521 296.125,86.6766643 296.125,86.6766643 C296.125,86.6766643 298.8735,61.35675 293.25,60.7695214 C287.6265,60.1822929 270.25,75.1623786 270.25,75.1623786" id="Fill-18" fill="#8EC363"></path>
                <path d="M244.375,46.3766643 C244.375,46.3766643 258.75,80.9195214 264.5,83.7980929 C270.25,86.6766643 293.25,60.7695214 293.25,60.7695214 C293.25,60.7695214 296.125,23.3480929 281.75,26.2266643 C267.375,29.1052357 244.375,46.3766643 244.375,46.3766643" id="Fill-20" fill="#B6E58E"></path>
                <path d="M235.75,26.2266643 C241.5,14.7123786 255.875,-2.55905 273.125,0.319521429 C290.375,3.19809286 310.5,17.59095 313.375,43.4980929 C316.25,69.4052357 333.5,69.4052357 345,75.1623786 C356.5,80.9195214 368,106.826664 342.125,129.855236 C316.25,152.883807 319.125,150.005236 319.125,150.005236 C319.125,150.005236 322,126.976664 319.125,124.098093 C319.125,124.098093 319.125,106.826664 299,98.19095 C278.875,89.5552357 293.25,69.4052357 293.25,60.7695214 C293.25,52.1338071 290.375,40.6195214 281.75,37.74095 C273.125,34.8623786 267.375,34.8623786 261.625,40.6195214 C255.875,46.3766643 244.375,52.1338071 238.625,43.4980929 C232.875,34.8623786 235.75,26.2266643 235.75,26.2266643" id="Fill-22" fill="#468DCB"></path>
                <path d="M270.25,181.669521 L322,118.34095 C322,118.34095 333.5,103.948093 322,92.4338071 C308.984875,79.3996357 296.125,98.19095 296.125,98.19095 L264.5,161.519521 L192.625,152.883807 L172.5,173.033807 L192.625,173.033807 L204.125,161.519521 L270.25,181.669521 Z" id="Fill-24" fill="#B6E58E"></path>
                <polygon id="Fill-26" fill="#C0C5C9" points="152.375 181.669521 215.625 181.669521 215.625 173.033807 152.375 173.033807"></polygon>
                <path d="M159.896575,184.226269 L75.015075,184.232026 C71.323575,184.232026 67.2727,181.269976 65.9617,177.611311 L48.13095,127.84369 C46.822825,124.187904 48.75195,121.222976 52.440575,121.222976 L137.3192,121.217219 C141.0107,121.217219 145.06445,124.182147 146.372575,127.837933 L164.203325,177.605554 C165.514325,181.26134 163.5852,184.226269 159.896575,184.226269" id="Fill-28" fill="#708FAC"></path>
                <path d="M116.395525,154.323093 C117.212025,159.887371 114.015025,164.398093 109.25115,164.398093 C104.4844,164.398093 99.962025,159.887371 99.145525,154.323093 C98.329025,148.758814 101.526025,144.248093 106.2899,144.248093 C111.05665,144.248093 115.579025,148.758814 116.395525,154.323093" id="Fill-29" fill="#C0C5C9"></path>
                <polygon id="Fill-30" fill="#8FA8BD" points="0 196.062379 178.25 196.062379 178.25 181.669521 0 181.669521"></polygon>
                <polygon id="Fill-31" fill="#637C91" points="178.25 196.062379 293.25 196.062379 293.25 181.669521 178.25 181.669521"></polygon>
                <polygon id="Line" fill="#8FA8BD" fill-rule="nonzero" points="237.189576 280.741409 239.258591 276.189576 320.810424 313.258591 318.741409 317.810424"></polygon>
                <polygon id="Line-Copy" fill="#8FA8BD" fill-rule="nonzero" points="227.247618 319.806288 225.193712 315.247618 320.752382 272.193712 322.806288 276.752382"></polygon>
            </g>
        </g>
    </g>
</svg>