<svg xmlns="http://www.w3.org/2000/svg" width="423" height="423" viewBox="0 0 423 423">
  <g fill="none" fill-rule="evenodd" transform="translate(-1 -.403)">
    <polygon fill="#8FA8BD" points="119.881 211.986 304.147 211.986 304.147 197.126 119.881 197.126"/>
    <polygon fill="#637C91" points="304.147 211.986 423.031 211.986 423.031 197.129 304.147 197.129"/>
    <path fill="#B6E58E" d="M96.1048951,107.965035 L96.1048951,90.1328671 L99.0769231,54.4685315 L113.937063,24.7482517 L140.685315,24.7482517 C140.685315,24.7482517 155.545455,48.5244755 146.629371,72.3006993 L136.598776,107.965035 L96.1048951,107.965035 Z"/>
    <polygon fill="#708FAC" points="179.322 351.671 217.958 351.671 217.958 277.371 179.322 277.371"/>
    <path fill="#468DCB" d="M78.2727273,15.8321678 C81.2447552,9.88811189 84.2167832,6.91608392 90.1608392,3.94405594 C96.1048951,0.972027972 107.993007,9.88811189 122.853147,9.88811189 C137.713287,9.88811189 140.685315,3.94405594 146.629371,0.972027972 C152.573427,-2 152.573427,6.91608392 152.573427,9.88811189 C152.573427,12.8601399 152.374301,30.1781469 128.797203,39.6083916 C113.937063,45.5524476 128.797203,69.3286713 131.769231,72.3006993 C134.741259,75.2727273 140.685315,75.2727273 143.657343,72.3006993 C146.629371,69.3286713 149.601399,66.3566434 149.601399,72.3006993 C149.601399,78.2447552 146.629371,87.1608392 152.573427,96.0769231 C158.517483,104.993007 149.601399,107.965035 149.601399,107.965035 L128.797203,107.965035 C128.797203,107.965035 119.881119,96.0769231 119.881119,87.1608392 C119.881119,79.7575175 120.636014,72.2382867 119.307517,64.9033217 C118.415909,59.9846154 114.68007,47.7814685 107.993007,54.4685315 C102.048951,60.4125874 110.965035,66.3566434 110.965035,69.3286713 C110.965035,72.3006993 105.020979,90.1328671 96.1048951,90.1328671 C96.1048951,90.1328671 96.1048951,84.1888112 90.1608392,78.2447552 C84.2167832,72.3006993 72.3286713,57.4405594 75.3006993,48.5244755 C78.2727273,39.6083916 84.2167832,36.6363636 84.2167832,36.6363636 C84.2167832,36.6363636 72.7923077,26.793007 78.2727273,15.8321678"/>
    <path fill="#6FA3D1" d="M144.750157,228.419248 C144.750157,228.419248 212.013094,238.735157 217.95715,241.707185 C223.901206,244.679213 238.761346,247.651241 238.761346,256.567325 C238.761346,265.483409 232.81729,301.147745 232.81729,301.147745 L209.041066,399.224668 L191.208899,399.224668 L191.208899,366.53236 L191.208899,336.81208 L214.985122,277.371521 L69.3557517,277.371521 L64.8977098,256.567325 L144.750157,228.419248 Z"/>
    <path fill="#EF6C00" d="M96.1048951,107.965035 L72.3286713,131.741259 L48.5524476,253.594406 L60.4405594,256.566434 L84.2167832,256.566434 C84.2167832,256.566434 119.881119,256.566434 143.657343,232.79021 L155.545455,185.237762 L143.657343,107.965035 L96.1048951,107.965035 Z"/>
    <path fill="#637C91" d="M278.884615,197.125874 L204.583916,197.125874 C202.120105,197.125874 200.125874,195.131643 200.125874,192.667832 C200.125874,190.204021 202.120105,188.20979 204.583916,188.20979 L278.884615,188.20979 C281.348427,188.20979 283.342657,190.204021 283.342657,192.667832 C283.342657,195.131643 281.348427,197.125874 278.884615,197.125874"/>
    <path fill="#F7BE1B" d="M170.405594,140.657343 C170.405594,140.657343 167.433566,128.769231 164.461538,122.825175 C161.48951,116.881119 153.316434,102.020979 136.598776,107.965035 C119.881119,113.909091 116.909091,131.741259 119.881119,140.657343 C122.853147,149.573427 134.741259,164.433566 134.741259,164.433566 L170.405594,140.657343 Z"/>
    <polygon fill="#8EC363" points="187.532 192.037 230.96 176.32 188.237 214.957 179.321 209.013 179.321 194.153"/>
    <path fill="#637C91" d="M57.4685315,131.741259 L75.3006993,131.741259 C75.3006993,131.741259 84.2167832,134.713287 87.1888112,143.629371 C90.0092657,152.087762 99.0769231,214.958042 99.0769231,214.958042 C99.0769231,214.958042 107.993007,241.706294 72.3286713,241.706294 C42.6083916,211.986014 57.4685315,131.741259 57.4685315,131.741259"/>
    <path fill="#8FA8BD" d="M75.3006993,241.706294 L33.6923077,241.706294 C23.8994755,241.706294 14.9269231,233.616434 13.3963287,224.153497 L1.21695804,148.883916 C-0.313636364,139.418007 6.38531469,131.744231 16.1811189,131.741259 L57.308042,131.741259 C67.1038462,131.738287 76.2844406,139.412063 77.815035,148.875 L89.9944056,224.14458 C91.525,233.61049 85.0935315,241.706294 75.3006993,241.706294"/>
    <path fill="#809AB0" d="M63.8988112,240.130227 L41.0558042,240.130227 C35.616993,240.133199 30.519965,236.287395 29.666993,231.544038 L22.9056294,193.826031 C22.0556294,189.085647 25.7736364,185.239843 31.2154196,185.239843 L54.0554545,185.236871 C59.4942657,185.236871 64.5942657,189.082675 65.4442657,193.823059 L72.2086014,231.541066 C73.0586014,236.284423 69.3376224,240.130227 63.8988112,240.130227"/>
    <path fill="#8FA8BD" d="M36.6643357,295.202797 L113.937063,295.202797 C118.861713,295.202797 122.853147,291.211364 122.853147,286.286713 C122.853147,281.362063 118.861713,277.370629 113.937063,277.370629 L36.6643357,277.370629 C31.7396853,277.370629 27.7482517,281.362063 27.7482517,286.286713 C27.7482517,291.211364 31.7396853,295.202797 36.6643357,295.202797"/>
    <path fill="#8FA8BD" d="M36.6643357,209.013986 L48.5524476,209.013986 C48.5524476,209.013986 51.5244755,209.013986 51.5244755,217.93007 C51.5244755,226.846154 66.3846154,292.230769 66.3846154,292.230769 C66.3846154,292.230769 72.3286713,304.118881 81.2447552,304.118881 L63.4125874,304.118881 C63.4125874,304.118881 54.4965035,304.118881 51.5244755,292.230769 L36.6643357,209.013986 Z"/>
    <path fill="#637C91" d="M107.993007 304.118881L102.048951 321.951049 96.1048951 321.951049 96.1048951 369.503497 158.517483 348.699301C158.517483 348.699301 161.48951 342.755245 158.517483 330.867133 155.45035 318.592657 144.305245 306.74021 143.981294 305.429545 143.657343 304.118881 136.417483 298.302622 131.769231 295.202797 131.769231 295.202797 131.769231 304.118881 122.853147 304.118881L107.993007 304.118881zM48.5524476 209.013986L54.4965035 209.013986C54.4965035 209.013986 57.4685315 209.013986 57.4685315 214.958042 57.4685315 220.902098 72.3286713 289.258741 72.3286713 289.258741 72.3286713 289.258741 72.3286713 295.202797 78.2727273 295.202797L107.993007 295.202797C107.993007 295.202797 102.048951 283.314685 107.993007 277.370629L183.77972 277.370629C183.77972 277.370629 191.20979 280.342657 191.20979 289.258741L191.20979 366.531469 113.937063 384.363636C113.937063 384.363636 110.965035 402.195804 119.881119 405.167832L128.797203 405.167832 140.685315 423 42.6083916 423 57.4685315 405.167832 87.1888112 405.167832C87.1888112 405.167832 78.2727273 387.335664 81.2447552 372.475524L84.2167832 372.475524 84.2167832 321.951049 78.2727273 321.951049 72.3286713 304.118881C72.3286713 304.118881 69.3566434 304.118881 66.3846154 298.174825 62.1821678 289.766958 48.5524476 209.013986 48.5524476 209.013986zM209.041958 399.223776C209.041958 399.223776 232.818182 414.083916 253.622378 414.083916L247.678322 423 191.20979 423 191.20979 399.223776 209.041958 399.223776z"/>
    <path fill="#B6E58E" d="M134.741259,164.433566 C134.741259,164.433566 173.377622,214.958042 176.34965,217.93007 C179.321678,220.902098 188.237762,226.846154 194.181818,223.874126 C200.125874,220.902098 226.874126,188.20979 226.874126,188.20979 L247.678322,188.20979 L235.79021,176.321678 C235.79021,176.321678 232.818182,173.34965 226.874126,179.293706 C220.93007,185.237762 191.20979,203.06993 191.20979,203.06993 L170.405594,140.657343 L134.741259,164.433566 Z"/>
    <path fill="#637C91" d="M338.860734,167.405594 L224.853741,167.405594 C219.403042,167.405594 214.986608,162.989161 214.986608,157.538462 L214.986608,70.2797203 C214.986608,64.829021 219.403042,60.4125874 224.853741,60.4125874 L338.860734,60.4125874 C344.308462,60.4125874 348.727867,64.829021 348.727867,70.2797203 L348.727867,157.538462 C348.727867,162.989161 344.308462,167.405594 338.860734,167.405594"/>
    <path fill="#FFF" d="M333.314336,155.517483 L230.398951,155.517483 C228.452273,155.517483 226.874126,153.939336 226.874126,151.992657 L226.874126,75.8255245 C226.874126,73.8788462 228.452273,72.3006993 230.398951,72.3006993 L333.314336,72.3006993 C335.261014,72.3006993 336.839161,73.8788462 336.839161,75.8255245 L336.839161,151.992657 C336.839161,153.939336 335.261014,155.517483 333.314336,155.517483"/>
    <polygon fill="#00B586" points="310.5 72.317 227 72.317 227 155.753 310.5 155.753 268.75 114.035" opacity=".7"/>
  </g>
</svg>
