<?xml version="1.0" encoding="UTF-8"?>
<svg width="527px" height="585px" viewBox="0 0 527 585" version="1.1" xmlns="http://www.w3.org/2000/svg" xmlns:xlink="http://www.w3.org/1999/xlink">
    <!-- Generator: Sketch 50.2 (55047) - http://www.bohemiancoding.com/sketch -->
    <title>desk-guy-avocado1 copy</title>
    <desc>Created with Sketch.</desc>
    <defs></defs>
    <g id="Page-1" stroke="none" stroke-width="1" fill="none" fill-rule="evenodd">
        <path d="M560.306768,251.358141 C549.781749,235.31061 537.125358,220.553923 526.387934,204.337703 C510.35504,180.127055 510.684634,157.331934 502.283661,131.324373 C481.431378,66.826208 425.810642,42.6082254 362.631228,51.9228341 C325.789998,57.3575783 294.47129,77.82038 269.583317,104.854748 C257.417654,118.078559 246.870662,132.629885 236.931587,147.562596 C226.846025,162.708003 220.473884,180.398425 203.591372,189.493004 C203.210508,189.698365 202.756401,190.043079 202.880915,190.453802 C203.005428,190.871859 203.796452,190.336453 203.378967,190.219103 C182.314279,197.164721 161.169025,196.67332 139.320637,196.130579 C105.497018,195.294465 74.9766588,190.791181 42.0246319,201.418637 C-9.32603734,217.986905 -42.5197662,263.870521 -44.9221367,317.653218 C-49.4998244,419.908553 58.8705225,446.026129 136.903618,455.942153 C174.557845,460.724141 211.626129,461.442906 249.426843,457.445692 C273.662952,454.886008 298.111467,451.600225 322.52336,453.353132 C345.594905,455.010692 367.597104,461.369563 390.756541,463.408509 C421.782277,466.144216 454.19963,465.755497 484.749286,459.044578 C534.64242,448.079743 571.212651,407.975585 581.122429,358.285448 C585.92717,334.228821 584.557526,308.962028 577.196605,285.565491 C573.263455,273.082449 567.250205,261.94159 560.306768,251.358141" id="desk-guy-avocado1-copy" fill="#E9F2FB" transform="translate(269.437500, 257.500000) rotate(-300.000000) translate(-269.437500, -257.500000) "></path>
    </g>
</svg>