<?xml version="1.0" encoding="UTF-8"?>
<svg width="1853px" height="601px" viewBox="0 0 1853 601" version="1.1" xmlns="http://www.w3.org/2000/svg" xmlns:xlink="http://www.w3.org/1999/xlink">
    <!-- Generator: Sketch 50.2 (55047) - http://www.bohemiancoding.com/sketch -->
    <title>Artboard</title>
    <desc>Created with Sketch.</desc>
    <defs></defs>
    <g id="Artboard" stroke="none" stroke-width="1" fill="none" fill-rule="evenodd">
        <g id="Group-22" transform="translate(-3.000000, -2.000000)">
            <rect id="Rectangle-9" fill="#FFFFFF" x="0" y="378.53125" width="1623" height="224.46875"></rect>
            <path d="M1603.75827,395.848976 C1583.5451,425.853313 1549.2932,445.583418 1510.44141,445.583418 C1480.08574,445.583418 1452.53814,433.538977 1432.30057,413.960208 C1417.30282,421.378837 1400.41663,425.547284 1382.55859,425.547284 C1372.2129,425.547284 1362.19337,424.148255 1352.67824,421.528742 C1332.92803,453.975158 1297.26852,475.637619 1256.55859,475.637619 C1238.94421,475.637619 1222.27533,471.58214 1207.43155,464.352376 C1187.84345,497.49447 1151.79153,519.717113 1110.55859,519.717113 C1075.09486,519.717113 1043.46374,503.278085 1022.84381,477.591568 C1010.61376,482.157955 997.37713,484.653879 983.558594,484.653879 C953.343369,484.653879 925.910278,472.720625 905.699106,453.301925 C891.914987,473.444123 868.777082,486.657492 842.558594,486.657492 C839.55078,486.657492 836.583509,486.483592 833.666253,486.14528 C817.803431,517.365544 785.42398,538.75144 748.058594,538.75144 C715.361162,538.75144 686.481721,522.37514 669.146864,497.363092 C655.353008,510.882576 636.474133,519.216209 615.652344,519.216209 C599.30675,519.216209 584.158499,514.080509 571.727681,505.331942 C551.376445,525.673486 523.289103,538.250536 492.269531,538.250536 C461.140227,538.250536 432.963935,525.584346 412.595694,505.115775 C395.145606,516.263182 374.421477,522.722533 352.191406,522.722533 C336.955663,522.722533 322.427301,519.688401 309.175535,514.190379 C290.045175,529.261129 265.916192,538.250536 239.691406,538.250536 C221.402799,538.250536 204.133457,533.878654 188.867907,526.121192 C168.904292,544.242094 142.416722,555.28125 113.355469,555.28125 C51.2234344,555.28125 0.85546875,504.822285 0.85546875,442.577998 C0.85546875,440.051569 0.938448009,437.544556 1.10182514,435.059545 L0.05859375,421.798336 L0.05859375,0.78125 L1940.91406,0.78125 L1900.45312,253.398438 L1603.75827,395.848976 Z" id="headerback" fill="#00B586"></path>
        </g>
        <rect id="Rectangle-13" fill="#00B586" x="-3" y="407" width="120" height="198"></rect>
        <g id="paper-copy" transform="translate(-26.523743, 118.812500)">
            <path d="M26.2778798,482.987 C26.2778798,482.987 -55.2796202,340.824 68.9697798,263.2682 C94.9998798,247.2342 125.71928,237.691 157.71028,235.6999 C192.77428,233.3681 227.27228,226.782 260.16828,216.13943 C328.90128,193.5259 499.42628,294.1614 388.39428,483 L26.2778798,482.987 Z" id="Shape" fill="#CDEAF4" fill-rule="nonzero" transform="translate(212.500140, 348.000004) scale(-1, 1) translate(-212.500140, -348.000004) "></path>
            <path d="M695.904,483.079 L224.4456,483.079 C224.4456,483.079 246.483,423.502 149.542,293.313 C104.8585,233.3 134.40709,150.767 204.9829,88.5501 C226.6169,69.6075 250.536,53.455 276.18,40.4702 C300.483,28.0634 326.078,18.3806 352.502,11.5974 C355.13,10.9248 357.765279,10.2522025 360.436,9.65427 C417.794922,-3.18749 476.763672,-0.125 533.611,11.3234 C536.29909,11.8647505 538.897,12.6935 541.545,13.4409 C550.375,15.9321 559.23,18.7554 568.109,21.9109 C696.315,68.1099 747.191,145.224 757.252,228.43 C767.885,316.12 733.201,410.635 695.904,483.079 Z" id="Shape" fill="#BBD5EC" fill-rule="nonzero"></path>
            <path d="M534,11.2931 L534,252 L359.999991,252 L359.999991,9.62709 C401.6214,-0.0880939 444.63,-2.474 487.078,2.57746 C494.788,3.49751 502.535,4.67453 510.32,6.10849 C518.105,7.54246 525.999,9.27067 534,11.2931 Z" id="Vector_3" fill="#468DCB" fill-rule="nonzero"></path>
            <path d="M491.018,82.3844 L360.349991,82.3844 L360.349991,37.356253 C368.99319,35.66225 380.7206,36.35978 387.5481,49.3264 C392.5226,58.8303 399.1014,60.6987 404.1381,60.3623 C407.6547,60.0594 410.9934,58.681 413.7016,56.4138 C419.3227,51.8674 436.7708,40.7941 452.1794,63.1027 C465.213,81.9983 489.078,82.3844 491.018,82.3844 Z" id="Vector_4" fill="#76A7DA" fill-rule="nonzero"></path>
            <path d="M533.642,33.32292 C521.0534,25.62773 507.52817,30.594528 500.642,49.1539 L533.642,49.1539 L533.642,33.32292 Z" id="Subtract" fill="#76A7DA" fill-rule="nonzero"></path>
            <path d="M534,75.0000084 L534,253 L360.099788,253 C360.386732,210.456 360.099805,147.9242 359.999998,147.9242 L399.2613,147.9242 C399.5305,147.9226 399.7973,147.9744 400.0463,148.0766 C400.2953,148.1789 400.5215,148.3295 400.7118,148.5198 C400.9021,148.7102 401.0528,148.9364 401.155,149.1854 C401.2572,149.4344 401.3091,149.7012 401.3074,149.9704 L401.3074,167.1253 C401.3057,167.3945 401.3575,167.6613 401.4598,167.9103 C401.562,168.1593 401.7126,168.3855 401.9029,168.5758 C402.0933,168.7662 402.3195,168.9168 402.5685,169.0191 C402.8174,169.1213 403.0843,169.1731 403.3534,169.1714 L435.9402,169.1714 C437.5681,169.1714 439.1294,168.5247 440.2805,167.3736 C441.4316,166.2224 442.0783,164.6611 442.0783,163.0331 L442.0783,142.4596 C442.0775,142.1908 442.13,141.9244 442.2328,141.676 C442.3356,141.4276 442.4866,141.202 442.6771,141.0123 L468.128,115.5606 C468.696,114.9885 469.373,114.535 470.118,114.2266 C470.864,113.9182 471.663,113.7609 472.469,113.764 L502.037,113.764 C502.306,113.7657 502.573,113.7139 502.822,113.6116 C503.071,113.5094 503.297,113.3587 503.487,113.1684 C503.678,112.9781 503.828,112.7518 503.931,112.5028 C504.033,112.2539 504.085,111.987 504.083,111.7179 L504.083,81.13837 C504.083,79.51037 504.73,77.94905 505.881,76.79788 C507.032,75.646714 508.593,75.0000084 510.221,75.0000084 L534,75.0000084 Z" id="Vector_5" fill="#47739A" fill-rule="nonzero"></path>
            <polygon id="Vector_6" fill="#679FD5" fill-rule="nonzero" points="519.609 95.7000243 510.43103 95.7000243 510.43103 112.341 519.609 112.341"></polygon>
            <polygon id="Vector_7" fill="#679FD5" fill-rule="nonzero" points="533.54966 95.7000243 526.460973 95.7000243 526.460973 112.3288 533.54966 112.3288"></polygon>
            <path d="M754.107,209.003 C755.462,215.5975 756.534,222.244 757.342,228.93 C767.975,316.62 733.29,411.135 695.994,483.579 L172.642,483.579 L565.731,122.154 L652.731,122.154 L754.107,209.003 Z" id="Intersect" fill="#FFFFFF" opacity="0.3"></path>
            <polygon id="Vector_8" fill="#637C91" fill-rule="nonzero" points="245.1729 313.043 232 313.043 232 483.066 245.1729 483.066"></polygon>
            <polygon id="Vector_9" fill="#637C91" fill-rule="nonzero" points="547.4909 313.043 534.318 313.043 534.318 483.066 547.4909 483.066"></polygon>
            <polygon id="Vector_10" fill="#9EC0DB" fill-rule="nonzero" points="361.1729 313.043 348 313.043 348 483.066 361.1729 483.066"></polygon>
            <polygon id="Vector_11" fill="#9EC0DB" fill-rule="nonzero" points="663.4909 313.043 650.318 313.043 650.318 483.066 663.4909 483.066"></polygon>
            <g id="Group-11" transform="translate(401.000000, 378.000000)" fill-rule="nonzero">
                <path d="M81.4438,29.7816 L7.43154,29.7816 C6.86476,29.7816 3.15399217,29.0873 3.15399217,29.0873 L5.29276,14.2828 C5.32292,14.0717 5.39443,13.8686 5.50319,13.6851 C5.61196,13.5016 5.75586,13.3412 5.92667,13.2133 C6.09748,13.0853 6.29186,12.9923 6.49869,12.9393 C6.70553,12.8864 6.92075,12.8747 7.13211,12.9049 L11.16372,13.4497 C11.56683,13.4836 11.96975,13.3823 12.30872,13.1618 C12.64768,12.9412 12.90331,12.614 13.03514,12.232 L16.8635,1.40107 C16.9875,1.05457 17.2128,0.753245 17.5103,0.536137 C17.8077,0.319029 18.1636,0.196161 18.5318,0.183404 L23.4723,0.00180609 C23.7468,-0.0104598 24.0204,0.0399114 24.2724,0.149112 C24.5244,0.258313 24.7482,0.423465 24.9267,0.632005 L29.0652,5.41728 C29.2358,5.61211 29.4429,5.77176 29.6748,5.88727 L32.4552,7.1904 C32.8303,7.36844 33.255,7.4136 33.6593,7.31847 C34.0635,7.22335 34.4234,6.99358 34.6795,6.66699 L36.8183,3.90051 C37.0647,3.58671 37.4062,3.36097 37.7917,3.25701 C38.1772,3.15305 38.586,3.17644 38.957,3.32371 L46.5176,6.22905 C46.8972,6.37102 47.3132,6.38302 47.7003,6.26314 C48.0875,6.14327 48.4238,5.89833 48.6564,5.56681 C49.9717,3.65484 52.6238,0.172721 54.153,0.749517 C55.6822,1.32631 60.5159,1.64672 62.5905,1.75354 C62.8955,1.7705 63.1916,1.86223 63.4527,2.02057 C63.7138,2.17892 63.9318,2.39901 64.0876,2.66146 L71.2632,14.9878 C71.4144,15.2454 71.623,15.4647 71.8727,15.6287 L76.9523,18.8331 C77.2053,18.9926 77.4935,19.0877 77.7919,19.1101 C78.0902,19.1324 78.3894,19.0813 78.6633,18.9613 L79.7327,18.502 C79.9942,18.3864 80.2792,18.3336 80.5649,18.348 C80.8505,18.3623 81.1287,18.4434 81.3773,18.5847 C81.6259,18.726 81.8378,18.9235 81.9961,19.1614 C82.1543,19.3994 82.2545,19.671 82.2885,19.9547 L83.1227,26.4169 L83.2938,27.7414 C83.3226,28.0001 83.296,28.2619 83.2159,28.5095 C83.1358,28.7571 83.0039,28.9849 82.829,29.1778 C82.6541,29.3707 82.4401,29.5243 82.2013,29.6283 C81.9625,29.7324 81.7043,29.7847 81.4438,29.7816 Z" id="Vector_12" fill="#DAE0E0"></path>
                <path d="M83.1021,26.3852 L24.4570065,26.3852 L33.01209,18.3635 C33.68156,17.7383 34.4923,17.2839 35.3754,17.039 L46.358,14.0161 C46.6798,13.9289 46.9694,13.7503 47.1915,13.5019 C47.4136,13.2535 47.5587,12.9461 47.6092,12.6169 L48.2294,8.67542 C48.5898,6.26394 49.6923,4.02417 51.3841,2.26658 C52.4535,1.198436 53.4374,0.50414 54.2073,0.792538 C55.8221,1.401378 60.5702,1.689778 62.6448,1.79659 C62.9498,1.81356 63.2459,1.90525 63.507,2.06359 C63.7681,2.22194 63.9861,2.44207 64.1419,2.70452 L71.264,14.9881 C71.4152,15.2457 71.6238,15.465 71.8736,15.629 L76.9639,18.8334 C77.2168,18.9886 77.5035,19.0803 77.7995,19.1008 C78.0956,19.1212 78.3923,19.0698 78.6642,18.9509 L79.7336,18.4916 C79.9951,18.376 80.2801,18.3232 80.5657,18.3376 C80.8513,18.352 81.1296,18.4331 81.3781,18.5743 C81.6267,18.7156 81.8386,18.9131 81.9969,19.1511 C82.1552,19.389 82.2553,19.6607 82.2894,19.9443 L83.1021,26.3852 Z" id="Vector_13" fill="#FFFFFF"></path>
                <path d="M48.0168,11.16359 C48.0168,8.76249 48.8767,6.1613 49.3067,5.16084 L47.5869,6.01838 C46.727,6.44714 45.4372,5.58961 44.1473,5.16084 C42.8575,4.73207 38.558,3.017 37.6981,3.017 C37.0102,3.017 35.1184,5.58961 34.2585,6.87591 L30.819,10.73482 C30.1024,11.73528 28.0673,13.822 25.6596,14.165 C22.64999,14.5937 20.9302,13.3074 19.21041,13.3074 C17.83458,13.3074 16.91736,15.88 16.63073,17.1663 L14.481,26.1705 L25.2297,26.1705 C26.6628,24.8842 29.9591,21.797 31.6789,19.739 C33.3987,17.6809 35.5484,16.8805 36.4083,16.7376 L44.5773,14.5937 C45.7238,14.4508 48.0168,13.5647 48.0168,11.16359 Z" id="Vector-17" fill="#EDEFF1"></path>
                <polygon id="Vector_14" fill="#8FA8BD" points="73.1455 104.9998 13.924 104.9998 2.08864e-05 25.669 86 25.669"></polygon>
            </g>
            <path d="M506.642,461.154026 L565.687097,461.154026 C568.657297,467.71785 573.437697,473.2819 579.458197,477.1827 C585.478697,481.0835 592.485097,483.1563 599.641997,483.154002 L540.596797,483.154 C533.440497,483.1542 526.434897,481.0805 520.414797,477.18 C514.394687,473.2794 509.613887,467.71653 506.642,461.154026 Z" id="Vector_15" fill="#FFFFFF" fill-rule="nonzero" transform="translate(553.141998, 472.154015) scale(-1, 1) translate(-553.141998, -472.154015) "></path>
            <path d="M509.9821,5.50646 C508.6983,11.32591 506.2824,16.83505 502.8725,21.71925 C499.4626,26.60345 495.1254,30.76695 490.1088,33.97215 C485.0921,37.17725 479.4942,39.36125 473.6347,40.39925 C467.7752,41.43725 461.76898,41.30905 455.958997,40.02185 C464.86553,38.04135 472.9682,33.41525 479.2074,26.74835 C485.4467,20.08145 489.5322,11.684 490.9298,2.65404962 C497.2971,3.351581 503.6521,4.31069 509.9821,5.50646 Z" id="Vector_16" fill="#FACD5C" fill-rule="nonzero"></path>
            <path d="M379.73727,22.43407 C380.62329,22.43407 381.34153,21.71478 381.34153,20.82736 C381.34153,19.939938 380.62329,19.2204939 379.73727,19.2204939 C378.851257,19.2204939 378.133024,19.939938 378.133024,20.82736 C378.133024,21.71478 378.851257,22.43407 379.73727,22.43407 Z" id="Vector_17" fill="#FACD5C" fill-rule="nonzero"></path>
            <path d="M454.89027,9.43019 C455.77628,9.43019 456.49459,8.71075 456.49459,7.82333 C456.49459,6.935909 455.77628,6.2166169 454.89027,6.2166169 C454.004247,6.2166169 453.286015,6.935909 453.286015,7.82333 C453.286015,8.71075 454.004247,9.43019 454.89027,9.43019 Z" id="Vector_18" fill="#F7BD1B" fill-rule="nonzero" opacity="0.5"></path>
            <path d="M512.03528,56.25205 C512.9213,56.25205 513.63953,55.53261 513.63953,54.64519 C513.63953,53.757768 512.9213,53.0383243 512.03528,53.0383243 C511.149263,53.0383243 510.43103,53.757768 510.43103,54.64519 C510.43103,55.53261 511.149263,56.25205 512.03528,56.25205 Z" id="Vector_19" fill="#FACD5C" fill-rule="nonzero"></path>
            <path d="M398.20524,101.60404 C399.09126,101.60404 399.80957,100.8846 399.80957,99.99718 C399.80957,99.109759 399.09126,98.3903149 398.20524,98.3903149 C397.319226,98.3903149 396.600994,99.109759 396.600994,99.99718 C396.600994,100.8846 397.319226,101.60404 398.20524,101.60404 Z" id="Vector_20" fill="#FACD5C" fill-rule="nonzero"></path>
            <path d="M438.29931,102.93683 C439.18533,102.93683 439.90356,102.21738 439.90356,101.32996 C439.90356,100.442544 439.18533,99.7231 438.29931,99.7231 C437.41329,99.7231 436.694982,100.442544 436.694982,101.32996 C436.694982,102.21738 437.41329,102.93683 438.29931,102.93683 Z" id="Vector_21" fill="#FACD5C" fill-rule="nonzero"></path>
            <path d="M508.39029,29.40949 C509.27631,29.40949 509.99454,28.69004 509.99454,27.80263 C509.99454,26.915207 509.27631,26.1957635 508.39029,26.1957635 C507.504272,26.1957635 506.785964,26.915207 506.785964,27.80263 C506.785964,28.69004 507.504272,29.40949 508.39029,29.40949 Z" id="Vector_22" fill="#FACD5C" fill-rule="nonzero"></path>
            <path d="M370.53505,97.56843 C371.11886,97.56843 371.59218,97.09429 371.59218,96.50956 C371.59218,95.924823 371.11886,95.4509851 370.53505,95.4509851 C369.951238,95.4509851 369.477997,95.924823 369.477997,96.50956 C369.477997,97.09429 369.951238,97.56843 370.53505,97.56843 Z" id="Vector_23" fill="#FACD5C" fill-rule="nonzero"></path>
            <path d="M483.97809,101.90291 C484.5619,101.90291 485.03514,101.42876 485.03514,100.84403 C485.03514,100.259298 484.5619,99.7854608 483.97809,99.7854608 C483.394278,99.7854608 482.921036,100.259298 482.921036,100.84403 C482.921036,101.42876 483.394278,101.90291 483.97809,101.90291 Z" id="Vector_24" fill="#FACD5C" fill-rule="nonzero"></path>
            <path d="M387.69905,134.27152 C388.28286,134.27152 388.75618,133.79738 388.75618,133.21264 C388.75618,132.62791 388.28286,132.154073 387.69905,132.154073 C387.115238,132.154073 386.641997,132.62791 386.641997,133.21264 C386.641997,133.79738 387.115238,134.27152 387.69905,134.27152 Z" id="Vector_25" fill="#F7BD1B" fill-rule="nonzero" opacity="0.5"></path>
            <path d="M485.07309,68.42135 C485.6569,68.42135 486.13015,67.94721 486.13015,67.36248 C486.13015,66.777744 485.6569,66.3036027 485.07309,66.3036027 C484.489284,66.3036027 484.015967,66.777744 484.015967,67.36248 C484.015967,67.94721 484.489284,68.42135 485.07309,68.42135 Z" id="Vector_26" fill="#F7BD1B" fill-rule="nonzero" opacity="0.5"></path>
            <path d="M395.94212,34.77804 C396.52593,34.77804 396.99917,34.3039 396.99917,33.71917 C396.99917,33.134432 396.52593,32.6602905 395.94212,32.6602905 C395.358305,32.6602905 394.884988,33.134432 394.884988,33.71917 C394.884988,34.3039 395.358305,34.77804 395.94212,34.77804 Z" id="Vector_27" fill="#F7BD1B" fill-rule="nonzero" opacity="0.5"></path>
            <path d="M428.73711,10.16509 C429.32092,10.16509 429.79416,9.6911 429.79416,9.10636 C429.79416,8.52163 429.32092,8.04764041 428.73711,8.04764041 C428.153299,8.04764041 427.679982,8.52163 427.679982,9.10636 C427.679982,9.6911 428.153299,10.16509 428.73711,10.16509 Z" id="Vector_28" fill="#FACD5C" fill-rule="nonzero"></path>
            <path d="M426.6991,150.27159 C427.28291,150.27159 427.75615,149.79745 427.75615,149.21272 C427.75615,148.627983 427.28291,148.154146 426.6991,148.154146 C426.11529,148.154146 425.641973,148.627983 425.641973,149.21272 C425.641973,149.79745 426.11529,150.27159 426.6991,150.27159 Z" id="Vector_29" fill="#FACD5C" fill-rule="nonzero"></path>
            <path d="M421.46106,110.43563 C422.04487,110.43563 422.51819,109.96149 422.51819,109.37675 C422.51819,108.79202 422.04487,108.317878 421.46106,108.317878 C420.877254,108.317878 420.404012,108.79202 420.404012,109.37675 C420.404012,109.96149 420.877254,110.43563 421.46106,110.43563 Z" id="Vector_30" fill="#F7BD1B" fill-rule="nonzero" opacity="0.5"></path>
            <g id="Group-2" transform="translate(322.000000, 460.000000)" fill-rule="nonzero">
                <path d="M24.142,3.654 L32.142,4.154 L16.142,23.154 L0.142,23.154 L7.10601,16.6252 C7.76179,16.0104 8.10733,15.134 8.04754,14.2371 L7.73255,9.51229 C7.67501,8.64912 7.99288,7.80312 8.60459,7.19141 L14.6992,1.096809 C15.2701,0.52589 16.1283,0.354248 16.8749,0.661666 L24.142,3.654 Z" id="Vector-17_2" fill="#EDEFF1"></path>
                <path d="M12.966907,9.71411 L15.57853,4.955944 C15.70461,4.727007 15.90664,4.549407 16.14964,4.453876 C16.39263,4.3583438 16.66131,4.3508728 16.90922,4.432779 L23.5999,6.76207 C23.826,6.83712 24.0703,6.83712 24.2964,6.76207 L31.7581,4.3829823 C31.9807,4.3067599 32.2218,4.3043471 32.4458,4.3761401 C32.6698,4.447933 32.8647,4.590083 33.0017,4.781543 L39.3069,13.50069 C39.4585,13.70948 39.5316,13.96514 39.5134,14.22262 C39.4952,14.4801 39.3868,14.7229 39.2074,14.9082 L31.6462,22.7555 C31.5443,22.8649 31.4211,22.9523 31.2842,23.0123 C31.1474,23.0723 30.9997,23.1036 30.8503,23.1042 L15.64073,23.1042 C15.49273,23.1044 15.34621,23.0744 15.21009,23.0163 C15.07396,22.9581 14.95104,22.8729 14.84874,22.7658 C14.74644,22.6586 14.66689,22.5318 14.61492,22.3931 C14.56294,22.2543 14.53961,22.1064 14.54634,21.9583 L14.79504,14.547 C14.80466,14.3524 14.76173,14.15873 14.67071,13.98649 L12.954496,10.81024 C12.8603269,10.64252 12.8118891,10.45292 12.8140721,10.26051 C12.8162551,10.06809 12.8689564,9.87965 12.966907,9.71411 Z" id="Vector_31" fill="#FFFFFF"></path>
            </g>
            <path d="M111.811002,467.347018 L154.3057,467.347018 C156.4433,472.0407 159.8838,476.01949 164.2167,478.8089 C168.5496,481.5983 173.5922,483.0805 178.743,483.078801 L136.2483,483.0788 C131.0978,483.079 126.0559,481.5961 121.72326,478.8069 C117.3906,476.01769 113.94987,472.03975 111.811002,467.347018 Z" id="Vector_32" fill="#FFFFFF" fill-rule="nonzero"></path>
            <g id="Group-2_2" transform="translate(193.000000, 467.000000)" fill-rule="nonzero">
                <path d="M0.827998482,16.0788 L43.2605,16.0788 C45.3981,11.3851 48.8386,7.40635 53.1715,4.61696 C57.5044,1.82757 62.547,0.34534138 67.6978,0.347018246 L25.2652,0.34701967 C20.1148,0.346877468 15.0729,1.82973 10.74025,4.61894 C6.4076,7.40814 2.96686,11.3861 0.827998482,16.0788 Z" id="Vector_33" fill="#CFD7D7"></path>
                <path d="M97.2968,16.0788 L54.8643,16.0788 C52.7267,11.3851 49.2862,7.40635 44.9533,4.61696 C40.6203,1.82757 35.57778,0.34534138 30.4270023,0.347018246 L72.8595,0.34701967 C78.01,0.346877468 83.0519,1.82973 87.3845,4.61894 C91.7172,7.40814 95.1579,11.3861 97.2968,16.0788 Z" id="Vector_34" fill="#FFFFFF"></path>
            </g>
            <path d="M254.283666,280.657782 L254.283666,282.38746 C254.283666,283.72736 255.70199,283.43504 255.70199,283.43504 C256.28165,283.43504 256.46665,283.91009 256.46665,284.49478 L256.46665,291.5963 C256.46665,291.8773 256.35363,292.1469 256.15241,292.3456 C255.95118,292.5444 255.67823,292.656 255.39366,292.656 L255.04833,292.656 C254.77029,292.656 254.50364,292.7651 254.307039,292.9593 C254.110439,293.1534 253.999986,293.4168 253.999986,293.6914 L253.999986,301.000031 L281.6759,301 C281.8836,301.0016 282.0871,300.9422 282.2605,300.8295 C282.434,300.7167 282.5697,300.5556 282.6503,300.3666 L290.9136,281.46173 C290.9831,281.30237 291.0113,281.12844 290.9959,280.955615 C290.9805,280.782786 290.9219,280.616457 290.8253,280.471544 C290.7287,280.32663 290.5971,280.207689 290.4425,280.125386 C290.2878,280.043082 290.1149,279.999987 289.9393,280 L254.961983,280 C254.786969,280.008554 254.621246,280.08027 254.496209,280.201517 C254.371173,280.322763 254.295537,280.485116 254.283666,280.657782 Z" id="Vector_35" fill="#CFD7D7" fill-rule="nonzero"></path>
            <path d="M370,285.78479 C369.9967,285.60319 369.9204,285.4301 369.7873,285.30281 C369.6543,285.17552 369.4753,285.10421 369.2888,285.10424 L362.4267,285.10424 L362.4267,280.741397 C362.4267,280.643015 362.4066,280.545641 362.3676,280.454899 C362.3286,280.364158 362.2714,280.281868 362.1994,280.212869 C362.1274,280.143871 362.042,280.089519 361.9482,280.052987 C361.8544,280.016456 361.7541,279.998488 361.6531,280.000101 L270.761056,280.000101 C270.559207,280.000101 270.365625,280.078185 270.222896,280.217209 C270.080167,280.356232 270.000002,280.544788 270.000002,280.741397 L270.000002,284.44799 C270.000002,284.6446 270.080167,284.83315 270.222896,284.97217 C270.365625,285.1112 270.559207,285.18928 270.761056,285.18928 L277.06177,285.18928 C277.19082,285.18928 277.31456,285.23921 277.40582,285.3281 C277.49707,285.41698 277.54833,285.53755 277.54833,285.66325 L277.54833,292.4931 C277.54508,292.6166 277.49238,292.7341 277.40148,292.8203 C277.31057,292.9066 277.18868,292.9549 277.06177,292.9549 L274.17967,292.9549 C273.88186,292.9549 273.59623,293.0701 273.38564,293.2752 C273.17506,293.4803 273.05679,293.7585 273.05679,294.0486 L273.05679,299.9183 C273.05678,300.0614 273.08587,300.2031 273.14246,300.3351 C273.19904,300.4671 273.28197,300.5869 273.38641,300.6875 C273.49084,300.7881 273.61474,300.8675 273.7509,300.9211 C273.88707,300.9748 274.0328,301.0015 274.17967,300.9999 L364.5477,300.9999 C364.669,300.9999 364.789,300.9767 364.901,300.9315 C365.013,300.8863 365.1148,300.82 365.2006,300.7365 C365.2863,300.653 365.3543,300.5539 365.4007,300.4448 C365.4471,300.3357 365.471,300.2187 365.471,300.1006 L365.471,293.6719 C365.471,293.607 365.4843,293.5428 365.5101,293.483 C365.536,293.4232 365.5739,293.3691 365.6215,293.3238 C365.6692,293.2785 365.7257,293.2429 365.7877,293.2192 C365.8497,293.1955 365.9159,293.1841 365.9825,293.1858 L369.2514,293.1858 C369.4379,293.1858 369.6169,293.1145 369.7499,292.9872 C369.8829,292.8599 369.9593,292.6868 369.9626,292.5052 L370,285.78479 Z" id="Vector_36" fill="#FFFFFF" fill-rule="nonzero"></path>
            <path d="M377.1261,245.999978 C377.242,245.999963 377.3567,246.024678 377.4637,246.07261 C377.5706,246.120543 377.6676,246.190742 377.7489,246.279178 C377.8302,246.367614 377.8943,246.47249 377.9374,246.587694 C377.9805,246.702897 378.0017,246.82614 377.9999,246.950218 C377.7653,255.79807 374.3179,264.1996 368.3897,270.3705 C362.4616,276.5415 354.5196,279.9958 346.2505,280 L305,280 C313.27143,279.9957 321.2153,276.5393 327.1439,270.3652 C333.0724,264.1911 336.5183,255.78582 336.7494,246.935357 C336.7529,246.688474 336.8461,246.452774 337.0092,246.278181 C337.1723,246.103588 337.3925,246.003807 337.6232,245.999978 L377.1261,245.999978 Z" id="Vector_37" fill="#FFFFFF" fill-rule="nonzero"></path>
            <g id="Vector_38" transform="translate(393.306000, 247.438000)" fill="#6CC459" fill-rule="nonzero">
                <path d="M63.6612,0 L7,0 C3.13401,0 0,3.13401 0,7 L0,53.361 L63.6612,53.361 L63.6612,0 Z" id="Shape"></path>
                <path d="M63.6612,0 L7,0 C3.13401,0 0,3.13401 0,7 L0,53.361 L63.6612,53.361 L63.6612,0 Z" id="Shape"></path>
            </g>
            <g id="Vector_39" opacity="0.5" transform="translate(393.306000, 247.438000)" fill-rule="nonzero">
                <path d="M63.6612,0 L7,0 C3.13401,0 0,3.13401 0,7 L0,53.361 L63.6612,53.361 L63.6612,0 Z" id="Shape" fill="#6CC459"></path>
                <path d="M63.6612,0 L7,0 C3.13401,0 0,3.13401 0,7 L0,53.361 L63.6612,53.361 L63.6612,0 Z" id="Shape" fill="#47739A"></path>
            </g>
            <polygon id="Vector_40" fill="#DAE0E0" fill-rule="nonzero" points="391.228985 228.192866 403.7274 228.192866 433.3631 300.7985 421.2252 300.7985"></polygon>
            <polygon id="Vector_41" fill="#FFFFFF" fill-rule="nonzero" points="454.1322 228.192866 403.72797 228.192866 433.3636 300.7985 482.7605 300.7985"></polygon>
            <path d="M484.9612,247.438 L428.3,247.438 C424.43401,247.438 421.3,250.57201 421.3,254.438 L421.3,300.799 L484.9612,300.799 L484.9612,247.438 Z" id="Vector_42" fill="#6CC459" fill-rule="nonzero"></path>
            <polygon id="Vector_43" fill="#6CC459" fill-rule="nonzero" opacity="0.7" points="421.5857 274.366951 393.317976 274.366951 393.317976 300.7984 421.2996 300.7984"></polygon>
            <path d="M521.1752,228.878723 L481.5532,228.878723 C474.6072,228.37619 467.6521,229.723775 461.3943,232.78462 C455.1365,235.84546 449.7989,240.5105 445.92367,246.306 C442.04843,252.1015 439.773536,258.8209 439.330077,265.7819 C438.886618,272.7429 440.29038,279.6975 443.39877,285.9393 C445.67465,290.4498 449.15893,294.2369 453.4616,296.8767 C457.7643,299.5165 462.7157,300.9049 467.7614,300.8864 L501.0533,300.8864 C505.8401,297.592 509.8407,293.2786 512.7689,288.2549 C515.6971,283.2312 517.4805,277.6213 517.9915,271.8268 L521.1752,271.8268 L521.1752,228.878723 Z" id="Vector_44" fill="#CFD7D7" fill-rule="nonzero"></path>
            <path d="M551.7057,228.778902 L485.208983,228.778902 C520.9011,234.17232 520.814,262.1109 518.9735,269.8834 C518.3517,272.5116 517.4189,272.686 517.4189,272.686 L580.4583,272.686 C580.4583,272.686 595.382,247.0393 568.1837,232.67761 C563.0886,230.05722 557.4329,228.719093 551.7057,228.778902 Z" id="Vector_45" fill="#FFFFFF" fill-rule="nonzero"></path>
            <path d="M528.6992,295.2941 L528.6992,300.8868 L464.640011,300.8868 C469.11332,300.7662 473.36297,298.9017 476.4844,295.69 C479.6058,292.4784 481.3524,288.1734 481.3524,283.6914 C481.3524,279.2094 479.6058,274.90439 476.4844,271.69278 C473.36297,268.48117 469.11332,266.616615 464.640011,266.496018 L499.9092,266.496018 C507.5383,266.496012 514.8555,269.52889 520.2536,274.92851 C525.6517,280.3281 528.6893,287.6529 528.6992,295.2941 Z" id="Vector_46" fill="#F1F2F3" fill-rule="nonzero"></path>
            <path d="M607.5701,285.7144 L607.5701,291.6185 L534.618997,291.6185 L536.44713,271.826017 L584.2645,271.826017 C585.9961,271.826017 587.6569,272.514983 588.8813,273.74135 C590.1057,274.96772 590.7936,276.63103 590.7936,278.36537 L590.7936,279.175 L601.041,279.175 C602.7726,279.175 604.4334,279.86397 605.6578,281.09034 C606.8822,282.3167 607.5701,283.98 607.5701,285.7144 Z" id="Vector_47" fill="#C1CFDB" fill-rule="nonzero"></path>
            <polygon id="Vector_48" fill="#708FAC" fill-rule="nonzero" points="590.642 277.153851 538.641988 277.153851 538.641988 279.15415 590.642 279.15415"></polygon>
            <path d="M610.717,285.4031 L545.5879,285.4031 C545.2126,285.402 544.844,285.3025 544.519,285.1146 C544.1939,284.9267 543.9236,284.6568 543.7349,284.3319 L536.5094,271.875989 L515.5046,271.875989 L507.6573,285.428 L493.81571,285.428 L488.977982,300.8858 L623.153,300.8858 L613.676,287.0099 C613.349,286.5227 612.909,286.122 612.394,285.8422 C611.878,285.5624 611.303,285.4118 610.717,285.4031 Z" id="Vector_49" fill="#708FAC" fill-rule="nonzero"></path>
            <path d="M512.14206,270.153988 L506.06028,270.153988 C505.99665,270.153988 505.87848,271.98419 505.73303,274.50987 C505.008457,275.95048 504.63453,277.54388 504.642115,279.15859 C504.639131,280.4085 504.860886,281.6486 505.296657,282.819 C505.151204,285.8114 505.033015,288.154 505.033015,288.154 L512.14206,288.154 C516.2784,288.154 519.642,284.1276 519.642,279.15859 C519.642,274.1896 516.2784,270.153988 512.14206,270.153988 Z" id="Vector_50" fill="#8FA8BD" fill-rule="nonzero"></path>
            <path d="M505.642,288.154 C510.0603,288.154 513.642,284.1245 513.642,279.15391 C513.642,274.18335 510.0603,270.154072 505.642,270.154072 C501.22372,270.154072 497.642002,274.18335 497.642002,279.15391 C497.642002,284.1245 501.22372,288.154 505.642,288.154 Z" id="Vector_51" fill="#708FAC" fill-rule="nonzero"></path>
            <polygon id="Vector_52" fill="#AACCE7" fill-rule="nonzero" points="375.97 161.530146 366.79203 161.530146 366.79203 178.1711 375.97 178.1711"></polygon>
            <polygon id="Vector_53" fill="#AACCE7" fill-rule="nonzero" points="391.91193 161.530146 382.733964 161.530146 382.733964 178.1711 391.91193 178.1711"></polygon>
            <g id="Group-2_3" transform="translate(378.000000, 461.000000)" fill-rule="nonzero">
                <polygon id="Vector-17_3" fill="#EDEFF1" points="39.142 5.154 47.142 7.154 45.142 13.654 27.642 22.154 0.642 22.154 3.642 16.154 13.142 10.154 13.142 5.154 30.142 0.154"></polygon>
                <path d="M13.080055,16.5235 L29.5955,0.263544 C29.6418,0.216468 29.697,0.1790922 29.7578,0.1535742 C29.8187,0.1280563 29.884,0.114915554 29.9499,0.114915554 C30.0159,0.114915554 30.0812,0.1280563 30.1421,0.1535742 C30.2029,0.1790922 30.2581,0.216468 30.3044,0.263544 L33.142,7.7545 L41.7705,11.6532 C41.8168,11.7003 41.872,11.7377 41.9328,11.7632 C41.9937,11.7887 42.059,11.8018 42.1249,11.8018 C42.1909,11.8018 42.2562,11.7887 42.317,11.7632 C42.3779,11.7377 42.4331,11.7003 42.4794,11.6532 L46.7201,7.40574 C46.789,7.33315 46.878,7.28304 46.9757,7.2619 C47.0734,7.24075 47.1752,7.24957 47.2679,7.28721 C47.3605,7.32486 47.4396,7.38955 47.495,7.4729 C47.5504,7.55626 47.5794,7.65439 47.5782,7.7545 L47.5782,21.6553 C47.5782,21.7875 47.5258,21.9142 47.4325,22.0076 C47.3392,22.101 47.2127,22.1535 47.0808,22.1535 L27.0086,22.1535 L26.847,22.1535 L23.142,17.3705 L13.266592,17.3705 C13.182392,17.3446 13.106566,17.2968 13.046847,17.232 C12.9871277,17.1672 12.9456606,17.0876 12.9266894,17.0015 C12.9077182,16.9153 12.9118895,16.8257 12.9388342,16.7417 C12.9657789,16.6577 13.0145346,16.5824 13.080055,16.5235 Z" id="Vector_54" fill="#FFFFFF"></path>
            </g>
            <path d="M324.639,227.1536 L375.639,227.1536 C375.639,222.8304 374.9427,218.4239 373.2909,214.4296 C371.6391,210.4355 369.218,206.8063 366.1658,203.74933 C363.1136,200.69233 359.4902,198.2674 355.5023,196.61298 C351.5145,194.958562 347.2404,194.107 342.9239,194.107 L290.990047,194.107 C293.11645,194.107 295.22155,194.313421 297.2788,194.715032 C312.6498,197.56208 324.3436,211.0288 324.639,227.1536 Z" id="Subtract_2" fill="#FFFFFF" fill-rule="nonzero"></path>
            <path d="M218.37196,77.1646 C239.9887,60.0115 277.3906,37.9469 299.2073,29.5708 C305.1351,37.55566 308.6419,47.4453 308.6419,58.1539 C308.6419,84.6636 287.1514,106.1538 260.6417,106.1538 C241.324,106.1538 224.67159,94.7422 217.058,78.2924 L218.37196,77.1646 Z" id="Subtract_3" fill="#679FD5" fill-rule="nonzero" opacity="0.6"></path>
            <path d="M223.909,72.9166 C243.0676,58.6657 269.6414,42.15383 290.7583,33.1343 C296.3066,39.92251 299.6356,48.601 299.6356,58.058 C299.6356,79.8032 282.0353,97.4311 260.3245,97.4311 C243.8624,97.4311 229.76386,87.2964 223.909,72.9166 Z" id="Subtract_4" fill="#AACCE7" fill-rule="nonzero"></path>
            <path d="M260.125,216.775 L268.66284,216.775 C272.5206,207.9455 281.3311,201.775 291.5826,201.775 C302.3021,201.775 311.4458,208.5216 314.9993,218.0002 L324.5671,226.275 L324.5789,226.275 C324.3116,208.2802 309.6411,193.775 291.5826,193.775 C276.8432,193.775 264.36084,203.43821 260.125,216.775 Z" id="Subtract_5" fill="#DAE0E0" fill-rule="nonzero"></path>
            <g id="Vector_55" opacity="0.23" transform="translate(236.932000, 36.000000)" fill="#FFFFFF" fill-rule="nonzero">
                <path d="M23.3933,53.8082 C25.2134,53.8082 26.6889,52.3302 26.6889,50.5072 C26.6889,48.6842 25.2134,47.2065 23.3933,47.2065 C21.5731,47.2065 20.0977,48.6842 20.0977,50.5072 C20.0977,52.3302 21.5731,53.8082 23.3933,53.8082 Z" id="Shape"></path>
                <path d="M51.7976,25.3588 C53.6177,25.3588 55.0932,23.8811 55.0932,22.0581 C55.0932,20.2351 53.6177,18.7571 51.7976,18.7571 C49.9775,18.7571 48.502,20.2351 48.502,22.0581 C48.502,23.8811 49.9775,25.3588 51.7976,25.3588 Z" id="Shape"></path>
                <path d="M43.4773,45.4753 C45.2974,45.4753 46.7729,43.9973 46.7729,42.1743 C46.7729,40.3513 45.2974,38.8736 43.4773,38.8736 C41.6572,38.8736 40.1816,40.3513 40.1816,42.1743 C40.1816,43.9973 41.6572,45.4753 43.4773,45.4753 Z" id="Shape"></path>
                <path d="M44.2594,5.32138 C46.0795,5.32138 47.555,3.84337 47.555,2.02038 C47.555,1.25926 47.2978,0.558327 46.8657,0 L41.0684,2.84886 C41.4354,4.27091 42.7249,5.32138 44.2594,5.32138 Z" id="Shape"></path>
                <path d="M3.29564,45.4753 C5.11576,45.4753 6.59128,43.9973 6.59128,42.1743 C6.59128,40.3513 5.11576,38.8736 3.29564,38.8736 C1.47553,38.8736 0,40.3513 0,42.1743 C0,43.9973 1.47553,45.4753 3.29564,45.4753 Z" id="Shape"></path>
            </g>
            <path d="M262.64206,52.56986 L262.64206,47.4954 C261.30838,48.266762 259.97421,49.04936 258.64206,49.84135 L258.64206,52.56974 C256.87613,53.34135 255.642,55.10355 255.642,57.15397 C255.642,59.9154 257.88059,62.1536 260.642,62.1536 C261.28684,62.1536 261.90317,62.0315 262.46915,61.8092 L270.3108,69.6509 C270.5683,69.9084 270.9643,70.0064 271.4115,69.9233 C271.8589,69.8401 272.3208,69.5827 272.6959,69.2077 C272.8816,69.0219 273.0404,68.8129 273.1632,68.5926 C273.286,68.3721 273.3704,68.1447 273.4115,67.9233 C273.4527,67.7017 273.4498,67.4906 273.403,67.3017 C273.3564,67.1128 273.2667,66.95 273.1392,66.8224 L265.2977,58.9809 C265.51993,58.415 265.642,57.7987 265.642,57.15397 C265.642,55.10368 264.40793,53.34147 262.64206,52.56986 Z" id="Union" fill="#82B1DC" fill-rule="nonzero"></path>
            <g id="Group-2_4" transform="translate(7.000000, 461.000000)" fill-rule="nonzero">
                <path d="M1.82351,5.71965 L17.1277,0.2525839 C17.4045,0.15162447 17.7031,0.1276729 17.9923,0.1832104 C32.2407,2.91985 12.9534,4.25599 34.5852,10.07334 C34.9428,10.1772 35.2577,10.3951 35.4828,10.6946 C35.7079,10.994 35.8313,11.359 35.8346,11.7351 L35.8346,20.3926 C35.8346,20.8333 35.6614,21.256 35.3531,21.5676 C35.0448,21.8793 34.6267,22.0543 34.1907,22.0543 L12.8208,22.0543 C12.5642,22.0588 12.3101,22.0026 12.0789,21.89 C11.8477,21.7775 11.6458,21.6118 11.4893,21.4063 L1.050902,8.41162 C0.868393,8.20178 0.7411791,7.94881 0.6810157,7.6761 C0.6208522,7.40339 0.6296846,7.11972 0.7067007,6.85138 C0.783717,6.58303 0.926429,6.33868 1.121636,6.14086 C1.316843,5.94304 1.55824,5.79816 1.82351,5.71965 Z" id="Vector_56" fill="#F1F2F3"></path>
                <path d="M33.6869,3.57619 L36.3305,4.24323 L36.9914,8.91251 L28.3997,11.5807 L19.80788,15.5829 L13.207833,8.28023 C12.880843,7.91843 12.862513,7.37353 13.16445,6.99057 L18.48607,0.241 L33.6869,3.57619 Z" id="Vector-17_4" fill="#DAE0E0"></path>
                <path d="M20.108354,13.54599 L25.14183,8.6537 C25.14183,8.6537 32.0469,9.90639 32.1418,9.79049 L35.1331,4.42318 C35.3051,4.238623 35.5403,4.1272975 35.7908,4.11186166 C36.0412,4.0964258 36.288,4.1780097 36.481,4.340064 L44.2728,10.85402 C44.4257,10.98209 44.5383,11.15256 44.5968,11.34445 C44.6552,11.53634 44.6568,11.74128 44.6016,11.93412 L41.7084,21.4391 C41.6454,21.6453 41.519,21.8258 41.3475,21.9543 C41.176,22.0828 40.9684,22.1527 40.755,22.1537 L23.26452,22.1537 C23.06654,22.1524 22.87306,22.0939 22.70699,21.985 C22.54093,21.876 22.40924,21.7211 22.32754,21.5388 L19.5330127,14.892 C19.4801324,14.7658 19.4531232,14.63 19.4536124,14.493 C19.4541017,14.3559 19.4820796,14.2204 19.5358596,14.09459 C19.58964,13.96877 19.668097,13.8553 19.766498,13.76101 C19.864899,13.66672 19.981196,13.59355 20.108354,13.54599 Z" id="Vector_57" fill="#FFFFFF"></path>
            </g>
            <polygon id="Rectangle-9.4" fill="#8FA8BD" fill-rule="nonzero" points="204.642 300.154 647.642 300.154 647.642 314.154 204.642 314.154"></polygon>
            <polygon id="Rectangle-9.5" fill="#637C91" fill-rule="nonzero" points="562.642 300.154 687.642 300.154 687.642 314.154 562.642 314.154"></polygon>
            <polygon id="Rectangle-8" fill="#82B1DC" fill-rule="nonzero" transform="translate(610.112610, 63.837000) scale(-1, 1) translate(-610.112610, -63.837000) " points="606.58322 41.6538 613.58322 37.6538 613.642 90.0202 606.58322 90.0202"></polygon>
            <ellipse id="Ellipse-3" fill="#FFFFFF" fill-rule="nonzero" cx="609.6538" cy="124.8938" rx="11.2588" ry="11.2598"></ellipse>
            <polygon id="Vector-11" fill="#82B1DC" fill-rule="nonzero" points="566 116 610.0724 79 653 116"></polygon>
            <rect id="Rectangle-12" fill="#9EC0DB" fill-rule="nonzero" x="566" y="115" width="87" height="7"></rect>
            <g id="Group-10" transform="translate(454.000000, 229.000000)" fill-rule="nonzero">
                <path d="M311.1456,169.519658 L301.287581,196.677 C300.558478,198.6873 300.443985,200.8734 300.959112,202.9505 C301.474238,205.0276 302.59512,206.8994 304.17558,208.322 L317.713,220.5294 C318.0212,220.8129 318.3976,221.0094 318.8045,221.099 C319.2114,221.1887 319.6343,221.1684 320.031,221.0402 C320.4277,220.9119 320.7841,220.6803 321.0645,220.3685 C321.3448,220.0567 321.5393,219.6757 321.6284,219.2637 L321.7811,218.6308 C322.8816,213.7423 322.4845,208.6302 320.6426,203.9762 L319.5457,201.1634 C319.0508,199.9223 318.8364,198.5847 318.9181,197.2487 C318.9997,195.9127 319.3755,194.6122 320.0178,193.4424 C321.0452,191.5578 322.3087,189.2935 323.4889,187.3949 C324.5524,185.6704 325.2422,183.7368 325.5127,181.722 C325.7832,179.7073 325.6282,177.65728 325.0579,175.70776 L323.1279,169.153983 L311.1456,169.519658 Z" id="Vector_58" fill="#6FA3D1"></path>
                <path d="M323.721,177.154 L306.57518,177.154 L298.642006,60.2076 C298.635512,55.9643 300.36489,51.8917 303.451,48.88243 C306.5371,45.87315 310.7281,44.1727569 315.1054,44.154 C319.4902,44.1571288 323.6945,45.84699 326.795,48.8525 C329.8955,51.85802 331.6388,55.9335 331.642,60.1839 L323.721,177.154 Z" id="Vector_59" fill="#EF6C00"></path>
                <path d="M421.683,33.2726 L405.74,49.2784 L385.195,51.7696 C385.195,51.7696 373.741,39.8617 358.233,39.3137 C352.674,39.1144 350.61,43.7854 350.286,54.0241 C350.286,54.9957 346.22,55.7555 347.438,59.156 C356.43,84.0678 278.8649,149.387 278.8649,149.387 L241.978997,103.3 C241.978997,103.3 308.3016,32.5127 323.1256,28.6389 C326.0854,27.8667 328.8712,27.0571 331.4704,26.235 C348.608,20.8665 358.109,15.0246 358.109,15.0246 C358.109,15.0246 363.282,12.7826 370.545,3.27871 C377.36,-5.67709 414.147,7.41406 421.683,33.2726 Z" id="Vector_60" fill="#ABE3EF"></path>
                <path d="M278.8649,149.412 L241.979,103.3248 C241.979,103.3248 308.3016,32.53777 323.1256,28.66398 C326.0855,27.89172 328.8712,27.082091 331.4704,26.26 C332.1411,30.65343 337.1411,35.15343 352.641,42.1534 C349.641,50.1534 349.641,61.6534 349.641,61.6534 L278.8649,149.412 Z" id="Vector_61" fill="#F7BD1B"></path>
                <path d="M358.495,39.50059 C358.495,39.50059 373.1449,40.87072 373.1698,52.0188 C373.1698,60.1027 376.0425,72.8949 387.6083,70.0176 C391.1295,69.1043 394.2696,67.0934 396.5748,64.2754 C399.6466,60.5387 406.3,54.8214 415.4655,59.019 C417.2674,59.8507 419.3057,60.0141 421.2168,59.4803 C423.1279,58.9464 424.7875,57.75 425.8996,56.1043 C429.3071,50.9849 432.1177,43.474 426.2105,36.63574 C423.8144,33.87033 420.5617,31.989494 416.9725,31.294003 C413.3833,30.598512 409.6649,31.128515 406.412,32.7993 C405.4113,33.32047 404.4435,33.90284 403.5143,34.54312 C402.4975,35.23404 401.3196,35.64992 400.0949,35.75032 C398.8703,35.85071 397.6406,35.63224 396.5251,35.11612 L390.307,32.2886 L387.6829,34.09472 C387.6829,34.09472 399.945,40.13586 392.6574,43.7605 C386.8372,46.6752 382.1985,44.7694 379.6615,39.72478 C378.8725,38.08204 377.6528,36.6848 376.1327,35.68224 C374.6126,34.67967 372.8492,34.10941 371.0308,34.03242 C367.1631,33.87049 363.1586,35.40259 358.495,39.50059 Z" id="Vector_62" fill="#637C91"></path>
                <polygon id="Vector_63" fill="#708FAC" points="163.4439 144.728 181.2899 234.0992 164.141 234.0992 126.359 154.19462"></polygon>
                <path d="M241.979,103.300002 C241.979,103.300002 176.876,117.4873 146.6803,124.201 C138.4469,126.0336 131.0467,130.5342 125.6257,137.0057 L50.149997,224.72 L62.0391,234.959 L131.4458,182.283 C139.1019,176.3235 145.0978,168.4908 148.8566,159.5385 C149.6939,157.5662 151.126,155.9055 152.952,154.7888 C154.779,153.6721 156.908,153.1552 159.042,153.3105 L236.831,158.9281 C250.087,159.8838 263.355,157.2509 275.246,151.3051 L278.977,149.4616 L241.979,103.300002 Z" id="Vector_64" fill="#679FD5"></path>
                <path d="M343.123,87.95403 L334.418,80.617517 C333.878,80.171428 333.184,79.9554505 332.487,80.0160077 C331.789,80.0765649 331.143,80.408797 330.687,80.941345 L271.441,151.1803 C271.055,151.6362 270.575,152.0026 270.034,152.2543 C269.493,152.5059 268.903,152.6367 268.307,152.6376 L161.96223,152.6376 C159.37687,152.6376 157.470648,155.0534 158.0719,157.5679 L160.15897,166.2962 C160.58939,168.0962 162.1985,169.366 164.0493,169.366 L275.719,169.366 C276.416,169.3659 277.104,169.2132 277.736,168.9184 C278.367,168.6236 278.927,168.1939 279.375,167.6595 L343.434,91.6784 C343.881,91.1408 344.098,90.4491 344.04,89.75248 C343.982,89.05585 343.653,88.40999 343.123,87.95403 Z" id="Vector_65" fill="#637C91"></path>
                <path d="M327.1464,182.485049 L317.285399,209.1617 C316.558,211.1335 316.444444,213.2771 316.959624,215.3138 C317.474805,217.3505 318.59485,219.1863 320.17422,220.5827 L333.7019,232.5554 C334.0133,232.8288 334.3907,233.0173 334.7973,233.1026 C335.2039,233.1878 335.6258,233.1668 336.0218,233.0418 C336.4178,232.9167 336.7743,232.6918 337.0567,232.3889 C337.339,232.0861 337.5374,231.7157 337.6325,231.314 L337.7714,230.6933 C338.8778,225.8957 338.4853,220.8771 336.6464,216.3067 L335.5492,213.548 C335.055,212.3311 334.8397,211.0202 334.919,209.7104 C334.9983,208.4006 335.3701,207.1247 336.0075,205.9754 C337.0353,204.127 338.3131,201.9063 339.4797,200.0442 C340.5494,198.3553 341.2429,196.4587 341.5136,194.4817 C341.7843,192.5046 341.6259,190.49297 341.0492,188.58175 L339.1325,182.154019 L327.1464,182.485049 Z" id="Vector_66" fill="#ABE3EF"></path>
                <path d="M341.6067,186.269 L322.75339,186.269 L314.048012,53.7507 C314.048012,48.9342 315.95835,44.31494 319.35878,40.90914 C322.7592,37.50334 327.3712,35.5899818 332.1801,35.5899818 C336.989,35.5899818 341.6009,37.50334 345.0014,40.90914 C348.4018,44.31494 350.3121,48.9342 350.3121,53.7507 L341.6067,186.269 Z" id="Vector_67" fill="#F2952E"></path>
                <path d="M130.8642,254.154 L183.8642,254.154 L185.642,246.1155 C169.2927,246.0893 156.8086,239.26938 152.3642,234.154 L135.3642,233.154 L130.8642,254.154 Z" id="Vector-9.2" fill="#637C91" transform="translate(158.253100, 243.654000) scale(-1, 1) translate(-158.253100, -243.654000) "></path>
                <path d="M9.642,213.654 C9.642,213.654 36.642,228.154 51.642,223.154 L62.642,234.654 L45.4716,254.154 L0.142,224.154 L9.642,213.654 Z" id="Vector-15.1" fill="#708FAC"></path>
            </g>
            <path d="M626.7738,247.6244 C625.2417,252.3725 628.2634,257.1865 629.9658,259 L622.9435,259 C618.90044,256.6919 611.069565,250.592 612.090983,244.6569 C613.36776,237.238 622.9435,235.7542 622.9435,225.8624 C622.9435,217.949 616.77467,218.6957 616.55972,213.49764 C615.94616,198.66006 658.4346,211.05918 644.0103,232.2921 C639.4621,238.9872 628.689,241.6893 626.7738,247.6244 Z" id="Vector-17_5" fill="#FFFFFF" fill-rule="nonzero" opacity="0.4"></path>
            <path d="M641.8537,259 L606,259 L606,287.9412 C606,294.6011 611.35077,300 617.9512,300 L629.9024,300 C636.5029,300 641.8537,294.6011 641.8537,287.9412 L641.8537,286.7225 C649.1669,286.4069 655,280.3246 655,272.8676 C655,265.41067 649.1669,259.328409 641.8537,259.012807 L641.8537,259 Z M641.8537,263.84325 L641.8537,281.892 C646.5255,281.5817 650.2195,277.66 650.2195,272.8676 C650.2195,268.07533 646.5255,264.15356 641.8537,263.84325 Z" id="Union_2" fill="#6CC459"></path>
            <g id="Group-9" transform="translate(61.000000, 43.000000)">
                <path d="M196.376939,174.8179 L215.392,172.825 C218.6931,172.4648 221.7684,170.9731 224.0974,168.6025 L234.4999,159.000183 C223.4999,156.50019 217.8043,162.54608 216.831,162.86759 C215.3914,163.34311 213.8506,163.42232 212.37,163.09692 L208.8008,162.31219 C206.6977,161.8598 204.50786,162.04186 202.50801,162.83536 L195.581,165.60057 L196.376939,174.8179 Z" id="Vector_68" fill="#679FD5" fill-rule="nonzero"></path>
                <path d="M196.589,164.2547 L151.9302,172.1642 C150.8413,172.36 149.7216,172.2951 148.6625,171.9747 C147.6034,171.6544 146.6351,171.0876 145.8365,170.3207 L120.3421,144.1633 C116.4443,140.1559 112.2269,136.47337 107.7317,133.15227 L99.9964,127.435005 L107.2592,142.3821 L88.7539954,153.306 L143.0507,190.3499 C144.1399,191.0967 145.3843,191.5858 146.69,191.78 C147.9956,191.9742 149.3282,191.8685 150.5871,191.4709 L198.703,176.312 L196.589,164.2547 Z" id="Vector_69" fill="#8974B4" fill-rule="nonzero"></path>
                <path d="M121.7596,142.9347 L121.6414,212.1537 L64.6414,212.1537 L53.957142,124.1014 C53.957142,124.1014 49.05725,105.7663 67.1893,92.0648 C68.0621,91.4082 68.8552,90.6516 69.5522,89.8103 C71.5909,87.3966 72.7139,84.3398 72.7235,81.1783 L66.4307,31.46672 C66.4307,31.46672 100.0086,19.90762 111.5992,33.47212 L112.619,41.145 C114.3449,54.0417 113.1939,67.1614 109.2488,79.559 C109.0728,80.6019 108.5344,81.5488 107.7288,82.2326 C106.9232,82.9164 105.9023,83.293 104.8463,83.2958 L96.1409,83.2958 C95.6982,83.2949 95.266,83.4307 94.9033,83.6848 C94.5405,83.939 94.2648,84.299 94.1138,84.7158 C93.6238,86.0956 93.6179,87.6014 94.0972,88.9849 C94.5765,90.3685 95.5124,91.5471 96.7503,92.3264 C97.7328,92.9367 98.8396,93.6591 100.021,94.4563 C103.155,96.5987 106.7242,100.9334 110.0571,105.6667 C117.6947,116.5869 121.7815,129.6017 121.7596,142.9347 Z" id="Vector_70" fill="#ABE3EF" fill-rule="nonzero"></path>
                <path d="M121.7596,142.9347 L126.6414,222.154 L64.6414,222.154 L53.957142,124.1014 C53.957142,124.1014 49.05725,105.7662 67.1893,92.06473 C68.0621,91.4082 69.0095,90.30361 70,89.50007 C77.448,83.4576 89,97.50005 94,97.50004 C99,97.50004 100.021,94.45629 100.021,94.45629 C103.155,96.59871 106.7242,100.9334 110.0571,105.6666 C117.6947,116.5869 121.7815,129.6017 121.7596,142.9347 Z" id="Vector_71" fill="#9F88C0" fill-rule="nonzero"></path>
                <path d="M123.142,415.691 L102.759,415.691 L89.183,326.324 C89.1771,326.27 89.1771,326.216 89.183,326.162 C88.2485,320.9055 87.6792,315.5907 87.4793,310.2555 L70.142,272.154 L65.642,228.154 L64.642,222.154 L126.6309,221.654 L126.7367,228.40551 L123.142,415.691 Z" id="Vector_72" fill="#438DCA" fill-rule="nonzero"></path>
                <path d="M169.235405,203.536097 L192.568846,201.092797 C196.643446,200.665997 200.443846,198.835598 203.320746,195.914198 L213.237445,185.822468 C213.555345,185.505768 213.770545,185.100308 213.854645,184.659138 C213.938745,184.217968 213.887945,183.761628 213.708945,183.349838 C213.529845,182.938058 213.230845,182.589981 212.851045,182.351194 C212.471245,182.112406 212.028345,181.994004 211.580245,182.01149 L206.794245,182.131032 C205.303045,182.170399 203.836446,182.520084 202.487546,183.157888 C201.138646,183.795688 199.936946,184.707618 198.958946,185.835728 C197.736246,187.238508 196.159746,188.286658 194.394346,188.870608 C192.628946,189.454568 190.739346,189.552898 188.922946,189.155368 L184.534646,188.199308 C181.960946,187.640808 179.279347,187.862718 176.832027,188.836688 L168.320647,192.235998 L169.235405,203.536097 Z" id="Vector_73" fill="#CDEEF4" fill-rule="nonzero" transform="translate(191.107410, 192.772948) rotate(19.701446) translate(-191.107410, -192.772948) "></path>
                <path d="M77.8857927,116.433426 L123.942791,164.236284 C124.709391,165.030684 125.641491,165.645984 126.672691,166.038483 C127.703891,166.430983 128.808791,166.590883 129.908691,166.506883 L178.590689,162.868584 L181.321688,177.289083 L125.082891,190.567682 C124.029291,190.817682 122.934091,190.836782 121.872391,190.623682 C120.810691,190.410582 119.807491,189.970182 118.931391,189.332783 C108.590491,181.763983 72.2512929,154.954584 55.4406836,139.750585 C53.8249237,138.293385 52.5199137,136.523985 51.6040137,134.548985 C50.6881188,132.573885 50.1802386,130.433685 50.1108948,128.257085 C50.041551,126.080485 50.4121828,123.912285 51.2004938,121.882685 C51.9888137,119.853155 53.1785437,118.004125 54.6982536,116.446686 C56.2017836,114.888946 58.0027135,113.649946 59.9939434,112.803346 C61.9851933,111.956738 64.1259932,111.51982 66.2891931,111.518581 C68.4524931,111.517343 70.593793,111.951806 72.5859929,112.796126 C74.5781928,113.640456 76.3804927,114.877416 77.8857927,116.433426 Z" id="Vector_74" fill="#A993C7" fill-rule="nonzero" transform="translate(115.712188, 151.144533) rotate(19.701446) translate(-115.712188, -151.144533) "></path>
                <path d="M73.9516,222.033305 L65.9096,222.154 L64.6411,222.154 C64.6509,222.219063 64.6777,222.354928 64.7187,222.561715 C64.7221,222.590543 64.726,222.619343 64.7295,222.648122 L73.9516,222.033305 Z M66.123,234.18 L69.1411,257.654 C79.1621,257.3756 87.1411,249.1719 87.1411,239.1471 L87.1411,221.846463 L119.6411,221.654 L107.7817,310.8409 C107.77,313.9746 106.5903,316.9909 104.4736,319.2985 L98.1806,326.187 L37.0307,407.594 L24.5947,391.314 L68.7026,304.7873 C69.7773,303.4195 70.5644,301.8483 71.0176,300.168 C71.4707,298.4877 71.3393,295.0095 71.3393,295.0095 C69.1113,261.7575 68.3652,253.0312 66.123,234.18 Z" id="Subtract_6" fill="#6FA3D1"></path>
                <polygon id="Rectangle-12_2" fill="#6FA3D1" fill-rule="nonzero" points="63.642 214.154 126.142 213.654 126.642 222.154 64.642 222.654"></polygon>
                <path d="M102.642,440.154 L155.642,440.154 L157.642,429.154 C139.249,429.1181 127.642,421.154 122.642,414.154 L102.642,414.154 L102.642,440.154 Z" id="Vector-9.1" fill="#637C91" fill-rule="nonzero"></path>
                <path d="M78.6966,49.5982 C73.2499,45.1538 75.9225,40.5786 76.5179,37.376 C79.6438,37.986 84.8739,41.7878 90.6792,39.0427 C95.5811,36.7247 93.9134,34.0997 99.3938,30.9054 C103.2064,28.6832 105.5712,32.7682 111.3764,34.5982 C114.0997,35.4568 120.091,33.4871 121.1804,29.5982 C122.8533,23.6259 119.6513,20.8619 116.8231,20.7094 C118.6093,19.7943 120.6357,15.1538 120.091,12.376 C119.5464,9.59824 117.1532,6.41362 113.0104,5.70936 C109.7424,5.1538 106.9751,4.827 104.2958,8.48713 C103.4027,2.53942 100.199,0.1538 93.9472,0.1538 C90.1345,0.1538 85.7298,2.56121 84.6879,5.1538 C82.9016,2.71371 79.4442,2.27798 74.0855,2.27798 C61.2673,2.27798 55.87479,11.5917 55.42823,19.827 C55.07098,26.4152 57.95872,29.8379 59.8938,30.9054 C56.32134,31.363 53.642,34.925 53.642,39.0427 C53.642,43.6407 55.33012,49.4022 59.34914,49.8597 C62.55995,50.2252 63.44354,52.2398 63.9884,53.482 L63.9906,53.4871 L66.1693,65.1538 C82.0593,59.7616 81.0527,51.5208 78.6966,49.5982 Z" id="Vector_75" fill="#637C91" fill-rule="nonzero"></path>
                <path d="M57.8845272,398.79392 L39.1565337,404.724538 C40.8338331,413.326715 27.6438378,424.457411 9.98839393,420.037513 L7.10414494,427.03261 L23.1254393,436.282807 C41.311933,446.782804 54.0580285,436.421907 62.8892254,426.060411 L57.8845272,398.79392 Z" id="Vector-16.1" fill="#637C91" fill-rule="nonzero" transform="translate(34.996685, 419.729251) scale(-1, 1) rotate(-30.000012) translate(-34.996685, -419.729251) "></path>
            </g>
            <rect id="Rectangle-11" fill="#637C91" fill-rule="nonzero" x="679" y="409" width="14" height="73"></rect>
            <polygon id="Rectangle-10" fill="#637C91" fill-rule="nonzero" points="671 398 700 398 696.1333 415 675.83333 415"></polygon>
            <polygon id="Rectangle-10.2" fill="#637C91" fill-rule="nonzero" transform="translate(686.000000, 474.500000) scale(-1, 1) rotate(-180.000000) translate(-686.000000, -474.500000) " points="641 466 731 466 719 483 656 483"></polygon>
            <path d="M656.5,387.5 C656.9,385.9 668.8333,356.5 673,344" id="Vector-18" stroke="#637C91" stroke-width="8"></path>
            <path d="M631.15977,345.78384 C634.28693,340.93675 639.6452,338 645.4262,338 L760.861,338 L753.861,346 L645.4262,346 C642.3753,346 639.543,347.5466 637.8821,350.1209 L634.52045,355.3315 L625,355.3315 L631.15977,345.78384 Z" id="Vector-19-(Stroke)" fill="#95BCDE"></path>
        </g>
        <circle id="Oval-3-Copy-5" fill="#00B586" cx="1637.04688" cy="328.09375" r="112.5"></circle>
        <circle id="Oval-3-Copy-14" fill="#00B586" cx="1800.16406" cy="320.5" r="112.5"></circle>
        <circle id="Oval-3-Copy-15" fill="#00B586" cx="1667.78125" cy="231.3125" r="112.5"></circle>
    </g>
</svg>