<?xml version="1.0" encoding="UTF-8"?>
<svg width="309px" height="291px" viewBox="0 0 309 291" version="1.1" xmlns="http://www.w3.org/2000/svg" xmlns:xlink="http://www.w3.org/1999/xlink">
    <!-- Generator: Sketch 50.2 (55047) - http://www.bohemiancoding.com/sketch -->
    <title>desk-gal-avocado2 copy</title>
    <desc>Created with Sketch.</desc>
    <defs></defs>
    <g id="Page-1" stroke="none" stroke-width="1" fill="none" fill-rule="evenodd">
        <path d="M263.521033,51.8442053 C253.327422,34.872396 239.676096,20.1580549 222.227933,10.7270055 C192.551427,-5.3064586 160.467818,-10.4265597 127.433339,-1.95425428 C114.107836,1.46594607 99.8181624,7.72838051 87.835849,14.7183725 C76.3522446,21.4159815 64.689105,30.9830231 55.3000781,40.3188781 C35.6841933,59.8065405 21.5474573,85.7810243 13.7011034,112.40147 C13.0295087,114.679337 12.7435822,116.943605 12.3512645,119.269069 C10.2766353,131.637548 7.58360709,145.447541 7.97592479,158.026807 C8.76056018,183.15814 14.6187278,208.065086 27.1462963,229.905411 C38.796137,250.229425 55.8652815,267.43922 75.4545685,279.739702 C92.6101559,290.503474 109.765743,295.501182 129.168846,298.166627 C149.675757,300.988462 164.770014,300.736877 186.015015,296.119946 C187.750522,295.739168 189.439483,295.405988 191.155042,294.916416 C200.64381,292.223774 215.658274,285.696155 224.136326,280.63725 C257.436784,260.796008 282.312386,228.341503 293.749444,190.780495 C308.956742,140.823811 295.099283,88.8476453 263.521033,51.8442053" id="desk-gal-avocado2-copy" fill="#9DDDEC" transform="translate(153.937500, 147.000000) rotate(-110.000000) translate(-153.937500, -147.000000) "></path>
    </g>
</svg>