<?xml version="1.0" encoding="UTF-8"?>
<svg width="196px" height="43px" viewBox="0 0 196 43" version="1.1" xmlns="http://www.w3.org/2000/svg" xmlns:xlink="http://www.w3.org/1999/xlink">
    <!-- Generator: Sketch 50.2 (55047) - http://www.bohemiancoding.com/sketch -->
    <title>Group 19</title>
    <desc>Created with Sketch.</desc>
    <defs></defs>
    <g id="Page-1" stroke="none" stroke-width="1" fill="none" fill-rule="evenodd">
        <g id="JOBS" transform="translate(-82.000000, -33.000000)" fill="#FFFFFF">
            <g id="Group-19" transform="translate(82.000000, 33.000000)">
                <path d="M50.9599379,29.3097674 L50.9599379,13.7229852 L60.5623811,13.7229852 L60.5623811,42.3499283 L50.9599379,42.3499283 L50.9599379,40.3554531 C50.9599379,40.3554531 48.6390623,42.9502073 42.4754437,42.9618256 C36.378593,42.9728906 30.7474625,37.3761885 30.7474625,30.8555548 L30.7474625,13.7229852 L40.4006715,13.7229852 L40.4006715,29.3097674 C40.4006715,32.6209835 43.0636637,34.353217 45.6041561,34.353217 C48.1440967,34.353217 50.9599379,32.6209835 50.9599379,29.3097674 Z M97.6207931,42.350205 L97.6207931,5.44715795 L107.222685,5.44715795 L107.222685,42.350205 L97.6207931,42.350205 Z M110.727725,42.350205 L110.727725,13.7221553 L120.329617,13.7221553 L120.329617,42.350205 L110.727725,42.350205 Z M115.578554,10.8714113 C112.584481,10.8714113 110.15766,8.43765359 110.15766,5.43570563 C110.15766,2.43431092 112.584481,0 115.578554,0 C118.572627,0 121,2.43431092 121,5.43570563 C121,8.43765359 118.572627,10.8714113 115.578554,10.8714113 Z M84.5136954,15.8187056 L84.5136954,13.7224319 L94.1161386,13.7224319 L94.1161386,42.3499283 L84.5136954,42.3499283 L84.5136954,40.6945969 C82.2331013,42.1518639 79.5265168,43 76.6218356,43 C67.9541435,43 61.0378682,35.4812988 62.0073827,26.5949574 C62.7534179,19.752884 68.2868796,14.2707052 75.1176258,13.5879916 C78.5901103,13.2411023 81.8435297,14.1119217 84.5136954,15.8187056 Z M85.0621857,29.0895729 C85.6222639,24.6314644 81.8827076,20.8831788 77.4373977,21.4447301 C74.4074577,21.828134 71.9613233,24.280149 71.5794769,27.3175052 C71.0193988,31.7756137 74.7584032,35.5244525 79.2042649,34.962348 C82.2336531,34.5794972 84.6803393,32.1263757 85.0621857,29.0895729 Z M29.3927907,13.7227639 L21.2228232,23.7587639 L32.8503766,42.3502603 L21.9567187,42.3502603 L15.0978307,31.3294709 L9.60244325,38.0797044 L9.60244325,42.3502603 L2.84217094e-14,42.3502603 L2.84217094e-14,5.50807105 L9.60244325,5.50807105 L9.60244325,23.2431326 L17.3237964,13.7227639 L29.3927907,13.7227639 Z" id="logo"></path>
                <path d="M144.085938,24.9375 L148.1875,24.9375 L148.1875,36.6445312 C148.1875,37.7304742 147.935549,38.6992145 147.431641,39.5507812 C146.927732,40.402348 146.224614,41.0624977 145.322266,41.53125 C144.419917,42.0000023 143.414068,42.234375 142.304688,42.234375 C140.445303,42.234375 139.000005,41.7656297 137.96875,40.828125 C136.937495,39.8906203 136.421875,38.5625086 136.421875,36.84375 L140.546875,36.84375 C140.546875,37.6250039 140.681639,38.1914045 140.951172,38.5429688 C141.220704,38.894533 141.671872,39.0703125 142.304688,39.0703125 C142.875003,39.0703125 143.314452,38.857424 143.623047,38.4316406 C143.931642,38.0058572 144.085938,37.4101601 144.085938,36.6445312 L144.085938,24.9375 Z M165.226562,33.8203125 C165.226562,35.4843833 164.917972,36.9570248 164.300781,38.2382812 C163.683591,39.5195377 162.806646,40.5058559 161.669922,41.1972656 C160.533197,41.8886753 159.238289,42.234375 157.785156,42.234375 C156.332024,42.234375 155.042974,41.900394 153.917969,41.2324219 C152.792963,40.5644498 151.916019,39.6093812 151.287109,38.3671875 C150.6582,37.1249938 150.328125,35.6992268 150.296875,34.0898438 L150.296875,33.1289062 C150.296875,31.4570229 150.603513,29.9824283 151.216797,28.7050781 C151.830081,27.427728 152.708979,26.4414097 153.853516,25.7460938 C154.998053,25.0507778 156.300774,24.703125 157.761719,24.703125 C159.207038,24.703125 160.496088,25.0468716 161.628906,25.734375 C162.761724,26.4218784 163.642575,27.4003843 164.271484,28.6699219 C164.900394,29.9394595 165.21875,31.394523 165.226562,33.0351562 L165.226562,33.8203125 Z M161.042969,33.1054688 C161.042969,31.4101478 160.759768,30.1230513 160.193359,29.2441406 C159.62695,28.36523 158.816412,27.9257812 157.761719,27.9257812 C155.699208,27.9257812 154.609376,29.4726408 154.492188,32.5664062 L154.480469,33.8203125 C154.480469,35.4921959 154.75781,36.7773393 155.3125,37.6757812 C155.86719,38.5742232 156.691401,39.0234375 157.785156,39.0234375 C158.824224,39.0234375 159.624997,38.5820357 160.1875,37.6992188 C160.750003,36.8164018 161.035156,35.5468833 161.042969,33.890625 L161.042969,33.1054688 Z M167.347656,42 L167.347656,24.9375 L173.476562,24.9375 C175.671886,24.9375 177.341791,25.3398397 178.486328,26.1445312 C179.630865,26.9492228 180.203125,28.1171798 180.203125,29.6484375 C180.203125,30.5312544 180.000002,31.2851531 179.59375,31.9101562 C179.187498,32.5351594 178.589848,32.9960923 177.800781,33.2929688 C178.691411,33.5273449 179.374998,33.9648405 179.851562,34.6054688 C180.328127,35.246097 180.566406,36.0273391 180.566406,36.9492188 C180.566406,38.6211021 180.037115,39.8769489 178.978516,40.7167969 C177.919917,41.5566448 176.351573,41.9843749 174.273438,42 L167.347656,42 Z M171.460938,34.7460938 L171.460938,38.8359375 L174.15625,38.8359375 C174.898441,38.8359375 175.468748,38.6660173 175.867188,38.3261719 C176.265627,37.9863264 176.464844,37.5078156 176.464844,36.890625 C176.464844,35.4687429 175.75782,34.7539063 174.34375,34.7460938 L171.460938,34.7460938 Z M171.460938,32.0507812 L173.605469,32.0507812 C174.503911,32.0429687 175.144529,31.8789079 175.527344,31.5585938 C175.910158,31.2382796 176.101562,30.7656281 176.101562,30.140625 C176.101562,29.4218714 175.894533,28.9042985 175.480469,28.5878906 C175.066404,28.2714828 174.398442,28.1132812 173.476562,28.1132812 L171.460938,28.1132812 L171.460938,32.0507812 Z M191.628906,37.4648438 C191.628906,36.8632782 191.416018,36.3945329 190.990234,36.0585938 C190.564451,35.7226546 189.816412,35.3750018 188.746094,35.015625 C187.675776,34.6562482 186.800785,34.3085954 186.121094,33.9726562 C183.910145,32.8867133 182.804688,31.3945407 182.804688,29.4960938 C182.804688,28.5507765 183.080075,27.7168005 183.630859,26.9941406 C184.181643,26.2714808 184.960932,25.7089864 185.96875,25.3066406 C186.976568,24.9042949 188.109369,24.703125 189.367188,24.703125 C190.593756,24.703125 191.693355,24.9218728 192.666016,25.359375 C193.638677,25.7968772 194.394529,26.4199178 194.933594,27.2285156 C195.472659,28.0371134 195.742188,28.9609323 195.742188,30 L191.640625,30 C191.640625,29.304684 191.427737,28.7656269 191.001953,28.3828125 C190.57617,27.9999981 190.000004,27.8085938 189.273438,27.8085938 C188.539059,27.8085938 187.958987,27.9707015 187.533203,28.2949219 C187.10742,28.6191422 186.894531,29.0312475 186.894531,29.53125 C186.894531,29.9687522 187.128904,30.3652326 187.597656,30.7207031 C188.066409,31.0761737 188.890619,31.4433575 190.070312,31.8222656 C191.250006,32.2011738 192.218746,32.6093728 192.976562,33.046875 C194.820322,34.1093803 195.742188,35.5742094 195.742188,37.4414062 C195.742188,38.9336012 195.179693,40.1054645 194.054688,40.9570312 C192.929682,41.808598 191.386729,42.234375 189.425781,42.234375 C188.042962,42.234375 186.791021,41.9863306 185.669922,41.4902344 C184.548823,40.9941381 183.705081,40.3144574 183.138672,39.4511719 C182.572263,38.5878863 182.289062,37.5937556 182.289062,36.46875 L186.414062,36.46875 C186.414062,37.3828171 186.650388,38.0566385 187.123047,38.4902344 C187.595705,38.9238303 188.363276,39.140625 189.425781,39.140625 C190.105472,39.140625 190.642576,38.9941421 191.037109,38.7011719 C191.431643,38.4082017 191.628906,37.9960964 191.628906,37.4648438 Z" id="jobs"></path>
            </g>
        </g>
    </g>
</svg>