<svg xmlns="http://www.w3.org/2000/svg" width="896" height="616" viewBox="0 0 896 616">
  <g fill="none" fill-rule="evenodd" transform="translate(0 .836)">
    <g fill="#00B586" transform="translate(250 332.164)">
      <circle cx="112.5" cy="112.836" r="112.5"/>
      <circle cx="258.5" cy="168.836" r="112.5"/>
      <circle cx="384.5" cy="128.836" r="112.5"/>
      <circle cx="533.383" cy="169.836" r="112.5"/>
    </g>
    <path fill="#BBD5EC" fill-rule="nonzero" d="M567.904,483.079 L96.4456,483.079 C96.4456,483.079 118.483,423.502 21.542,293.313 C-23.1415,233.3 6.40709,150.767 76.9829,88.5501 C98.6169,69.6075 122.536,53.455 148.18,40.4702 C172.483,28.0634 198.078,18.3806 224.502,11.5974 C227.13,10.9248 229.765279,10.2522025 232.436,9.65427 C289.794922,-3.18749 348.763672,-0.125 405.611,11.3234 C408.29909,11.8647505 410.897,12.6935 413.545,13.4409 C422.375,15.9321 431.23,18.7554 440.109,21.9109 C568.315,68.1099 619.191,145.224 629.252,228.43 C639.885,316.12 605.201,410.635 567.904,483.079 Z"/>
    <path fill="#468DCB" fill-rule="nonzero" d="M406,11.2931 L406,252 L231.999991,252 L231.999991,9.62709 C273.6214,-0.0880939 316.63,-2.474 359.078,2.57746 C366.788,3.49751 374.535,4.67453 382.32,6.10849 C390.105,7.54246 397.999,9.27067 406,11.2931 Z"/>
    <path fill="#76A7DA" fill-rule="nonzero" d="M363.018 82.3844L232.349991 82.3844 232.349991 37.356253C240.99319 35.66225 252.7206 36.35978 259.5481 49.3264 264.5226 58.8303 271.1014 60.6987 276.1381 60.3623 279.6547 60.0594 282.9934 58.681 285.7016 56.4138 291.3227 51.8674 308.7708 40.7941 324.1794 63.1027 337.213 81.9983 361.078 82.3844 363.018 82.3844zM405.642 33.32292C393.0534 25.62773 379.52817 30.594528 372.642 49.1539L405.642 49.1539 405.642 33.32292z"/>
    <path fill="#47739A" fill-rule="nonzero" d="M406,75.0000084 L406,253 L232.099788,253 C232.386732,210.456 232.099805,147.9242 231.999998,147.9242 L271.2613,147.9242 C271.5305,147.9226 271.7973,147.9744 272.0463,148.0766 C272.2953,148.1789 272.5215,148.3295 272.7118,148.5198 C272.9021,148.7102 273.0528,148.9364 273.155,149.1854 C273.2572,149.4344 273.3091,149.7012 273.3074,149.9704 L273.3074,167.1253 C273.3057,167.3945 273.3575,167.6613 273.4598,167.9103 C273.562,168.1593 273.7126,168.3855 273.9029,168.5758 C274.0933,168.7662 274.3195,168.9168 274.5685,169.0191 C274.8174,169.1213 275.0843,169.1731 275.3534,169.1714 L307.9402,169.1714 C309.5681,169.1714 311.1294,168.5247 312.2805,167.3736 C313.4316,166.2224 314.0783,164.6611 314.0783,163.0331 L314.0783,142.4596 C314.0775,142.1908 314.13,141.9244 314.2328,141.676 C314.3356,141.4276 314.4866,141.202 314.6771,141.0123 L340.128,115.5606 C340.696,114.9885 341.373,114.535 342.118,114.2266 C342.864,113.9182 343.663,113.7609 344.469,113.764 L374.037,113.764 C374.306,113.7657 374.573,113.7139 374.822,113.6116 C375.071,113.5094 375.297,113.3587 375.487,113.1684 C375.678,112.9781 375.828,112.7518 375.931,112.5028 C376.033,112.2539 376.085,111.987 376.083,111.7179 L376.083,81.13837 C376.083,79.51037 376.73,77.94905 377.881,76.79788 C379.032,75.646714 380.593,75.0000084 382.221,75.0000084 L406,75.0000084 Z"/>
    <polygon fill="#679FD5" fill-rule="nonzero" points="391.609 95.7 382.431 95.7 382.431 112.341 391.609 112.341"/>
    <polygon fill="#679FD5" fill-rule="nonzero" points="405.55 95.7 398.461 95.7 398.461 112.329 405.55 112.329"/>
    <path fill="#FFF" d="M626.107,209.003 C627.462,215.5975 628.534,222.244 629.342,228.93 C639.975,316.62 605.29,411.135 567.994,483.579 L44.642,483.579 L437.731,122.154 L524.731,122.154 L626.107,209.003 Z" opacity=".3"/>
    <polygon fill="#637C91" fill-rule="nonzero" points="117.173 313.043 104 313.043 104 483.066 117.173 483.066"/>
    <polygon fill="#637C91" fill-rule="nonzero" points="419.491 313.043 406.318 313.043 406.318 483.066 419.491 483.066"/>
    <polygon fill="#9EC0DB" fill-rule="nonzero" points="233.173 313.043 220 313.043 220 483.066 233.173 483.066"/>
    <polygon fill="#9EC0DB" fill-rule="nonzero" points="535.491 313.043 522.318 313.043 522.318 483.066 535.491 483.066"/>
    <g fill-rule="nonzero" transform="translate(273 378)">
      <path fill="#DAE0E0" d="M81.4438,29.7816 L7.43154,29.7816 C6.86476,29.7816 3.15399217,29.0873 3.15399217,29.0873 L5.29276,14.2828 C5.32292,14.0717 5.39443,13.8686 5.50319,13.6851 C5.61196,13.5016 5.75586,13.3412 5.92667,13.2133 C6.09748,13.0853 6.29186,12.9923 6.49869,12.9393 C6.70553,12.8864 6.92075,12.8747 7.13211,12.9049 L11.16372,13.4497 C11.56683,13.4836 11.96975,13.3823 12.30872,13.1618 C12.64768,12.9412 12.90331,12.614 13.03514,12.232 L16.8635,1.40107 C16.9875,1.05457 17.2128,0.753245 17.5103,0.536137 C17.8077,0.319029 18.1636,0.196161 18.5318,0.183404 L23.4723,0.00180609 C23.7468,-0.0104598 24.0204,0.0399114 24.2724,0.149112 C24.5244,0.258313 24.7482,0.423465 24.9267,0.632005 L29.0652,5.41728 C29.2358,5.61211 29.4429,5.77176 29.6748,5.88727 L32.4552,7.1904 C32.8303,7.36844 33.255,7.4136 33.6593,7.31847 C34.0635,7.22335 34.4234,6.99358 34.6795,6.66699 L36.8183,3.90051 C37.0647,3.58671 37.4062,3.36097 37.7917,3.25701 C38.1772,3.15305 38.586,3.17644 38.957,3.32371 L46.5176,6.22905 C46.8972,6.37102 47.3132,6.38302 47.7003,6.26314 C48.0875,6.14327 48.4238,5.89833 48.6564,5.56681 C49.9717,3.65484 52.6238,0.172721 54.153,0.749517 C55.6822,1.32631 60.5159,1.64672 62.5905,1.75354 C62.8955,1.7705 63.1916,1.86223 63.4527,2.02057 C63.7138,2.17892 63.9318,2.39901 64.0876,2.66146 L71.2632,14.9878 C71.4144,15.2454 71.623,15.4647 71.8727,15.6287 L76.9523,18.8331 C77.2053,18.9926 77.4935,19.0877 77.7919,19.1101 C78.0902,19.1324 78.3894,19.0813 78.6633,18.9613 L79.7327,18.502 C79.9942,18.3864 80.2792,18.3336 80.5649,18.348 C80.8505,18.3623 81.1287,18.4434 81.3773,18.5847 C81.6259,18.726 81.8378,18.9235 81.9961,19.1614 C82.1543,19.3994 82.2545,19.671 82.2885,19.9547 L83.1227,26.4169 L83.2938,27.7414 C83.3226,28.0001 83.296,28.2619 83.2159,28.5095 C83.1358,28.7571 83.0039,28.9849 82.829,29.1778 C82.6541,29.3707 82.4401,29.5243 82.2013,29.6283 C81.9625,29.7324 81.7043,29.7847 81.4438,29.7816 Z"/>
      <path fill="#FFF" d="M83.1021,26.3852 L24.4570065,26.3852 L33.01209,18.3635 C33.68156,17.7383 34.4923,17.2839 35.3754,17.039 L46.358,14.0161 C46.6798,13.9289 46.9694,13.7503 47.1915,13.5019 C47.4136,13.2535 47.5587,12.9461 47.6092,12.6169 L48.2294,8.67542 C48.5898,6.26394 49.6923,4.02417 51.3841,2.26658 C52.4535,1.198436 53.4374,0.50414 54.2073,0.792538 C55.8221,1.401378 60.5702,1.689778 62.6448,1.79659 C62.9498,1.81356 63.2459,1.90525 63.507,2.06359 C63.7681,2.22194 63.9861,2.44207 64.1419,2.70452 L71.264,14.9881 C71.4152,15.2457 71.6238,15.465 71.8736,15.629 L76.9639,18.8334 C77.2168,18.9886 77.5035,19.0803 77.7995,19.1008 C78.0956,19.1212 78.3923,19.0698 78.6642,18.9509 L79.7336,18.4916 C79.9951,18.376 80.2801,18.3232 80.5657,18.3376 C80.8513,18.352 81.1296,18.4331 81.3781,18.5743 C81.6267,18.7156 81.8386,18.9131 81.9969,19.1511 C82.1552,19.389 82.2553,19.6607 82.2894,19.9443 L83.1021,26.3852 Z"/>
      <path fill="#EDEFF1" d="M48.0168,11.16359 C48.0168,8.76249 48.8767,6.1613 49.3067,5.16084 L47.5869,6.01838 C46.727,6.44714 45.4372,5.58961 44.1473,5.16084 C42.8575,4.73207 38.558,3.017 37.6981,3.017 C37.0102,3.017 35.1184,5.58961 34.2585,6.87591 L30.819,10.73482 C30.1024,11.73528 28.0673,13.822 25.6596,14.165 C22.64999,14.5937 20.9302,13.3074 19.21041,13.3074 C17.83458,13.3074 16.91736,15.88 16.63073,17.1663 L14.481,26.1705 L25.2297,26.1705 C26.6628,24.8842 29.9591,21.797 31.6789,19.739 C33.3987,17.6809 35.5484,16.8805 36.4083,16.7376 L44.5773,14.5937 C45.7238,14.4508 48.0168,13.5647 48.0168,11.16359 Z"/>
      <polygon fill="#8FA8BD" points="73.145 105 13.924 105 0 25.669 86 25.669"/>
    </g>
    <path fill="#FFF" fill-rule="nonzero" d="M378.642,461.154026 L437.687097,461.154026 C440.657297,467.71785 445.437697,473.2819 451.458197,477.1827 C457.478697,481.0835 464.485097,483.1563 471.641997,483.154002 L412.596797,483.154 C405.440497,483.1542 398.434897,481.0805 392.414797,477.18 C386.394687,473.2794 381.613887,467.71653 378.642,461.154026 Z" transform="matrix(-1 0 0 1 850.284 0)"/>
    <path fill="#FACD5C" fill-rule="nonzero" d="M381.9821 5.50646C380.6983 11.32591 378.2824 16.83505 374.8725 21.71925 371.4626 26.60345 367.1254 30.76695 362.1088 33.97215 357.0921 37.17725 351.4942 39.36125 345.6347 40.39925 339.7752 41.43725 333.76898 41.30905 327.958997 40.02185 336.86553 38.04135 344.9682 33.41525 351.2074 26.74835 357.4467 20.08145 361.5322 11.684 362.9298 2.65404962 369.2971 3.351581 375.6521 4.31069 381.9821 5.50646zM251.73727 22.43407C252.62329 22.43407 253.34153 21.71478 253.34153 20.82736 253.34153 19.939938 252.62329 19.2204939 251.73727 19.2204939 250.851257 19.2204939 250.133024 19.939938 250.133024 20.82736 250.133024 21.71478 250.851257 22.43407 251.73727 22.43407z"/>
    <path fill="#F7BD1B" fill-rule="nonzero" d="M326.89027,9.43019 C327.77628,9.43019 328.49459,8.71075 328.49459,7.82333 C328.49459,6.935909 327.77628,6.2166169 326.89027,6.2166169 C326.004247,6.2166169 325.286015,6.935909 325.286015,7.82333 C325.286015,8.71075 326.004247,9.43019 326.89027,9.43019 Z" opacity=".5"/>
    <path fill="#FACD5C" fill-rule="nonzero" d="M384.03528 56.25205C384.9213 56.25205 385.63953 55.53261 385.63953 54.64519 385.63953 53.757768 384.9213 53.0383243 384.03528 53.0383243 383.149263 53.0383243 382.43103 53.757768 382.43103 54.64519 382.43103 55.53261 383.149263 56.25205 384.03528 56.25205zM270.20524 101.60404C271.09126 101.60404 271.80957 100.8846 271.80957 99.99718 271.80957 99.109759 271.09126 98.3903149 270.20524 98.3903149 269.319226 98.3903149 268.600994 99.109759 268.600994 99.99718 268.600994 100.8846 269.319226 101.60404 270.20524 101.60404zM310.29931 102.93683C311.18533 102.93683 311.90356 102.21738 311.90356 101.32996 311.90356 100.442544 311.18533 99.7231 310.29931 99.7231 309.41329 99.7231 308.694982 100.442544 308.694982 101.32996 308.694982 102.21738 309.41329 102.93683 310.29931 102.93683zM380.39029 29.40949C381.27631 29.40949 381.99454 28.69004 381.99454 27.80263 381.99454 26.915207 381.27631 26.1957635 380.39029 26.1957635 379.504272 26.1957635 378.785964 26.915207 378.785964 27.80263 378.785964 28.69004 379.504272 29.40949 380.39029 29.40949zM242.53505 97.56843C243.11886 97.56843 243.59218 97.09429 243.59218 96.50956 243.59218 95.924823 243.11886 95.4509851 242.53505 95.4509851 241.951238 95.4509851 241.477997 95.924823 241.477997 96.50956 241.477997 97.09429 241.951238 97.56843 242.53505 97.56843zM355.97809 101.90291C356.5619 101.90291 357.03514 101.42876 357.03514 100.84403 357.03514 100.259298 356.5619 99.7854608 355.97809 99.7854608 355.394278 99.7854608 354.921036 100.259298 354.921036 100.84403 354.921036 101.42876 355.394278 101.90291 355.97809 101.90291z"/>
    <path fill="#F7BD1B" fill-rule="nonzero" d="M259.69905 134.27152C260.28286 134.27152 260.75618 133.79738 260.75618 133.21264 260.75618 132.62791 260.28286 132.154073 259.69905 132.154073 259.115238 132.154073 258.641997 132.62791 258.641997 133.21264 258.641997 133.79738 259.115238 134.27152 259.69905 134.27152zM357.07309 68.42135C357.6569 68.42135 358.13015 67.94721 358.13015 67.36248 358.13015 66.777744 357.6569 66.3036027 357.07309 66.3036027 356.489284 66.3036027 356.015967 66.777744 356.015967 67.36248 356.015967 67.94721 356.489284 68.42135 357.07309 68.42135zM267.94212 34.77804C268.52593 34.77804 268.99917 34.3039 268.99917 33.71917 268.99917 33.134432 268.52593 32.6602905 267.94212 32.6602905 267.358305 32.6602905 266.884988 33.134432 266.884988 33.71917 266.884988 34.3039 267.358305 34.77804 267.94212 34.77804z" opacity=".5"/>
    <path fill="#FACD5C" fill-rule="nonzero" d="M300.73711 10.16509C301.32092 10.16509 301.79416 9.6911 301.79416 9.10636 301.79416 8.52163 301.32092 8.04764041 300.73711 8.04764041 300.153299 8.04764041 299.679982 8.52163 299.679982 9.10636 299.679982 9.6911 300.153299 10.16509 300.73711 10.16509zM298.6991 150.27159C299.28291 150.27159 299.75615 149.79745 299.75615 149.21272 299.75615 148.627983 299.28291 148.154146 298.6991 148.154146 298.11529 148.154146 297.641973 148.627983 297.641973 149.21272 297.641973 149.79745 298.11529 150.27159 298.6991 150.27159z"/>
    <path fill="#F7BD1B" fill-rule="nonzero" d="M293.46106,110.43563 C294.04487,110.43563 294.51819,109.96149 294.51819,109.37675 C294.51819,108.79202 294.04487,108.317878 293.46106,108.317878 C292.877254,108.317878 292.404012,108.79202 292.404012,109.37675 C292.404012,109.96149 292.877254,110.43563 293.46106,110.43563 Z" opacity=".5"/>
    <g fill-rule="nonzero" transform="translate(194 460)">
      <path fill="#EDEFF1" d="M24.142,3.654 L32.142,4.154 L16.142,23.154 L0.142,23.154 L7.10601,16.6252 C7.76179,16.0104 8.10733,15.134 8.04754,14.2371 L7.73255,9.51229 C7.67501,8.64912 7.99288,7.80312 8.60459,7.19141 L14.6992,1.096809 C15.2701,0.52589 16.1283,0.354248 16.8749,0.661666 L24.142,3.654 Z"/>
      <path fill="#FFF" d="M12.966907,9.71411 L15.57853,4.955944 C15.70461,4.727007 15.90664,4.549407 16.14964,4.453876 C16.39263,4.3583438 16.66131,4.3508728 16.90922,4.432779 L23.5999,6.76207 C23.826,6.83712 24.0703,6.83712 24.2964,6.76207 L31.7581,4.3829823 C31.9807,4.3067599 32.2218,4.3043471 32.4458,4.3761401 C32.6698,4.447933 32.8647,4.590083 33.0017,4.781543 L39.3069,13.50069 C39.4585,13.70948 39.5316,13.96514 39.5134,14.22262 C39.4952,14.4801 39.3868,14.7229 39.2074,14.9082 L31.6462,22.7555 C31.5443,22.8649 31.4211,22.9523 31.2842,23.0123 C31.1474,23.0723 30.9997,23.1036 30.8503,23.1042 L15.64073,23.1042 C15.49273,23.1044 15.34621,23.0744 15.21009,23.0163 C15.07396,22.9581 14.95104,22.8729 14.84874,22.7658 C14.74644,22.6586 14.66689,22.5318 14.61492,22.3931 C14.56294,22.2543 14.53961,22.1064 14.54634,21.9583 L14.79504,14.547 C14.80466,14.3524 14.76173,14.15873 14.67071,13.98649 L12.954496,10.81024 C12.8603269,10.64252 12.8118891,10.45292 12.8140721,10.26051 C12.8162551,10.06809 12.8689564,9.87965 12.966907,9.71411 Z"/>
    </g>
    <g fill-rule="nonzero" transform="translate(65 467)">
      <path fill="#CFD7D7" d="M0.827998482,16.0788 L43.2605,16.0788 C45.3981,11.3851 48.8386,7.40635 53.1715,4.61696 C57.5044,1.82757 62.547,0.34534138 67.6978,0.347018246 L25.2652,0.34701967 C20.1148,0.346877468 15.0729,1.82973 10.74025,4.61894 C6.4076,7.40814 2.96686,11.3861 0.827998482,16.0788 Z"/>
      <path fill="#FFF" d="M97.2968,16.0788 L54.8643,16.0788 C52.7267,11.3851 49.2862,7.40635 44.9533,4.61696 C40.6203,1.82757 35.57778,0.34534138 30.4270023,0.347018246 L72.8595,0.34701967 C78.01,0.346877468 83.0519,1.82973 87.3845,4.61894 C91.7172,7.40814 95.1579,11.3861 97.2968,16.0788 Z"/>
    </g>
    <path fill="#CFD7D7" fill-rule="nonzero" d="M126.283666,280.657782 L126.283666,282.38746 C126.283666,283.72736 127.70199,283.43504 127.70199,283.43504 C128.28165,283.43504 128.46665,283.91009 128.46665,284.49478 L128.46665,291.5963 C128.46665,291.8773 128.35363,292.1469 128.15241,292.3456 C127.95118,292.5444 127.67823,292.656 127.39366,292.656 L127.04833,292.656 C126.77029,292.656 126.50364,292.7651 126.307039,292.9593 C126.110439,293.1534 125.999986,293.4168 125.999986,293.6914 L125.999986,301.000031 L153.6759,301 C153.8836,301.0016 154.0871,300.9422 154.2605,300.8295 C154.434,300.7167 154.5697,300.5556 154.6503,300.3666 L162.9136,281.46173 C162.9831,281.30237 163.0113,281.12844 162.9959,280.955615 C162.9805,280.782786 162.9219,280.616457 162.8253,280.471544 C162.7287,280.32663 162.5971,280.207689 162.4425,280.125386 C162.2878,280.043082 162.1149,279.999987 161.9393,280 L126.961983,280 C126.786969,280.008554 126.621246,280.08027 126.496209,280.201517 C126.371173,280.322763 126.295537,280.485116 126.283666,280.657782 Z"/>
    <path fill="#FFF" fill-rule="nonzero" d="M242,285.78479 C241.9967,285.60319 241.9204,285.4301 241.7873,285.30281 C241.6543,285.17552 241.4753,285.10421 241.2888,285.10424 L234.4267,285.10424 L234.4267,280.741397 C234.4267,280.643015 234.4066,280.545641 234.3676,280.454899 C234.3286,280.364158 234.2714,280.281868 234.1994,280.212869 C234.1274,280.143871 234.042,280.089519 233.9482,280.052987 C233.8544,280.016455 233.7541,279.998488 233.6531,280.000101 L142.761056,280.000101 C142.559207,280.000101 142.365625,280.078185 142.222896,280.217209 C142.080167,280.356232 142.000002,280.544788 142.000002,280.741397 L142.000002,284.44799 C142.000002,284.6446 142.080167,284.83315 142.222896,284.97217 C142.365625,285.1112 142.559207,285.18928 142.761056,285.18928 L149.06177,285.18928 C149.19082,285.18928 149.31456,285.23921 149.40582,285.3281 C149.49707,285.41698 149.54833,285.53755 149.54833,285.66325 L149.54833,292.4931 C149.54508,292.6166 149.49238,292.7341 149.40148,292.8203 C149.31057,292.9066 149.18868,292.9549 149.06177,292.9549 L146.17967,292.9549 C145.88186,292.9549 145.59623,293.0701 145.38564,293.2752 C145.17506,293.4803 145.05679,293.7585 145.05679,294.0486 L145.05679,299.9183 C145.05678,300.0614 145.08587,300.2031 145.14246,300.3351 C145.19904,300.4671 145.28197,300.5869 145.38641,300.6875 C145.49084,300.7881 145.61474,300.8675 145.7509,300.9211 C145.88707,300.9748 146.0328,301.0015 146.17967,300.9999 L236.5477,300.9999 C236.669,300.9999 236.789,300.9767 236.901,300.9315 C237.013,300.8863 237.1148,300.82 237.2006,300.7365 C237.2863,300.653 237.3543,300.5539 237.4007,300.4448 C237.4471,300.3357 237.471,300.2187 237.471,300.1006 L237.471,293.6719 C237.471,293.607 237.4843,293.5428 237.5101,293.483 C237.536,293.4232 237.5739,293.3691 237.6215,293.3238 C237.6692,293.2785 237.7257,293.2429 237.7877,293.2192 C237.8497,293.1955 237.9159,293.1841 237.9825,293.1858 L241.2514,293.1858 C241.4379,293.1858 241.6169,293.1145 241.7499,292.9872 C241.8829,292.8599 241.9593,292.6868 241.9626,292.5052 L242,285.78479 Z"/>
    <path fill="#FFF" fill-rule="nonzero" d="M249.1261,245.999978 C249.242,245.999963 249.3567,246.024678 249.4637,246.07261 C249.5706,246.120543 249.6676,246.190742 249.7489,246.279178 C249.8302,246.367614 249.8943,246.47249 249.9374,246.587694 C249.9805,246.702897 250.0017,246.82614 249.9999,246.950218 C249.7653,255.79807 246.3179,264.1996 240.3897,270.3705 C234.4616,276.5415 226.5196,279.9958 218.2505,280 L177,280 C185.27143,279.9957 193.2153,276.5393 199.1439,270.3652 C205.0724,264.1911 208.5183,255.78582 208.7494,246.935357 C208.7529,246.688474 208.8461,246.452774 209.0092,246.278181 C209.1723,246.103588 209.3925,246.003807 209.6232,245.999978 L249.1261,245.999978 Z"/>
    <g fill="#6CC459" fill-rule="nonzero" transform="translate(265.306 247.438)">
      <path d="M63.6612,0 L7,0 C3.13401,0 0,3.13401 0,7 L0,53.361 L63.6612,53.361 L63.6612,0 Z"/>
      <path d="M63.6612,0 L7,0 C3.13401,0 0,3.13401 0,7 L0,53.361 L63.6612,53.361 L63.6612,0 Z"/>
    </g>
    <g fill-rule="nonzero" opacity=".5" transform="translate(265.306 247.438)">
      <path fill="#6CC459" d="M63.6612,0 L7,0 C3.13401,0 0,3.13401 0,7 L0,53.361 L63.6612,53.361 L63.6612,0 Z"/>
      <path fill="#47739A" d="M63.6612,0 L7,0 C3.13401,0 0,3.13401 0,7 L0,53.361 L63.6612,53.361 L63.6612,0 Z"/>
    </g>
    <polygon fill="#DAE0E0" fill-rule="nonzero" points="263.229 228.193 275.727 228.193 305.363 300.798 293.225 300.798"/>
    <polygon fill="#FFF" fill-rule="nonzero" points="326.132 228.193 275.728 228.193 305.364 300.798 354.76 300.798"/>
    <path fill="#6CC459" fill-rule="nonzero" d="M356.9612,247.438 L300.3,247.438 C296.43401,247.438 293.3,250.57201 293.3,254.438 L293.3,300.799 L356.9612,300.799 L356.9612,247.438 Z"/>
    <polygon fill="#6CC459" fill-rule="nonzero" points="293.586 274.367 265.318 274.367 265.318 300.798 293.3 300.798" opacity=".7"/>
    <path fill="#CFD7D7" fill-rule="nonzero" d="M393.1752,228.878723 L353.5532,228.878723 C346.6072,228.37619 339.6521,229.723775 333.3943,232.78462 C327.1365,235.84546 321.7989,240.5105 317.92367,246.306 C314.04843,252.1015 311.773536,258.8209 311.330077,265.7819 C310.886618,272.7429 312.29038,279.6975 315.39877,285.9393 C317.67465,290.4498 321.15893,294.2369 325.4616,296.8767 C329.7643,299.5165 334.7157,300.9049 339.7614,300.8864 L373.0533,300.8864 C377.8401,297.592 381.8407,293.2786 384.7689,288.2549 C387.6971,283.2312 389.4805,277.6213 389.9915,271.8268 L393.1752,271.8268 L393.1752,228.878723 Z"/>
    <path fill="#FFF" fill-rule="nonzero" d="M423.7057,228.778902 L357.208983,228.778902 C392.9011,234.17232 392.814,262.1109 390.9735,269.8834 C390.3517,272.5116 389.4189,272.686 389.4189,272.686 L452.4583,272.686 C452.4583,272.686 467.382,247.0393 440.1837,232.67761 C435.0886,230.05722 429.4329,228.719093 423.7057,228.778902 Z"/>
    <path fill="#F1F2F3" fill-rule="nonzero" d="M400.6992,295.2941 L400.6992,300.8868 L336.640011,300.8868 C341.11332,300.7662 345.36297,298.9017 348.4844,295.69 C351.6058,292.4784 353.3524,288.1734 353.3524,283.6914 C353.3524,279.2094 351.6058,274.90439 348.4844,271.69278 C345.36297,268.48117 341.11332,266.616615 336.640011,266.496018 L371.9092,266.496018 C379.5383,266.496012 386.8555,269.52889 392.2536,274.92851 C397.6517,280.3281 400.6893,287.6529 400.6992,295.2941 Z"/>
    <path fill="#C1CFDB" fill-rule="nonzero" d="M479.5701,285.7144 L479.5701,291.6185 L406.618997,291.6185 L408.44713,271.826017 L456.2645,271.826017 C457.9961,271.826017 459.6569,272.514983 460.8813,273.74135 C462.1057,274.96772 462.7936,276.63103 462.7936,278.36537 L462.7936,279.175 L473.041,279.175 C474.7726,279.175 476.4334,279.86397 477.6578,281.09034 C478.8822,282.3167 479.5701,283.98 479.5701,285.7144 Z"/>
    <polygon fill="#708FAC" fill-rule="nonzero" points="462.642 277.154 410.642 277.154 410.642 279.154 462.642 279.154"/>
    <path fill="#708FAC" fill-rule="nonzero" d="M482.717,285.4031 L417.5879,285.4031 C417.2126,285.402 416.844,285.3025 416.519,285.1146 C416.1939,284.9267 415.9236,284.6568 415.7349,284.3319 L408.5094,271.875989 L387.5046,271.875989 L379.6573,285.428 L365.81571,285.428 L360.977982,300.8858 L495.153,300.8858 L485.676,287.0099 C485.349,286.5227 484.909,286.122 484.394,285.8422 C483.878,285.5624 483.303,285.4118 482.717,285.4031 Z"/>
    <path fill="#8FA8BD" fill-rule="nonzero" d="M384.14206,270.153988 L378.06028,270.153988 C377.99665,270.153988 377.87848,271.98419 377.73303,274.50987 C377.008457,275.95048 376.63453,277.54388 376.642115,279.15859 C376.639131,280.4085 376.860886,281.6486 377.296657,282.819 C377.151204,285.8114 377.033015,288.154 377.033015,288.154 L384.14206,288.154 C388.2784,288.154 391.642,284.1276 391.642,279.15859 C391.642,274.1896 388.2784,270.153988 384.14206,270.153988 Z"/>
    <path fill="#708FAC" fill-rule="nonzero" d="M377.642,288.154 C382.0603,288.154 385.642,284.1245 385.642,279.15391 C385.642,274.18335 382.0603,270.154072 377.642,270.154072 C373.22372,270.154072 369.642002,274.18335 369.642002,279.15391 C369.642002,284.1245 373.22372,288.154 377.642,288.154 Z"/>
    <polygon fill="#AACCE7" fill-rule="nonzero" points="247.97 161.53 238.792 161.53 238.792 178.171 247.97 178.171"/>
    <polygon fill="#AACCE7" fill-rule="nonzero" points="263.912 161.53 254.734 161.53 254.734 178.171 263.912 178.171"/>
    <g fill-rule="nonzero" transform="translate(250 461)">
      <polygon fill="#EDEFF1" points="39.142 5.154 47.142 7.154 45.142 13.654 27.642 22.154 .642 22.154 3.642 16.154 13.142 10.154 13.142 5.154 30.142 .154"/>
      <path fill="#FFF" d="M13.080055,16.5235 L29.5955,0.263544 C29.6418,0.216468 29.697,0.1790922 29.7578,0.1535742 C29.8187,0.1280563 29.884,0.114915554 29.9499,0.114915554 C30.0159,0.114915554 30.0812,0.1280563 30.1421,0.1535742 C30.2029,0.1790922 30.2581,0.216468 30.3044,0.263544 L33.142,7.7545 L41.7705,11.6532 C41.8168,11.7003 41.872,11.7377 41.9328,11.7632 C41.9937,11.7887 42.059,11.8018 42.1249,11.8018 C42.1909,11.8018 42.2562,11.7887 42.317,11.7632 C42.3779,11.7377 42.4331,11.7003 42.4794,11.6532 L46.7201,7.40574 C46.789,7.33315 46.878,7.28304 46.9757,7.2619 C47.0734,7.24075 47.1752,7.24957 47.2679,7.28721 C47.3605,7.32486 47.4396,7.38955 47.495,7.4729 C47.5504,7.55626 47.5794,7.65439 47.5782,7.7545 L47.5782,21.6553 C47.5782,21.7875 47.5258,21.9142 47.4325,22.0076 C47.3392,22.101 47.2127,22.1535 47.0808,22.1535 L27.0086,22.1535 L26.847,22.1535 L23.142,17.3705 L13.266592,17.3705 C13.182392,17.3446 13.106566,17.2968 13.046847,17.232 C12.9871277,17.1672 12.9456606,17.0876 12.9266894,17.0015 C12.9077182,16.9153 12.9118895,16.8257 12.9388342,16.7417 C12.9657789,16.6577 13.0145346,16.5824 13.080055,16.5235 Z"/>
    </g>
    <path fill="#FFF" fill-rule="nonzero" d="M196.639,227.1536 L247.639,227.1536 C247.639,222.8304 246.9427,218.4239 245.2909,214.4296 C243.6391,210.4355 241.218,206.8063 238.1658,203.74933 C235.1136,200.69233 231.4902,198.2674 227.5023,196.61298 C223.5145,194.958562 219.2404,194.107 214.9239,194.107 L162.990047,194.107 C165.11645,194.107 167.22155,194.313421 169.2788,194.715032 C184.6498,197.56208 196.3436,211.0288 196.639,227.1536 Z"/>
    <path fill="#679FD5" fill-rule="nonzero" d="M90.37196,77.1646 C111.9887,60.0115 149.3906,37.9469 171.2073,29.5708 C177.1351,37.55566 180.6419,47.4453 180.6419,58.1539 C180.6419,84.6636 159.1514,106.1538 132.6417,106.1538 C113.324,106.1538 96.67159,94.7422 89.058,78.2924 L90.37196,77.1646 Z" opacity=".6"/>
    <path fill="#AACCE7" fill-rule="nonzero" d="M95.909,72.9166 C115.0676,58.6657 141.6414,42.15383 162.7583,33.1343 C168.3066,39.92251 171.6356,48.601 171.6356,58.058 C171.6356,79.8032 154.0353,97.4311 132.3245,97.4311 C115.8624,97.4311 101.76386,87.2964 95.909,72.9166 Z"/>
    <path fill="#DAE0E0" fill-rule="nonzero" d="M132.125,216.775 L140.66284,216.775 C144.5206,207.9455 153.3311,201.775 163.5826,201.775 C174.3021,201.775 183.4458,208.5216 186.9993,218.0002 L196.5671,226.275 L196.5789,226.275 C196.3116,208.2802 181.6411,193.775 163.5826,193.775 C148.8432,193.775 136.36084,203.43821 132.125,216.775 Z"/>
    <g fill="#FFF" fill-rule="nonzero" opacity=".23" transform="translate(108.932 36)">
      <path d="M23.3933 53.8082C25.2134 53.8082 26.6889 52.3302 26.6889 50.5072 26.6889 48.6842 25.2134 47.2065 23.3933 47.2065 21.5731 47.2065 20.0977 48.6842 20.0977 50.5072 20.0977 52.3302 21.5731 53.8082 23.3933 53.8082zM51.7976 25.3588C53.6177 25.3588 55.0932 23.8811 55.0932 22.0581 55.0932 20.2351 53.6177 18.7571 51.7976 18.7571 49.9775 18.7571 48.502 20.2351 48.502 22.0581 48.502 23.8811 49.9775 25.3588 51.7976 25.3588zM43.4773 45.4753C45.2974 45.4753 46.7729 43.9973 46.7729 42.1743 46.7729 40.3513 45.2974 38.8736 43.4773 38.8736 41.6572 38.8736 40.1816 40.3513 40.1816 42.1743 40.1816 43.9973 41.6572 45.4753 43.4773 45.4753zM44.2594 5.32138C46.0795 5.32138 47.555 3.84337 47.555 2.02038 47.555 1.25926 47.2978.558327 46.8657 0L41.0684 2.84886C41.4354 4.27091 42.7249 5.32138 44.2594 5.32138zM3.29564 45.4753C5.11576 45.4753 6.59128 43.9973 6.59128 42.1743 6.59128 40.3513 5.11576 38.8736 3.29564 38.8736 1.47553 38.8736 0 40.3513 0 42.1743 0 43.9973 1.47553 45.4753 3.29564 45.4753z"/>
    </g>
    <path fill="#82B1DC" fill-rule="nonzero" d="M134.64206,52.56986 L134.64206,47.4954 C133.30838,48.266762 131.97421,49.04936 130.64206,49.84135 L130.64206,52.56974 C128.87613,53.34135 127.642,55.10355 127.642,57.15397 C127.642,59.9154 129.88059,62.1536 132.642,62.1536 C133.28684,62.1536 133.90317,62.0315 134.46915,61.8092 L142.3108,69.6509 C142.5683,69.9084 142.9643,70.0064 143.4115,69.9233 C143.8589,69.8401 144.3208,69.5827 144.6959,69.2077 C144.8816,69.0219 145.0404,68.8129 145.1632,68.5926 C145.286,68.3721 145.3704,68.1447 145.4115,67.9233 C145.4527,67.7017 145.4498,67.4906 145.403,67.3017 C145.3564,67.1128 145.2667,66.95 145.1392,66.8224 L137.2977,58.9809 C137.51993,58.415 137.642,57.7987 137.642,57.15397 C137.642,55.10368 136.40793,53.34147 134.64206,52.56986 Z"/>
    <polygon fill="#8FA8BD" fill-rule="nonzero" points="76.642 300.154 519.642 300.154 519.642 314.154 76.642 314.154"/>
    <polygon fill="#637C91" fill-rule="nonzero" points="434.642 300.154 559.642 300.154 559.642 314.154 434.642 314.154"/>
    <polygon fill="#82B1DC" fill-rule="nonzero" points="478.583 41.654 485.583 37.654 485.642 90.02 478.583 90.02" transform="matrix(-1 0 0 1 964.225 0)"/>
    <ellipse cx="481.654" cy="124.894" fill="#FFF" fill-rule="nonzero" rx="11.259" ry="11.26"/>
    <polygon fill="#82B1DC" fill-rule="nonzero" points="438 116 482.072 79 525 116"/>
    <rect width="87" height="7" x="438" y="115" fill="#9EC0DB" fill-rule="nonzero"/>
    <g fill-rule="nonzero" transform="translate(326 229)">
      <path fill="#6FA3D1" d="M311.1456,169.519658 L301.287581,196.677 C300.558478,198.6873 300.443985,200.8734 300.959112,202.9505 C301.474238,205.0276 302.59512,206.8994 304.17558,208.322 L317.713,220.5294 C318.0212,220.8129 318.3976,221.0094 318.8045,221.099 C319.2114,221.1887 319.6343,221.1684 320.031,221.0402 C320.4277,220.9119 320.7841,220.6803 321.0645,220.3685 C321.3448,220.0567 321.5393,219.6757 321.6284,219.2637 L321.7811,218.6308 C322.8816,213.7423 322.4845,208.6302 320.6426,203.9762 L319.5457,201.1634 C319.0508,199.9223 318.8364,198.5847 318.9181,197.2487 C318.9997,195.9127 319.3755,194.6122 320.0178,193.4424 C321.0452,191.5578 322.3087,189.2935 323.4889,187.3949 C324.5524,185.6704 325.2422,183.7368 325.5127,181.722 C325.7832,179.7073 325.6282,177.65728 325.0579,175.70776 L323.1279,169.153983 L311.1456,169.519658 Z"/>
      <path fill="#EF6C00" d="M323.721,177.154 L306.57518,177.154 L298.642006,60.2076 C298.635512,55.9643 300.36489,51.8917 303.451,48.88243 C306.5371,45.87315 310.7281,44.1727569 315.1054,44.154 C319.4902,44.1571288 323.6945,45.84699 326.795,48.8525 C329.8955,51.85802 331.6388,55.9335 331.642,60.1839 L323.721,177.154 Z"/>
      <path fill="#ABE3EF" d="M421.683,33.2726 L405.74,49.2784 L385.195,51.7696 C385.195,51.7696 373.741,39.8617 358.233,39.3137 C352.674,39.1144 350.61,43.7854 350.286,54.0241 C350.286,54.9957 346.22,55.7555 347.438,59.156 C356.43,84.0678 278.8649,149.387 278.8649,149.387 L241.978997,103.3 C241.978997,103.3 308.3016,32.5127 323.1256,28.6389 C326.0854,27.8667 328.8712,27.0571 331.4704,26.235 C348.608,20.8665 358.109,15.0246 358.109,15.0246 C358.109,15.0246 363.282,12.7826 370.545,3.27871 C377.36,-5.67709 414.147,7.41406 421.683,33.2726 Z"/>
      <path fill="#F7BD1B" d="M278.8649,149.412 L241.979,103.3248 C241.979,103.3248 308.3016,32.53777 323.1256,28.66398 C326.0855,27.89172 328.8712,27.082091 331.4704,26.26 C332.1411,30.65343 337.1411,35.15343 352.641,42.1534 C349.641,50.1534 349.641,61.6534 349.641,61.6534 L278.8649,149.412 Z"/>
      <path fill="#637C91" d="M358.495,39.50059 C358.495,39.50059 373.1449,40.87072 373.1698,52.0188 C373.1698,60.1027 376.0425,72.8949 387.6083,70.0176 C391.1295,69.1043 394.2696,67.0934 396.5748,64.2754 C399.6466,60.5387 406.3,54.8214 415.4655,59.019 C417.2674,59.8507 419.3057,60.0141 421.2168,59.4803 C423.1279,58.9464 424.7875,57.75 425.8996,56.1043 C429.3071,50.9849 432.1177,43.474 426.2105,36.63574 C423.8144,33.87033 420.5617,31.989494 416.9725,31.294003 C413.3833,30.598512 409.6649,31.128515 406.412,32.7993 C405.4113,33.32047 404.4435,33.90284 403.5143,34.54312 C402.4975,35.23404 401.3196,35.64992 400.0949,35.75032 C398.8703,35.85071 397.6406,35.63224 396.5251,35.11612 L390.307,32.2886 L387.6829,34.09472 C387.6829,34.09472 399.945,40.13586 392.6574,43.7605 C386.8372,46.6752 382.1985,44.7694 379.6615,39.72478 C378.8725,38.08204 377.6528,36.6848 376.1327,35.68224 C374.6126,34.67967 372.8492,34.10941 371.0308,34.03242 C367.1631,33.87049 363.1586,35.40259 358.495,39.50059 Z"/>
      <polygon fill="#708FAC" points="163.444 144.728 181.29 234.099 164.141 234.099 126.359 154.195"/>
      <path fill="#679FD5" d="M241.979,103.300002 C241.979,103.300002 176.876,117.4873 146.6803,124.201 C138.4469,126.0336 131.0467,130.5342 125.6257,137.0057 L50.149997,224.72 L62.0391,234.959 L131.4458,182.283 C139.1019,176.3235 145.0978,168.4908 148.8566,159.5385 C149.6939,157.5662 151.126,155.9055 152.952,154.7888 C154.779,153.6721 156.908,153.1552 159.042,153.3105 L236.831,158.9281 C250.087,159.8838 263.355,157.2509 275.246,151.3051 L278.977,149.4616 L241.979,103.300002 Z"/>
      <path fill="#637C91" d="M343.123,87.95403 L334.418,80.617517 C333.878,80.171428 333.184,79.9554505 332.487,80.0160077 C331.789,80.0765649 331.143,80.408797 330.687,80.941345 L271.441,151.1803 C271.055,151.6362 270.575,152.0026 270.034,152.2543 C269.493,152.5059 268.903,152.6367 268.307,152.6376 L161.96223,152.6376 C159.37687,152.6376 157.470648,155.0534 158.0719,157.5679 L160.15897,166.2962 C160.58939,168.0962 162.1985,169.366 164.0493,169.366 L275.719,169.366 C276.416,169.3659 277.104,169.2132 277.736,168.9184 C278.367,168.6236 278.927,168.1939 279.375,167.6595 L343.434,91.6784 C343.881,91.1408 344.098,90.4491 344.04,89.75248 C343.982,89.05585 343.653,88.40999 343.123,87.95403 Z"/>
      <path fill="#ABE3EF" d="M327.1464,182.485049 L317.285399,209.1617 C316.558,211.1335 316.444444,213.2771 316.959624,215.3138 C317.474805,217.3505 318.59485,219.1863 320.17422,220.5827 L333.7019,232.5554 C334.0133,232.8288 334.3907,233.0173 334.7973,233.1026 C335.2039,233.1878 335.6258,233.1668 336.0218,233.0418 C336.4178,232.9167 336.7743,232.6918 337.0567,232.3889 C337.339,232.0861 337.5374,231.7157 337.6325,231.314 L337.7714,230.6933 C338.8778,225.8957 338.4853,220.8771 336.6464,216.3067 L335.5492,213.548 C335.055,212.3311 334.8397,211.0202 334.919,209.7104 C334.9983,208.4006 335.3701,207.1247 336.0075,205.9754 C337.0353,204.127 338.3131,201.9063 339.4797,200.0442 C340.5494,198.3553 341.2429,196.4587 341.5136,194.4817 C341.7843,192.5046 341.6259,190.49297 341.0492,188.58175 L339.1325,182.154019 L327.1464,182.485049 Z"/>
      <path fill="#F2952E" d="M341.6067,186.269 L322.75339,186.269 L314.048012,53.7507 C314.048012,48.9342 315.95835,44.31494 319.35878,40.90914 C322.7592,37.50334 327.3712,35.5899818 332.1801,35.5899818 C336.989,35.5899818 341.6009,37.50334 345.0014,40.90914 C348.4018,44.31494 350.3121,48.9342 350.3121,53.7507 L341.6067,186.269 Z"/>
      <path fill="#637C91" d="M130.8642,254.154 L183.8642,254.154 L185.642,246.1155 C169.2927,246.0893 156.8086,239.26938 152.3642,234.154 L135.3642,233.154 L130.8642,254.154 Z" transform="matrix(-1 0 0 1 316.506 0)"/>
      <path fill="#708FAC" d="M9.642,213.654 C9.642,213.654 36.642,228.154 51.642,223.154 L62.642,234.654 L45.4716,254.154 L0.142,224.154 L9.642,213.654 Z"/>
    </g>
    <path fill="#FFF" fill-rule="nonzero" d="M498.7738,247.6244 C497.2417,252.3725 500.2634,257.1865 501.9658,259 L494.9435,259 C490.90044,256.6919 483.069565,250.592 484.090983,244.6569 C485.36776,237.238 494.9435,235.7542 494.9435,225.8624 C494.9435,217.949 488.77467,218.6957 488.55972,213.49764 C487.94616,198.66006 530.4346,211.05918 516.0103,232.2921 C511.4621,238.9872 500.689,241.6893 498.7738,247.6244 Z" opacity=".4"/>
    <path fill="#6CC459" d="M513.8537,259 L478,259 L478,287.9412 C478,294.6011 483.35077,300 489.9512,300 L501.9024,300 C508.5029,300 513.8537,294.6011 513.8537,287.9412 L513.8537,286.7225 C521.1669,286.4069 527,280.3246 527,272.8676 C527,265.41067 521.1669,259.328409 513.8537,259.012807 L513.8537,259 Z M513.8537,263.84325 L513.8537,281.892 C518.5255,281.5817 522.2195,277.66 522.2195,272.8676 C522.2195,268.07533 518.5255,264.15356 513.8537,263.84325 Z"/>
    <rect width="14" height="73" x="551" y="409" fill="#637C91" fill-rule="nonzero"/>
    <polygon fill="#637C91" fill-rule="nonzero" points="543 398 572 398 568.133 415 547.833 415"/>
    <polygon fill="#637C91" fill-rule="nonzero" points="513 466 603 466 591 483 528 483" transform="matrix(1 0 0 -1 0 949)"/>
    <path stroke="#637C91" stroke-width="8" d="M528.5,387.5 C528.9,385.9 540.8333,356.5 545,344"/>
    <path fill="#95BCDE" d="M503.15977,345.78384 C506.28693,340.93675 511.6452,338 517.4262,338 L632.861,338 L625.861,346 L517.4262,346 C514.3753,346 511.543,347.5466 509.8821,350.1209 L506.52045,355.3315 L497,355.3315 L503.15977,345.78384 Z"/>
  </g>
</svg>
