<svg xmlns="http://www.w3.org/2000/svg" width="360" height="185" viewBox="0 0 360 185">
  <g fill="none" fill-rule="evenodd">
    <path fill="#B6C1C2" d="M167.932 82.5447C170.281 85.5203 176.866 88.5645 176.866 88.5645L176.866 109.111 180.629 112.224C178.08 113.625 175.86 117.296 175.19 118.404 175.066 118.608 174.995 118.725 174.984 118.725 174.112 118.725 168.333 113.541 168.333 113.541L168.333 110.149C165.578 110.977 159.528 118.865 159.528 118.865 159.528 118.865 158.256 117.554 154.96 113.262 151.67 108.971 152.07 105.788 153.619 101.92 155.163 98.04 160.739 97.629 160.739 97.629 159.399 96.382 154.554 89.9819 153.404 87.9436 152.642 86.583 152.587 85.1912 153.736 84.2036 155.009 83.1082 156.756 83.4746 157.64 84.2671 158.28 84.9568 158.68 85.7727 158.373 86.887 158.046 88.0706 156.7 88.5386 156.7 88.5386 158.373 88.9062 160.002 89.052 161.613 88.1533 163.23 87.248 167.932 82.5447 167.932 82.5447zM168.904 113.162C168.904 113.162 173.306 117.162 174.745 118.074 174.745 118.074 174.919 117.755 175.092 117.446 175.248 117.168 175.404 116.898 175.435 116.87 175.247 116.787 170.2 112.757 170.134 112.484L170.134 92.976C170.134 92.976 165.922 90.8748 163.537 87.5894L162.621 88.2795C162.621 88.2795 164.526 91.3875 168.997 93.464L168.904 113.162zM164.034 112.079C164.034 112.01 167.594 109.382 168.265 109.243 168.265 109.243 168.468 93.825 168.399 93.825 168.332 93.825 164.367 91.9382 162.098 88.7036 162.098 88.7036 159.313 90.7419 155.31 88.7036 155.615 90.1812 155.87 90.4812 162.383 98.132L162.386 98.135 164.76 100.926C164.76 100.926 164.114 101.452 164.114 101.382 164.114 101.313 162.03 98.705 160.475 98.654 158.083 98.572 157.653 100.92 157.947 102.572 158.212 104.092 159.061 107.028 164.034 112.079zM159.472 117.75C154.486 112.028 154.289 110.959 154.289 110.959 157.831 114.655 160.751 116.294 160.751 116.294L159.472 117.75zM123.308 81.6768C123.303 71.6961 131.146 69.2337 135.918 67.9812 143.411 66.0081 153.531 74.5564 152.364 75.4366 151.198 76.3177 142.225 84.9956 142.225 84.9956L141.529 84.2696C141.685 84.1289 141.861 83.9837 142.051 83.8277 143.432 82.6905 145.517 80.9742 145.517 76.1751 145.517 68.2832 138.448 68.5689 138.123 68.5821L138.112 68.5826C138.043 68.5826 138.112 105.335 138.112 105.335 142.463 105.353 148.928 108.151 148.928 108.151 149.48 107.475 150.709 106.805 150.709 106.873 150.709 106.941 151.473 107.574 151.473 107.574 149.561 107.915 145.499 115.569 144.245 117.933 144.015 118.366 143.879 118.621 143.869 118.621 130.914 110.893 117.671 112.753 117.195 116.469 116.525 121.698 125.704 120.445 132.802 117.796L133.466 117.97C125.315 121.35 114.468 122.126 116.18 115.508 118.857 105.167 137.109 105.267 137.109 105.267L137.109 68.6382C134.3 68.5701 133.246 71.2376 133.246 71.2376L133.108 99.436C133.04 105.676 121.183 107.506 121.183 107.506 123.233 105.744 123.314 103.642 123.314 103.642 123.327 103.12 123.377 94.356 123.308 94.356 119.007 94.356 116.248 97.538 116.248 97.538 115.426 86.0804 123.308 87.0977 123.308 87.0977L123.308 81.6768zM147.587 78.8169L145.663 80.5662C145.663 80.5662 147.65 75.3931 144.822 70.9834 144.822 70.9834 146.866 72.2173 147.65 75.0269 148.195 76.9934 147.587 78.8169 147.587 78.8169zM144.458 115.575L143.48 117.232C143.549 117.232 135.254 112.257 127.153 112.412 127.153 112.412 134.395 110.315 144.458 115.575zM125.811 101.446L125.811 79.4993C125.811 76.75 126.934 74.0428 127.195 73.4136L127.24 73.3033C127.247 73.2835 127.25 73.2747 127.247 73.2779 125.842 74.6114 123.961 76.981 123.961 82.5577L123.961 103.468C123.961 103.468 123.993 105.831 122.795 106.358 122.795 106.358 125.811 105.533 125.811 102.872L125.811 101.446zM123.314 93.593C123.314 93.593 119.967 93.4 116.769 96.124 116.769 96.124 117.672 92.576 123.314 91.1241 123.314 91.1241 123.271 92.188 123.27 92.919 123.269 93.301 123.28 93.593 123.314 93.593zM210.457 83.1245L203.224 94.184 202.588 93.705C202.588 93.705 204.048 91.9463 203.917 90.5657 203.766 88.988 202.288 88.1248 200.322 88.8557 200.322 88.8557 198.35 89.5188 198.175 91.5925 198.094 92.583 197.982 93.617 197.863 94.298 197.863 94.298 201.77 91.3152 204.041 96.94 204.41 97.842 204.453 99.488 204.453 101.183 204.453 101.183 204.384 108.246 204.509 108.883 204.833 110.554 206.569 111.651 208.41 111.014L209.296 110.661C209.296 110.661 202.612 117.522 201.857 118.865 201.857 118.865 197.02 114.552 197.02 112.71L197.02 104.015 197.02 104.001C197.021 103.693 197.029 100.654 195.03 101.392 193.546 101.935 193.602 102.722 193.612 102.863L193.613 102.88 193.613 109.741C193.613 109.741 194.973 110.308 195.86 109.955 195.86 110.024 190.262 116.463 189.444 118.298 189.513 118.298 182.76 111.79 182.286 111.582 182.286 111.582 184.058 110.308 184.738 108.896 184.738 108.896 184.807 72.821 184.738 72.897 184.67 72.9661 190.131 70.917 193.607 66.0359L193.607 100.559C193.607 100.559 196.527 97.993 196.783 93.181 196.958 89.8594 197.906 77.3484 208.746 82.6519 208.746 82.7271 210.457 83.1245 210.457 83.1245zM189.302 117.294C187.142 115.094 183.317 111.582 183.317 111.582 184.134 110.945 185.457 109.249 185.388 109.249 185.319 109.249 185.388 73.3252 185.388 73.3252 185.388 73.3252 185.885 73.052 186.264 72.8604 186.498 72.7424 186.686 72.6555 186.686 72.6821L186.686 109.11C186.686 110.03 185.17 111.493 185.102 111.493 185.068 111.493 186.206 112.544 187.403 113.64 188.71 114.837 190.087 116.09 190.087 116.09L189.302 117.294zM205.833 88.7363C202.555 85.3955 199.574 88.3928 199.164 88.8047L199.134 88.8342C199.125 88.8435 199.119 88.8489 199.117 88.8499 203.835 86.3779 204.627 90.1741 204.603 90.8677L204.809 90.4329 205.833 88.7363zM198.93 112.212C198.93 109.451 198.861 101.916 198.861 101.846 198.855 101.323 198.058 99.039 195.369 100.479 195.359 100.482 195.355 100.484 195.36 100.484L195.369 100.479 195.407 100.47C195.423 100.466 195.443 100.462 195.467 100.458 195.922 100.383 197.638 100.307 197.638 103.346 197.638 105.31 197.675 109.265 197.692 111.049L197.694 111.248 197.7 111.954C197.7 113.436 198.206 114.583 201.75 117.957L202.643 116.967C202.643 116.967 198.93 113.859 198.93 112.212zM225.948 82.5447L232 93.339C229.278 94.862 219.532 102.019 219.532 102.019L219.532 109.339 222.893 112.1 227.712 107.685 228.127 108.095 217.091 118.865 210.528 113.621 210.458 89.9417C220.376 86.4167 223.922 84.2437 225.948 82.5447zM221.219 86.2842L226.236 96.289 224.97 97.142 219.749 87.0291C219.749 86.947 221.219 86.3662 221.219 86.2842zM219.469 88.0469L219.469 101.261 224.402 97.616 219.469 88.0469zM211.008 113.426L217.066 118.157 218.037 117.19 212.125 112.599 212.125 89.9729 211.008 90.3459 211.008 113.426zM54.1782 21.8508C56.9175 20.1738 60.1919 14.0867 60.1919 14.0867 63.0654 18.2461 67.9424 20.8618 67.9424 20.8618L67.9424 47.8279C67.9424 49.5723 67.6758 50.176 64.4014 52.7937 61.127 55.4094 55.7822 54.2007 55.7822 54.2007 59.2563 52.458 59.5229 49.9084 59.5229 49.9084 59.5229 49.9084 59.5903 28.1067 59.5229 26.6311 59.4561 25.1553 58.7891 24.1487 57.3853 23.4116 55.9819 22.6731 54.1782 23.0754 54.1782 23.0754L54.1782 42.3955C55.0464 43.6023 55.9819 44.0725 55.9819 44.0725 54.9868 44.7715 52.0664 48.0732 50.6387 49.6873 50.1484 50.2412 49.8345 50.5962 49.8345 50.5789 47.4951 48.2314 43.0854 43.938 43.0854 43.938 44.021 43.6697 45.7588 42.3286 45.7588 42.3286L45.7588 7.178C49.7012 4.6958 54.1782 0 54.1782 0L54.1782 21.8508zM49.874 49.8633C49.2471 49.1743 48 47.9543 46.8291 46.8091 46.1226 46.1182 45.4438 45.4543 44.9463 44.9507 44.4209 44.4194 44.0967 44.0662 44.1533 44.0474 44.7383 43.8511 46.4126 42.54 46.4126 42.54L46.4126 7.4573 47.6152 6.6521 47.6826 42.8088C47.7432 43.3464 46.1587 44.2634 46.1587 44.2634L50.8091 48.9241 49.874 49.8633zM61.2466 50.7798C61.2466 50.7798 61.0952 52.9893 57.2471 53.9058 57.2471 53.9058 60.1099 52.3755 60.1099 49.8552L60.1099 49.1484C60.1099 48.7588 60.0996 45.2314 60.0874 41.0676L60.043 26.429C60.043 26.429 60.0244 25.1841 59.0635 24.1611 57.4565 22.449 55.7686 22.5454 54.2012 22.689L55.4995 21.7585C55.4995 21.7585 56.0962 21.7524 56.6899 21.7771 57.1084 21.7944 57.5249 21.8271 57.7295 21.8879 57.7788 21.9028 57.8398 21.9172 57.9092 21.9341L57.9165 21.9355C58.5361 22.0828 59.8672 22.3992 60.7441 24.5083 61.2012 25.6094 61.207 25.8347 61.2231 26.4482L61.2231 26.4622C61.2275 26.6199 61.2329 26.8035 61.2466 27.0334 61.313 28.1736 61.2466 50.7798 61.2466 50.7798zM86.7485 16.5088L92.7998 27.3022C90.0762 28.822 80.3374 35.9846 80.3374 35.9846L80.3374 43.3013 83.6973 46.0637 88.5161 41.6465 88.9277 42.0591 77.8926 52.8286 71.3271 47.5818 71.2568 23.9026C81.1758 20.3821 84.7231 18.2046 86.7485 16.5088zM82.0225 20.2483L87.04 30.251 85.77 31.1025 80.5537 20.9932C80.5537 20.9521 80.9199 20.7871 81.2866 20.6218 81.6543 20.4558 82.0225 20.2896 82.0225 20.2483zM80.2671 22.0093L80.2671 35.2229 85.2041 31.5806 80.2671 22.0093zM71.8086 47.3884L77.8662 52.1228 78.8364 51.1555 72.9263 46.5598 72.9263 23.9333 71.8086 24.3101 71.8086 47.3884zM36.4424 173.494C38.6797 172.193 40.3877 170.647 41.7554 169.157 43.4067 167.362 44.7114 163.751 44.7114 163.751L44.7427 165.027C44.7427 172.043 38.4717 179.001 36.5869 180.434 36.4741 180.521 36.3481 180.62 36.2085 180.731 34.0264 182.458 28.5278 186.811 17.918 184.17 9.20166 182.008 6.44238 177.031 4.83496 174.131L4.74512 173.969C3.30811 171.372.692871 165.202 4.74512 156.436 8.79834 147.668 15.7441 147.524 15.7441 147.524 15.7441 147.524 11.2563 148.963 9.95703 156.436 8.75342 163.333 11.2876 167.094 12.75 169.266 12.8721 169.447 12.9863 169.617 13.0903 169.777 14.3003 171.616 15.1636 172.23 15.1636 172.23 18.4917 172.23 20.0986 169.477 20.0986 169.477L20.0864 150.04 15.5991 151.616 15.5991 151.116C24.7188 147.957 30.2212 144.94 30.2212 144.94 30.2212 144.94 30.3662 160.459 30.2212 164.051 30.0767 167.643 22.8408 171.097 20.2314 171.954 17.6289 172.818 15.4854 172.831 15.4854 172.831 15.4854 172.831 16.4688 173.969 19.0781 175.121 21.6807 176.266 23.8872 176.567 27.8013 176.567 32.0049 176.567 35.5469 173.957 35.5469 173.957L35.5347 144.032C33.2466 144.039 26.3955 143.4 17.4834 140.484 10.0649 138.056 7.12793 138.888 6.00586 139.208 4.92188 139.514 3.69287 140.052 2.55176 141.517 2.03564 142.179 1.32275 143.769 2.28076 145.346 3.23877 146.929 6.19531 148.388 6.19531 148.388 6.16455 148.372 6.0708 148.347 5.92773 148.309 4.71973 147.984 0 146.714 0 142.518 0 136.855 3.03125 135.141 5.75977 133.732 8.78564 132.161 14.061 130.766 20.5083 132.411L20.7051 132.462C25.6621 133.731 37.2017 136.686 39.7769 136.748 44.5288 136.855 43.8286 134.852 43.8286 134.852 43.6777 133.745 41.4907 132.937 39.8584 132.806 37.3809 132.612 34.0654 133.525 34.0654 133.525L34.9858 132.474C38.894 128.594 43.2495 131.285 44.2642 133.732 45.272 136.172 44.2515 138.744 42.959 140.196 40.3306 143.144 36.4424 143.863 36.4424 143.863L36.4424 173.494zM21.6748 141.179C23.8687 141.773 28.2427 142.874 33.6436 143.325 37.1797 143.626 38.3335 142.568 38.3335 142.568 38.3335 142.568 35.4272 142.593 32.8745 142.149L32.5522 142.093C30.3979 141.72 26.0796 140.972 23.3193 140.122 21.6558 139.608 17.666 138.406 15.5801 137.963 13.5884 137.531 10.8848 137.074 9.55518 137.38 8.28125 137.674 6.50439 138.576 6.50439 138.576 9.42822 137.787 12.6929 138.626 12.6929 138.626 15.4834 139.194 17.6323 139.896 19.3926 140.471L19.4072 140.475C20.2417 140.748 20.9883 140.992 21.6748 141.179zM3.22656 166.053C3.65576 172.755 7.10938 178.406 12.6304 181.573 18.1265 184.477 27.02 185.859 32.7612 182.236 20.2007 186.961 5.0415 177.411 3.22656 164.244L3.22656 166.053zM19.5063 171.185C19.5063 171.185 20.6099 170.015 20.6099 169.608L20.6099 151.142 20.6099 149.84 22.0532 149.321 22.0532 169.151C22.0532 169.151 22.2734 169.683 20.3892 170.834 18.5107 171.98 19.5063 171.185 19.5063 171.185zM60.2138 82.5447C62.5658 85.519 69.1508 88.5627 69.1508 88.5627L69.1508 109.111 72.9135 112.224C70.3563 113.627 68.1352 117.307 67.4701 118.41 67.3485 118.611 67.2787 118.727 67.2685 118.727 66.3935 118.727 60.6171 113.537 60.6171 113.537L60.6171 110.148C57.8622 110.979 51.8144 118.865 51.8144 118.865 51.8144 118.865 50.538 117.55 47.246 113.261 43.953 108.972 44.3563 105.789 45.9027 101.915 47.4477 98.041 53.0253 97.626 53.0253 97.626 51.6801 96.38 46.8354 89.9802 45.6913 87.9419 44.9296 86.5837 44.8739 85.1917 46.0199 84.2043 47.2938 83.1062 49.037 83.4766 49.9257 84.2639 50.5658 84.9524 50.9623 85.7727 50.6562 86.8887 50.331 88.0698 48.9862 88.5356 48.9862 88.5356 50.6562 88.9058 52.2851 89.0476 53.8979 88.1484 55.5102 87.2485 60.2138 82.5447 60.2138 82.5447zM61.1889 113.159C61.1889 113.159 65.5878 117.16 67.0243 118.073L67.1767 117.796C67.2494 117.664 67.3388 117.502 67.4242 117.35 67.5595 117.111 67.683 116.897 67.7118 116.868 67.5155 116.776 62.4838 112.757 62.4174 112.486L62.4174 92.977C62.4174 92.977 58.2055 90.873 55.8178 87.5859L54.9062 88.2769C54.9062 88.2769 56.81 91.384 61.2763 93.461L61.1889 113.159zM56.3168 112.078C56.3168 112.009 59.8778 109.379 60.5497 109.241 60.5497 109.241 60.7514 93.821 60.684 93.821 60.6171 93.821 56.6503 91.9358 54.3837 88.7048 54.3837 88.7048 51.5946 90.7432 47.5966 88.7019 47.8993 90.1821 48.1522 90.4797 54.6718 98.138 55.3847 98.976 56.1728 99.902 57.0438 100.927 57.0438 100.927 56.7719 101.148 56.5805 101.284 56.5082 101.336 56.4472 101.376 56.4169 101.387 56.4091 101.39 56.4032 101.391 56.3998 101.389 56.3979 101.388 56.3969 101.386 56.3969 101.384 56.3969 101.314 54.3114 98.702 52.7606 98.651 50.3681 98.572 49.9394 100.922 50.2294 102.568 50.4984 104.09 51.3446 107.028 56.3168 112.078zM51.7567 117.746C46.2572 111.593 46.497 111.058 46.497 111.058 50.0399 114.758 53.0331 116.293 53.0331 116.293L51.7567 117.746z"/>
    <path fill="#B6C1C2" d="M40.875 70.4746C38.3394 73.0148 33.9126 77.9194 29.8662 84.0847 29.8662 84.0847 49.2129 84.9289 43.7808 102.937 43.7808 102.937 42.8086 93.803 33.8481 92.527 33.5786 92.488 33.2861 92.45 32.9854 92.412 32.9541 92.798 32.8496 94.008 32.7617 94.361 37.1655 95.626 42.1489 98.237 42.5044 103.6 42.6685 106.062 41.3237 107.764 41.3237 107.764 41.3931 107.831 33.8921 116.025 31.9482 118.107 31.9482 118.107 27.1953 114.048 23.4902 111.728 23.4902 111.728 19.0469 115.742 13.7964 118.009-2.82275 125.185-1.54003 115.097 2.84082 110.874 5.57764 108.237 10.8589 103.386 19.4307 103.466 19.4307 103.466 20.8691 103.472 23.1064 103.957 26.2505 104.641 28.0264 105.444 28.0264 105.444 28.0264 105.444 28.8936 104.19 29.3931 103.225 29.8926 102.26 30.4439 101.006 30.4439 101.006 30.4439 101.006 24.9248 101.076 19.2861 99.71 19.2861 99.71 16.2876 103.378 12.2105 103.732 12.2105 103.732 10.2036 104.055 9.01221 102.496 8.13721 101.352 8.39356 98.913 11.3911 98.717 13.1992 98.599 14.1567 99.997 14.2686 100.797 14.5015 102.455 13.3564 102.912 13.3564 102.912 13.3564 102.912 14.1123 102.776 15.1084 102.234 16.6787 101.379 18.105 100.106 18.6045 99.556 18.6045 99.556 5.62403 97.057 5.62403 85.3991L5.69288 83.9216 6.04102 84.7946C6.04102 84.7946 7.55518 91.5153 23.356 92.997 23.54 92.721 24.0679 91.9013 24.2896 91.5566L24.3755 91.4238C17.1948 90.4716 9.0962 88.7399 6.76026 84.4006 2.98829 77.3908 9.0879 71.9357 10.0996 71.0317 10.2031 70.9389 10.2534 70.894 10.2339 70.9001 10.0254 70.9677 16.9702 65.5942 26.6939 66.0651 35.2388 66.4777 38.5518 69.3498 39.5591 70.2229 39.6982 70.3435 39.7935 70.426 39.8525 70.4587L39.8955 70.4838 40.3389 70.0554C42.8398 67.57 43.5059 67.0864 43.5059 67.0864 43.5059 67.0864 43.6577 67.2416 43.7842 67.3842 43.8745 67.4858 43.9517 67.5812 43.9517 67.6093 43.9517 67.6093 42.8452 68.5017 40.875 70.4746zM35.3726 75.3947L35.4814 75.4692 33.8716 77.4543C33.8716 77.4543 31.4824 75.6059 25.8145 72.5776 21.6782 70.3684 18.4468 69.6249 15.9277 69.6315 15.9277 69.6315 23.4023 67.2646 35.3726 75.3947zM33.4595 77.9999C33.4595 77.9999 23.9531 71.6733 18.6377 70.6413 11.6514 69.2854 8.31495 73.1459 9.2876 76.9069 10.2593 80.6674 14.2627 82.1936 21.208 83.0661 28.1533 83.9389 29.0322 84.0446 29.0322 84.0446 29.0322 84.0446 31.2612 80.8029 33.4595 77.9999zM25.2949 90.8581C18.002 89.9851 12.0371 87.8945 10.5913 87.0214 10.562 87.0034 9.65577 86.5695 8.75 85.6547 7.91211 84.8083 7.60059 84.1691 7.60059 84.1691 7.60059 84.1691 8.70655 85.863 15.9424 87.8234 20.6934 89.111 24.5523 89.6147 31.1504 90.2858 37.7495 90.9577 38.6274 93.488 38.6274 93.488 36.7988 92.177 33.7217 91.8256 28.3721 91.2153L28.2871 91.2058C27.3589 91.0998 26.3638 90.986 25.2949 90.8581zM37.7305 102.779C34.4844 100.581 33.7671 100.537 27.2329 100.131 26.6133 100.092 25.9409 100.05 25.209 100.003 15.9775 99.408 12.1777 95.92 12.1777 95.92L11.9702 95.786C20.0498 98.031 21.1465 98.127 26.4204 98.587L26.5068 98.594 27.6265 98.693 28.1616 98.741C34.9985 99.355 37.7305 102.779 37.7305 102.779zM37.2983 110.83C37.2983 110.83 40.9487 107.691 39.3355 105.557 38.3486 104.25 35.9795 101.334 31.1187 101.065 31.1187 101.065 30.1548 103.428 28.6748 105.699 28.6748 105.699 31.6553 106.48 37.2983 110.83zM28.5952 114.533C27.7275 113.909 26.8447 113.287 26.0396 112.721 25.0527 112.026 24.1831 111.413 23.6011 110.98 16.6309 105.789 11.7803 106.792 10.9253 107.028 19.4487 104.128 31.0913 114.167 32.7275 115.579 32.855 115.689 32.9219 115.746 32.9219 115.741L31.8096 116.95C30.9189 116.227 29.771 115.378 28.5952 114.533zM3.13672 111.334C-1.11035 115.88-1.52783 124.041 13.3916 117.53 19.769 114.746 22.9092 111.334 22.9092 111.334 22.9092 111.334 22.6489 111.125 22.1514 110.773 21.6621 110.426 20.9439 109.941 20.019 109.378 18.9717 108.741 15.6738 107.063 12.8267 107.264 9.97852 107.466 5.80909 108.473 3.13672 111.334zM25.1436 91.5234C26.2402 91.6621 27.3086 91.7839 28.3252 91.8952 29.7954 92.056 31.1563 92.196 32.3345 92.334 32.2808 92.849 32.1685 93.738 32.1113 94.183 28.7988 93.314 25.9746 93.191 25.9746 93.191 25.3389 93.158 24.728 93.116 24.1318 93.068 24.2573 92.883 24.5054 92.514 24.7324 92.169 24.8154 92.042 24.8955 91.9194 24.9658 91.8095 25.0381 91.6965 25.1001 91.5974 25.1436 91.5234zM84.4585 108.886C84.4585 108.886 85.5596 109.55 86.0981 109.923 86.2925 110.057 87.2646 108.781 87.2646 108.781L87.8286 109.289C87.8286 109.289 82.8384 115.4 81.8662 117.214 81.8662 117.214 76.4233 113.655 76.2285 113.049L76.2285 72.5502C76.2285 72.4836 78.0112 72.5844 84.3291 66.036 84.4204 65.9403 84.4585 108.886 84.4585 108.886zM76.9756 112.693C77.8003 113.616 81.6816 116.214 81.6816 116.214L82.3291 115.273C81.6162 114.938 78.0776 111.955 78.0776 111.955L78.0776 72.5639 76.9756 73.0973 76.9756 73.9411C76.9756 73.9411 76.7188 112.406 76.9756 112.693zM91.8433 75.3557C97.916 72.1775 100.318 69.3376 100.318 69.3376L100.318 83.0652 106.057 83.0652C105.991 83.0652 102.521 87.3247 102.521 87.3247L100.385 87.3247 100.385 108.017 103.522 110.452C102.587 110.655 97.583 117.214 97.583 117.214 94.4463 115.389 91.7759 112.142 91.7759 112.142L91.7759 87.2581 86.1714 87.2581 88.7734 83.0652 91.8433 83.0652 91.8433 75.3557zM92.3794 112.015C92.3794 112.082 96.0024 115.456 97.4033 116.471 97.4033 116.471 98.2041 115.456 98.1372 115.456 98.0703 115.456 93.7139 111.88 93.5811 111.339L93.5811 75.1052 92.3794 75.781 92.3794 112.015zM59.5342 147.517C63.4448 150.65 66.1396 145.843 66.1396 145.843 67.6885 158.665 56.3643 155.323 56.3643 155.323 56.3643 155.323 56.4321 172.548 56.3643 172.548 57.1108 173.019 59.3989 175.419 59.3989 175.419 58.1753 176.027 54.084 180.629 53.2725 181.542L53.1328 181.698C51.5781 179.628 45.6455 174.418 45.6455 174.418 46.9282 173.288 47.4023 172.286 47.4023 172.286L47.4023 155.39C46.7246 154.126 43.0854 151.524 43.0854 151.524 45.0273 150.081 47.3179 147.49 48.4746 146.181 48.9233 145.673 49.2017 145.359 49.2227 145.379 49.6406 145.815 51.9893 147.783 53.8271 149.324 55.0825 150.376 56.0996 151.228 56.0996 151.255 57.5796 151.652 59.5342 147.517 59.5342 147.517zM53.0889 180.819C50.3755 177.582 46.6255 174.448 46.6255 174.448 47.2979 173.776 47.9946 172.842 47.9946 172.842L47.9946 155.013C47.9946 155.013 46.2983 152.93 44.1206 151.481 44.1055 151.481 44.1489 151.44 44.2256 151.375 44.3115 151.303 44.439 151.201 44.5703 151.099 44.8311 150.896 45.1074 150.688 45.1074 150.688 45.9927 151.492 46.8496 152.262 47.5669 152.906 48.7236 153.946 49.5166 154.658 49.4741 154.658 49.417 154.658 49.4678 170.845 49.4736 172.706L49.4741 172.879C49.4741 173.214 48.4937 174.277 48.4937 174.277 48.4937 174.277 50.0986 175.895 51.5854 177.383 52.8521 178.65 54.0327 179.823 54.0635 179.823 54.0942 179.823 53.8838 180.022 53.6504 180.242 53.5708 180.316 53.4888 180.394 53.4126 180.466 53.2241 180.647 53.0723 180.8 53.0889 180.819zM56.291 154.713L56.291 153.186C56.291 153.186 60.5278 154.92 64.6914 152.6 64.6914 152.6 63.291 154.683 60.8545 155.025 58.542 155.348 56.291 154.713 56.291 154.713zM163.721 153.523L163.721 173.206C163.721 173.206 167.698 176.046 167.35 176.114 166.155 176.345 160.861 183.148 160.861 183.216 158.908 180.24 154.688 177.163 154.688 177.163L154.618 177.125 154.722 155.211C154.453 154.651 153.185 153.387 152.113 152.605L149.21 155.652 149.21 172.322 149.28 173.255 151.652 175.984C150.465 176.12 144.187 183.349 144.187 183.349 143.142 182.121 138.537 177.416 138.537 177.416 139.513 176.87 140.142 176.165 140.142 176.165L140.142 157.305C139.024 156.358 136.443 153.923 135.886 153.518L142.443 147.227 149.21 153.247 149.21 154.69C150.198 153.528 156.118 147.029 156.118 147.029 158.489 149.261 163.721 153.523 163.721 153.523zM160.824 182.308C158.625 179.212 155.3 176.919 155.3 176.919L155.3 154.879C155.3 154.879 154.489 153.512 152.501 152.093L153.458 151.061C155.465 152.529 156.696 154.492 156.696 154.492L156.696 176.039C159.561 177.976 161.802 181.091 161.802 181.091L160.824 182.308zM144.101 182.565L140.311 178.453 139.424 177.548C139.927 177.264 140.722 176.527 140.722 176.527L140.722 157.054C138.922 155.393 136.771 153.48 136.771 153.48L137.679 152.6C139.543 154.203 142.117 156.581 142.117 156.581 142.117 156.581 142.187 176.927 142.117 176.927L141.302 177.6 144.938 181.543 144.101 182.565zM178.109 173.822L181.469 176.584 186.288 172.167 186.7 172.58 175.664 183.349 169.099 178.102 169.028 154.423C178.947 150.902 182.495 148.725 184.521 147.029L190.571 157.823C187.848 159.342 178.109 166.505 178.109 166.505L178.109 173.822zM179.794 150.768L184.812 160.771 183.542 161.623 178.325 151.514C178.325 151.475 178.656 151.323 179.003 151.167L179.066 151.138C179.431 150.974 179.794 150.81 179.794 150.768zM182.976 162.101L178.039 152.529 178.039 165.743 182.976 162.101zM169.58 177.909L175.637 182.644 176.608 181.677 170.698 177.08 170.698 154.453 169.58 154.83 169.58 177.909zM78.4961 152.165L78.4961 173.031C79.7798 173.763 81.1992 175.562 81.1992 175.562 80.3237 175.964 75.3286 181.698 75.3286 181.698 74.2485 180.295 69.7305 177.3 69.7305 177.3L69.7305 156.562C69.3896 155.697 66.2852 154.367 66.2852 154.367 66.6924 153.702 71.5508 147.011 71.6187 147.029 75.3286 148.432 78.4961 152.165 78.4961 152.165zM70.3037 176.952C70.3037 176.952 73.6318 179.106 75.3481 180.759L76.2241 179.825C76.2241 179.825 73.4775 177.629 71.52 176.343L71.52 155.892C71.52 155.892 71.2246 154.63 68.0327 153.153L67.3223 154.16C67.3906 154.16 70.3037 155.447 70.3037 156.453L70.3037 176.952zM79.5419 141.473C78.8603 141.361 73.7148 146.93 73.7148 146.93 72.8012 145.628 68.5502 141.961 67.9521 141.657 67.6694 141.511 73.3666 135.374 73.3666 135.374 76.4052 136.523 78.9448 140.531 79.4985 141.404L79.5419 141.473zM72.3652 142.562L69.8505 140.356 68.8725 141.525C68.8725 141.525 71.0595 143.085 73.8051 146.097L74.8212 144.935 72.3652 142.562z"/>
    <path fill="#B6C1C2" fill-rule="nonzero" d="M79.5435,141.977 C79.6039,142.07 79.6462,142.132 79.6462,142.123 C79.6462,142.032 79.6089,141.988 79.5435,141.977"/>
    <path fill="#B6C1C2" d="M91.6357 153.621C93.7271 152.747 97.9028 147.061 97.9028 147.061 99.7896 151.165 106.057 154.125 106.057 154.125L106.057 176.72C95.2568 176.72 91.0107 181.698 91.0107 181.698 87.874 178.068 82.8569 176.517 82.8569 176.517L82.9268 139.062C87.6704 136.84 91.6357 130.52 91.6357 130.52L91.6357 153.621zM90.9912 180.887C88.5757 177.754 83.5708 175.994 83.5708 175.994L83.5708 139.609 84.9668 138.736 84.9668 139.738 84.9668 175.182C89.4365 176.849 92.2354 179.981 92.2354 179.981 91.6099 180.32 90.9912 180.887 90.9912 180.887zM97.6802 177.077L98.8662 176.757 99.0063 158.137 99 157.368C97.1826 155.263 95.0034 154.421 93.0708 153.996L91.7002 154.648C96.1313 155.343 97.6802 157.522 97.6802 157.595L97.6802 177.077zM91.6357 174.068C91.6357 174.068 95.7417 176.352 96.8564 177.293L96.8564 157.947C96.8564 157.947 95.5381 155.996 91.6357 155.528L91.6357 174.068zM133.89 153.549L133.89 173.302C133.89 173.302 137.866 176.153 137.521 176.222 136.322 176.454 131.031 183.28 131.031 183.349 129.078 180.362 124.853 177.173 124.853 177.173L124.853 175.952C123.806 176.36 117.29 183.212 117.29 183.28 113.563 178.452 110.314 177.643 110.314 177.643L110.314 157.344C109.814 156.918 109.022 156.194 108.249 155.487 107.293 154.614 106.367 153.768 106.057 153.543L112.619 147.229 119.384 153.273 119.384 172.972C122.127 173.567 122.313 176.228 122.383 176.16 122.454 176.096 124.892 174.744 124.892 174.744L124.892 156.944C124.574 156.277 122.859 155.033 121.727 154.212 121.125 153.776 120.687 153.459 120.711 153.411 120.774 153.273 126.289 147.029 126.289 147.029 128.664 149.272 133.89 153.549 133.89 153.549zM130.999 182.115C129.11 179.729 125.497 176.923 125.497 176.923L125.497 156.643C124.712 155.491 121.661 153.393 121.661 153.393L122.67 152.353C125.835 154.62 126.888 155.911 126.888 155.911L126.888 176.04C129.562 178.031 131.975 180.894 131.975 180.894L130.999 182.115zM117.329 182.353C114.623 178.607 110.914 177.217 110.914 177.217 110.914 177.217 110.984 157.081 110.914 157.081 110.914 157.081 109.924 156.17 108.927 155.266 108.11 154.526 107.289 153.79 107.001 153.561L107.908 152.679C109.664 154.038 112.305 156.605 112.305 156.605L112.305 176.603C115.381 177.675 118.273 181.326 118.273 181.326L117.329 182.353zM41.7603 38.6369C43.4131 36.8415 44.7148 33.2327 44.7148 33.2327L44.7432 34.5036C44.7432 41.5205 38.4751 48.4778 36.5933 49.9143 36.479 50.0014 36.3516 50.1023 36.21 50.2141 34.022 51.9426 28.5234 56.2868 17.9189 53.6511 9.18848 51.4819 6.43066 46.4949 4.82764 43.5959L4.74561 43.4477C3.30762 40.8513.691895 34.6816 4.74561 25.9153 8.79932 17.1492 15.748 17.0051 15.748 17.0051 15.748 17.0051 11.2598 18.4421 9.95703 25.9153 8.75244 32.8249 11.2944 36.5864 12.7593 38.7544 12.8784 38.9309 12.9907 39.0969 13.0933 39.2532 14.3022 41.0986 15.1621 41.7112 15.1621 41.7112 18.4917 41.7112 20.0981 38.9529 20.0981 38.9529L20.0908 19.5181 15.6025 21.0984 15.6025 20.5986C24.7227 17.4363 30.2241 14.4182 30.2241 14.4182 30.2241 14.4182 30.3687 29.9394 30.2241 33.5317 30.0796 37.1247 22.8403 40.5737 20.2358 41.4358 17.6289 42.2978 15.4897 42.3105 15.4897 42.3105 15.4897 42.3105 16.4712 43.4477 19.0771 44.5976 21.6826 45.7463 23.8916 46.0478 27.8032 46.0478 32.0088 46.0478 35.5513 43.4353 35.5513 43.4353L35.5386 13.5119C33.25 13.5178 26.4009 12.8779 17.4849 9.9639 10.0635 7.5386 7.12744 8.3713 6.00488 8.6897 4.92236 8.9966 3.69434 9.5327 2.55176 10.9961 2.03467 11.6582 1.32275 13.2493 2.2793 14.8271 3.2373 16.4094 6.19336 17.8679 6.19336 17.8679 6.1626 17.8528 6.06885 17.8276 5.92578 17.789 4.71924 17.4646.000488281 16.1953.000488281 11.9966.000488281 6.3362 3.02881 4.6221 5.75879 3.2102 8.78955 1.64281 14.0645.24461 20.5093 1.89476 25.3511 3.1343 37.1733 6.1665 39.7778 6.2268 44.5352 6.3374 43.8359 4.3313 43.8359 4.3313 43.6807 3.2263 41.4912 2.416 39.8594 2.2876 37.3823 2.0925 34.0698 3.0078 34.0698 3.0078L34.9888 1.95335C38.8975-1.92677 43.2524.76634 44.2656 3.2102 45.2783 5.6526 44.2554 8.2283 42.9629 9.6765 40.3325 12.623 36.4487 13.3423 36.4487 13.3423L36.4487 42.9726C38.6802 41.6723 40.3896 40.1284 41.7603 38.6369zM21.6753 10.6579C23.873 11.2532 28.2437 12.3542 33.647 12.8086 37.1821 13.1052 38.335 12.0473 38.335 12.0473 38.335 12.0473 35.4312 12.0766 32.8799 11.6318L32.52 11.5691 32.5127 11.5676C30.3438 11.1904 26.0615 10.4451 23.3193 9.6025 21.6572 9.0913 17.6641 7.8884 15.5835 7.4411 13.5908 7.0124 10.8862 6.5547 9.55469 6.862 8.28418 7.1553 6.50439 8.0532 6.50439 8.0532 9.42871 7.2656 12.6919 8.1052 12.6919 8.1052 15.4717 8.6689 17.6128 9.3689 19.3672 9.9426 20.2178 10.2207 20.9775 10.4692 21.6753 10.6579zM3.2251 35.5339C3.65234 42.2327 7.10742 47.8872 12.6294 51.0539 18.127 53.9531 27.0195 55.3352 32.7637 51.7141 20.1982 56.4404 5.04248 46.8931 3.2251 33.7243L3.2251 35.5339zM19.5054 40.665C19.5054 40.665 20.6084 39.4936 20.6084 39.0876L20.6084 20.6184 20.6084 19.323 22.0557 18.7993 22.0557 38.6311C22.0557 38.6311 22.2729 39.1623 20.3916 40.3122 20.1367 40.4678 19.9351 40.5876 19.7764 40.6787 19.5425 40.8127 19.4019 40.8845 19.3242 40.9153 19.0645 41.0181 19.5054 40.665 19.5054 40.665z"/>
    <path fill="#9EA8AA" fill-rule="nonzero" d="M301.257 7.8472L291.457 7.8472 291.457 34.5 284.865 34.5 284.865 7.8472 275.197 7.8472 275.197 2.5078 301.257 2.5078 301.257 7.8472zM330.7 19.229C330.7 22.3784 330.144 25.1396 329.03 27.5127 327.917 29.8857 326.32 31.7168 324.24 33.0059 322.175 34.2949 319.802 34.9395 317.121 34.9395 314.47 34.9395 312.104 34.3022 310.024 33.0278 307.944 31.7534 306.333 29.937 305.19 27.5786 304.047 25.2056 303.469 22.481 303.454 19.4048L303.454 17.8228C303.454 14.6733 304.018 11.9048 305.146 9.5171 306.289 7.1147 307.893 5.2764 309.958 4.002 312.038 2.7129 314.411 2.0684 317.077 2.0684 319.743 2.0684 322.109 2.7129 324.174 4.002 326.254 5.2764 327.858 7.1147 328.986 9.5171 330.129 11.9048 330.7 14.666 330.7 17.8008L330.7 19.229zM324.021 17.7788C324.021 14.4243 323.42 11.8755 322.219 10.1323 321.018 8.3892 319.304 7.5176 317.077 7.5176 314.865 7.5176 313.159 8.3818 311.958 10.1104 310.756 11.8242 310.148 14.3438 310.134 17.6689L310.134 19.229C310.134 22.4956 310.734 25.0298 311.936 26.8315 313.137 28.6333 314.865 29.5342 317.121 29.5342 319.333 29.5342 321.032 28.6699 322.219 26.9414 323.405 25.1982 324.006 22.6641 324.021 19.3389L324.021 17.7788zM342.082 23.228L342.082 34.5 335.49 34.5 335.49 2.5078 347.971 2.5078C350.373 2.5078 352.482 2.9473 354.299 3.8262 356.13 4.7051 357.536 5.9575 358.518 7.5835 359.499 9.1948 359.99 11.0332 359.99 13.0986 359.99 16.2334 358.913 18.709 356.76 20.5254 354.621 22.3271 351.655 23.228 347.861 23.228L342.082 23.228zM342.082 17.8887L347.971 17.8887C349.714 17.8887 351.04 17.4785 351.948 16.6582 352.871 15.8379 353.332 14.666 353.332 13.1426 353.332 11.5752 352.871 10.3081 351.948 9.3413 351.025 8.3745 349.75 7.8765 348.125 7.8472L342.082 7.8472 342.082 17.8887zM285.146 55.2246L285.529 57.8496 286.09 55.4844 290.027 41.5938 292.242 41.5938 296.084 55.4844 296.631 57.8906 297.055 55.2109 300.145 41.5938 302.783 41.5938 297.957 61.5 295.564 61.5 291.463 46.9941 291.148 45.4766 290.834 46.9941 286.582 61.5 284.189 61.5 279.377 41.5938 282.002 41.5938 285.146 55.2246zM321.021 52.1895C321.021 54.14 320.693 55.8444 320.037 57.3027 319.381 58.752 318.451 59.8594 317.248 60.625 316.045 61.3906 314.641 61.7734 313.037 61.7734 311.469 61.7734 310.079 61.3906 308.867 60.625 307.655 59.8503 306.712 58.752 306.037 57.3301 305.372 55.8991 305.03 54.2448 305.012 52.3672L305.012 50.9316C305.012 49.0176 305.344 47.3268 306.01 45.8594 306.675 44.3919 307.614 43.2708 308.826 42.4961 310.048 41.7122 311.442 41.3203 313.01 41.3203 314.605 41.3203 316.008 41.7077 317.221 42.4824 318.442 43.248 319.381 44.3646 320.037 45.832 320.693 47.2904 321.021 48.9902 321.021 50.9316L321.021 52.1895zM318.41 50.9043C318.41 48.5436 317.936 46.7344 316.988 45.4766 316.04 44.2096 314.714 43.5762 313.01 43.5762 311.351 43.5762 310.043 44.2096 309.086 45.4766 308.138 46.7344 307.65 48.4844 307.623 50.7266L307.623 52.1895C307.623 54.4772 308.102 56.2773 309.059 57.5898 310.025 58.8932 311.351 59.5449 313.037 59.5449 314.732 59.5449 316.045 58.9297 316.975 57.6992 317.904 56.4596 318.383 54.6868 318.41 52.3809L318.41 50.9043zM332.26 53.4473L327.584 53.4473 327.584 61.5 324.945 61.5 324.945 41.5938 331.535 41.5938C333.777 41.5938 335.5 42.1042 336.703 43.125 337.915 44.1458 338.521 45.6315 338.521 47.582 338.521 48.8216 338.184 49.9017 337.51 50.8223 336.844 51.7428 335.915 52.431 334.721 52.8867L339.396 61.3359 339.396 61.5 336.58 61.5 332.26 53.4473zM327.584 51.3008L331.617 51.3008C332.921 51.3008 333.955 50.9635 334.721 50.2891 335.495 49.6146 335.883 48.7122 335.883 47.582 335.883 46.3516 335.514 45.4082 334.775 44.752 334.046 44.0957 332.989 43.763 331.604 43.7539L327.584 43.7539 327.584 51.3008zM347.271 52.2441L344.838 54.7734 344.838 61.5 342.213 61.5 342.213 41.5938 344.838 41.5938 344.838 51.4375 353.684 41.5938 356.855 41.5938 349.021 50.3848 357.471 61.5 354.326 61.5 347.271 52.2441zM281.853 77.377L281.853 83.5 279.79 83.5 279.79 67.8594 285.559 67.8594C287.27 67.8594 288.609 68.2962 289.576 69.1699 290.55 70.0436 291.037 71.2002 291.037 72.6396 291.037 74.1579 290.561 75.3288 289.608 76.1523 288.663 76.9688 287.306 77.377 285.537 77.377L281.853 77.377zM281.853 75.6904L285.559 75.6904C286.661 75.6904 287.507 75.4326 288.094 74.917 288.681 74.3942 288.975 73.6423 288.975 72.6611 288.975 71.7301 288.681 70.9854 288.094 70.4268 287.507 69.8682 286.701 69.5781 285.677 69.5566L281.853 69.5566 281.853 75.6904zM295.742 81.8135L303.154 81.8135 303.154 83.5 293.669 83.5 293.669 67.8594 295.742 67.8594 295.742 81.8135zM314.358 79.418L307.806 79.418 306.334 83.5 304.207 83.5 310.18 67.8594 311.984 67.8594 317.968 83.5 315.852 83.5 314.358 79.418zM308.429 77.7207L313.746 77.7207 311.082 70.4053 308.429 77.7207zM331.449 78.5371C331.256 80.1914 330.644 81.4697 329.612 82.3721 328.588 83.2673 327.224 83.7148 325.52 83.7148 323.672 83.7148 322.189 83.0524 321.072 81.7275 319.962 80.4027 319.407 78.6302 319.407 76.4102L319.407 74.9062C319.407 73.4525 319.665 72.1742 320.181 71.0713 320.703 69.9684 321.441 69.1234 322.394 68.5361 323.346 67.9417 324.449 67.6445 325.702 67.6445 327.364 67.6445 328.696 68.11 329.698 69.041 330.701 69.9648 331.285 71.2467 331.449 72.8867L329.376 72.8867C329.197 71.6406 328.807 70.7383 328.205 70.1797 327.611 69.6211 326.776 69.3418 325.702 69.3418 324.384 69.3418 323.35 69.8288 322.598 70.8027 321.853 71.7767 321.48 73.1624 321.48 74.96L321.48 76.4746C321.48 78.1719 321.835 79.5218 322.544 80.5244 323.253 81.527 324.245 82.0283 325.52 82.0283 326.665 82.0283 327.543 81.7705 328.151 81.2549 328.767 80.7321 329.175 79.8262 329.376 78.5371L331.449 78.5371zM343.115 76.2705L336.337 76.2705 336.337 81.8135 344.211 81.8135 344.211 83.5 334.274 83.5 334.274 67.8594 344.104 67.8594 344.104 69.5566 336.337 69.5566 336.337 74.584 343.115 74.584 343.115 76.2705zM351.387 76.5283C349.618 76.0199 348.329 75.3968 347.52 74.6592 346.717 73.9144 346.316 72.9977 346.316 71.9092 346.316 70.6774 346.807 69.6605 347.788 68.8584 348.776 68.0492 350.058 67.6445 351.634 67.6445 352.708 67.6445 353.664 67.8522 354.502 68.2676 355.347 68.6829 355.999 69.2559 356.457 69.9863 356.923 70.7168 357.155 71.5153 357.155 72.3818L355.082 72.3818C355.082 71.4365 354.781 70.6953 354.18 70.1582 353.578 69.6139 352.729 69.3418 351.634 69.3418 350.617 69.3418 349.822 69.5674 349.249 70.0186 348.683 70.4626 348.4 71.082 348.4 71.877 348.4 72.5143 348.669 73.055 349.206 73.499 349.75 73.9359 350.671 74.3369 351.967 74.7021 353.27 75.0674 354.287 75.472 355.018 75.916 355.755 76.3529 356.299 76.8649 356.65 77.4521 357.008 78.0394 357.188 78.7305 357.188 79.5254 357.188 80.793 356.693 81.8099 355.705 82.5762 354.717 83.3353 353.396 83.7148 351.741 83.7148 350.667 83.7148 349.664 83.5107 348.733 83.1025 347.802 82.6872 347.083 82.1214 346.574 81.4053 346.073 80.6891 345.822 79.8763 345.822 78.9668L347.896 78.9668C347.896 79.9121 348.243 80.6605 348.938 81.2119 349.639 81.7562 350.574 82.0283 351.741 82.0283 352.83 82.0283 353.664 81.8063 354.244 81.3623 354.824 80.9183 355.114 80.3132 355.114 79.5469 355.114 78.7806 354.846 78.1898 354.309 77.7744 353.771 77.3519 352.798 76.9365 351.387 76.5283zM297.052 119L279.997 119 279.997 115.616 288.046 107.037C289.151 105.829 289.966 104.776 290.49 103.875 291.025 102.975 291.293 102.121 291.293 101.312 291.293 100.207 291.014 99.341 290.456 98.714 289.897 98.076 289.1 97.757 288.063 97.757 286.946 97.757 286.063 98.145 285.414 98.919 284.776 99.683 284.457 100.691 284.457 101.944L279.501 101.944C279.501 100.429 279.86 99.045 280.578 97.792 281.307 96.538 282.332 95.558 283.654 94.852 284.975 94.134 286.474 93.775 288.148 93.775 290.712 93.775 292.7 94.391 294.113 95.621 295.537 96.852 296.249 98.589 296.249 100.833 296.249 102.064 295.93 103.317 295.292 104.593 294.654 105.869 293.56 107.356 292.011 109.054L286.354 115.018 297.052 115.018 297.052 119zM316.842 108.712C316.842 112.153 316.13 114.785 314.706 116.607 313.282 118.43 311.197 119.342 308.451 119.342 305.74 119.342 303.666 118.447 302.23 116.659 300.795 114.87 300.06 112.306 300.026 108.968L300.026 104.388C300.026 100.913 300.744 98.276 302.179 96.476 303.626 94.675 305.705 93.775 308.417 93.775 311.129 93.775 313.202 94.67 314.638 96.458 316.073 98.236 316.808 100.794 316.842 104.132L316.842 108.712zM311.903 103.688C311.903 101.625 311.618 100.127 311.049 99.193 310.491 98.247 309.613 97.774 308.417 97.774 307.255 97.774 306.395 98.224 305.836 99.125 305.29 100.013 304.999 101.409 304.965 103.312L304.965 109.361C304.965 111.389 305.238 112.899 305.785 113.89 306.343 114.87 307.232 115.36 308.451 115.36 309.659 115.36 310.53 114.887 311.066 113.941 311.601 112.996 311.881 111.549 311.903 109.601L311.903 103.688zM332.189 119L327.25 119 327.25 99.962 321.354 101.791 321.354 97.774 331.659 94.083 332.189 94.083 332.189 119zM353.688 93.861L353.688 97.928 353.209 97.928C350.976 97.962 349.176 98.543 347.809 99.671 346.453 100.799 345.639 102.366 345.365 104.371 346.687 103.027 348.356 102.354 350.373 102.354 352.537 102.354 354.258 103.129 355.534 104.679 356.81 106.228 357.448 108.268 357.448 110.797 357.448 112.415 357.095 113.879 356.388 115.189 355.693 116.499 354.702 117.519 353.415 118.248 352.139 118.977 350.692 119.342 349.074 119.342 346.453 119.342 344.334 118.43 342.716 116.607 341.11 114.785 340.307 112.352 340.307 109.31L340.307 107.533C340.307 104.833 340.814 102.451 341.828 100.389 342.853 98.316 344.317 96.715 346.22 95.587 348.134 94.448 350.35 93.872 352.868 93.861L353.688 93.861zM348.869 106.319C348.071 106.319 347.348 106.53 346.698 106.952 346.049 107.362 345.57 107.909 345.263 108.592L345.263 110.096C345.263 111.748 345.587 113.041 346.237 113.976 346.886 114.898 347.798 115.36 348.971 115.36 350.031 115.36 350.885 114.944 351.535 114.112 352.195 113.269 352.526 112.181 352.526 110.848 352.526 109.492 352.195 108.399 351.535 107.567 350.874 106.735 349.985 106.319 348.869 106.319zM297.052 151L279.997 151 279.997 147.616 288.046 139.037C289.151 137.829 289.966 136.776 290.49 135.875 291.025 134.975 291.293 134.121 291.293 133.312 291.293 132.207 291.014 131.341 290.456 130.714 289.897 130.076 289.1 129.757 288.063 129.757 286.946 129.757 286.063 130.145 285.414 130.919 284.776 131.683 284.457 132.691 284.457 133.944L279.501 133.944C279.501 132.429 279.86 131.045 280.578 129.792 281.307 128.538 282.332 127.558 283.654 126.852 284.975 126.134 286.474 125.775 288.148 125.775 290.712 125.775 292.7 126.391 294.113 127.621 295.537 128.852 296.249 130.589 296.249 132.833 296.249 134.064 295.93 135.317 295.292 136.593 294.654 137.869 293.56 139.356 292.011 141.054L286.354 147.018 297.052 147.018 297.052 151zM316.842 140.712C316.842 144.153 316.13 146.785 314.706 148.607 313.282 150.43 311.197 151.342 308.451 151.342 305.74 151.342 303.666 150.447 302.23 148.659 300.795 146.87 300.06 144.306 300.026 140.968L300.026 136.388C300.026 132.913 300.744 130.276 302.179 128.476 303.626 126.675 305.705 125.775 308.417 125.775 311.129 125.775 313.202 126.67 314.638 128.458 316.073 130.236 316.808 132.794 316.842 136.132L316.842 140.712zM311.903 135.688C311.903 133.625 311.618 132.127 311.049 131.193 310.491 130.247 309.613 129.774 308.417 129.774 307.255 129.774 306.395 130.224 305.836 131.125 305.29 132.013 304.999 133.409 304.965 135.312L304.965 141.361C304.965 143.389 305.238 144.899 305.785 145.89 306.343 146.87 307.232 147.36 308.451 147.36 309.659 147.36 310.53 146.887 311.066 145.941 311.601 144.996 311.881 143.549 311.903 141.601L311.903 135.688zM332.189 151L327.25 151 327.25 131.962 321.354 133.791 321.354 129.774 331.659 126.083 332.189 126.083 332.189 151zM357.208 128.886L347.587 151 342.375 151 352.013 130.116 339.64 130.116 339.64 126.117 357.208 126.117 357.208 128.886zM297.052 183L279.997 183 279.997 179.616 288.046 171.037C289.151 169.829 289.966 168.776 290.49 167.875 291.025 166.975 291.293 166.121 291.293 165.312 291.293 164.207 291.014 163.341 290.456 162.714 289.897 162.076 289.1 161.757 288.063 161.757 286.946 161.757 286.063 162.145 285.414 162.919 284.776 163.683 284.457 164.691 284.457 165.944L279.501 165.944C279.501 164.429 279.86 163.045 280.578 161.792 281.307 160.538 282.332 159.558 283.654 158.852 284.975 158.134 286.474 157.775 288.148 157.775 290.712 157.775 292.7 158.391 294.113 159.621 295.537 160.852 296.249 162.589 296.249 164.833 296.249 166.064 295.93 167.317 295.292 168.593 294.654 169.869 293.56 171.356 292.011 173.054L286.354 179.018 297.052 179.018 297.052 183zM316.842 172.712C316.842 176.153 316.13 178.785 314.706 180.607 313.282 182.43 311.197 183.342 308.451 183.342 305.74 183.342 303.666 182.447 302.23 180.659 300.795 178.87 300.06 176.306 300.026 172.968L300.026 168.388C300.026 164.913 300.744 162.276 302.179 160.476 303.626 158.675 305.705 157.775 308.417 157.775 311.129 157.775 313.202 158.67 314.638 160.458 316.073 162.236 316.808 164.794 316.842 168.132L316.842 172.712zM311.903 167.688C311.903 165.625 311.618 164.127 311.049 163.193 310.491 162.247 309.613 161.774 308.417 161.774 307.255 161.774 306.395 162.224 305.836 163.125 305.29 164.013 304.999 165.409 304.965 167.312L304.965 173.361C304.965 175.389 305.238 176.899 305.785 177.89 306.343 178.87 307.232 179.36 308.451 179.36 309.659 179.36 310.53 178.887 311.066 177.941 311.601 176.996 311.881 175.549 311.903 173.601L311.903 167.688zM332.189 183L327.25 183 327.25 163.962 321.354 165.791 321.354 161.774 331.659 158.083 332.189 158.083 332.189 183zM356.508 164.731C356.508 165.939 356.206 167.01 355.602 167.944 354.998 168.878 354.167 169.624 353.107 170.183 354.315 170.764 355.272 171.567 355.978 172.592 356.684 173.606 357.038 174.803 357.038 176.181 357.038 178.391 356.286 180.14 354.782 181.428 353.278 182.704 351.233 183.342 348.646 183.342 346.06 183.342 344.009 182.698 342.494 181.411 340.979 180.123 340.221 178.38 340.221 176.181 340.221 174.803 340.574 173.601 341.281 172.575 341.987 171.55 342.938 170.752 344.135 170.183 343.075 169.624 342.243 168.878 341.64 167.944 341.047 167.01 340.751 165.939 340.751 164.731 340.751 162.612 341.457 160.926 342.87 159.672 344.283 158.408 346.203 157.775 348.629 157.775 351.045 157.775 352.959 158.402 354.372 159.655 355.796 160.897 356.508 162.589 356.508 164.731zM352.082 175.822C352.082 174.74 351.768 173.874 351.142 173.225 350.515 172.575 349.672 172.25 348.612 172.25 347.564 172.25 346.727 172.575 346.1 173.225 345.473 173.863 345.16 174.729 345.16 175.822 345.16 176.882 345.468 177.736 346.083 178.386 346.698 179.035 347.553 179.36 348.646 179.36 349.717 179.36 350.555 179.047 351.159 178.42 351.774 177.793 352.082 176.927 352.082 175.822zM351.569 164.97C351.569 164.002 351.312 163.227 350.8 162.646 350.287 162.054 349.564 161.757 348.629 161.757 347.707 161.757 346.989 162.042 346.476 162.612 345.963 163.181 345.707 163.968 345.707 164.97 345.707 165.961 345.963 166.759 346.476 167.363 346.989 167.967 347.712 168.269 348.646 168.269 349.581 168.269 350.299 167.967 350.8 167.363 351.312 166.759 351.569 165.961 351.569 164.97z"/>
    <path stroke="#B6C1C2" stroke-linecap="square" d="M278.466,89.5 L358.799,89.5"/>
  </g>
</svg>
