<?xml version="1.0" encoding="UTF-8"?>
<svg width="264px" height="153px" viewBox="0 0 264 153" version="1.1" xmlns="http://www.w3.org/2000/svg" xmlns:xlink="http://www.w3.org/1999/xlink">
    <!-- Generator: Sketch 50.2 (55047) - http://www.bohemiancoding.com/sketch -->
    <title>workplace</title>
    <desc>Created with Sketch.</desc>
    <defs></defs>
    <g id="Page-1" stroke="none" stroke-width="1" fill="none" fill-rule="evenodd">
        <g id="JOBS" transform="translate(-970.000000, -2670.000000)">
            <g id="workplace" transform="translate(970.000000, 2670.000000)">
                <path d="M112.228023,76.1189389 C111.303869,75.5310511 108.477158,72.9521315 108.477158,72.9521315 L108.536307,60.253366 C105.665517,58.9148506 104.441476,56.9113602 104.441476,56.9113602 L105.02995,56.4663564 C106.561791,58.5843097 109.266814,59.9391769 109.266814,59.9391769 L109.266814,72.5153036 C109.31014,72.6947846 112.674465,75.3885565 112.674465,75.3430049 C112.674465,75.2978427 112.228023,76.1189389 112.228023,76.1189389 Z M108.066507,70.4261606 C107.635889,70.5157064 105.349429,72.2092905 105.349429,72.2540634 C102.155392,68.9977101 101.610244,67.1047893 101.440332,66.1252359 C101.251207,65.0604193 101.52736,63.5463162 103.063346,63.599265 C104.062471,63.6319687 105.401043,65.3134835 105.401043,65.3582564 C105.401043,65.4030294 105.815838,65.0643126 105.815838,65.0643126 C100.141695,58.3639491 99.9634952,58.2416996 99.7464906,57.1846696 C102.317392,58.4986572 104.105797,57.1846696 104.105797,57.1846696 C105.563043,59.2699192 108.109833,60.4861851 108.153159,60.4861851 C108.196861,60.4861851 108.066507,70.4261606 108.066507,70.4261606 Z M102.419867,75.9102582 C99.2175419,72.2213597 99.0909559,71.5318569 99.0909559,71.5318569 C101.36536,73.9149437 103.241169,74.9715844 103.241169,74.9715844 L102.419867,75.9102582 Z M113.590329,57.0951238 C113.590329,57.0951238 109.361377,55.1325129 107.852893,53.2142857 C107.852893,53.2142857 104.832536,56.2463851 103.794229,56.8299903 C102.759313,57.4093128 101.713095,57.3154843 100.638997,57.0783826 C100.638997,57.0783826 101.503625,56.7766521 101.713095,56.013566 C101.910509,55.2952527 101.653569,54.7692684 101.242918,54.3246539 C100.674788,53.8138534 99.5528442,53.5775303 98.7356862,54.2837743 C97.9972678,54.9203283 98.0326817,55.8177331 98.5224491,56.6948929 C99.2608675,58.0088805 102.372397,62.1346069 103.233257,62.9385726 C103.233257,62.9385726 99.6519279,63.2037061 98.6603374,65.7051492 C97.6653562,68.1984163 97.4087935,70.2505729 99.5211977,73.0171495 C101.638123,75.7837261 102.455281,76.6285714 102.455281,76.6285714 C102.455281,76.6285714 106.341019,71.5439261 108.109833,71.0097658 L108.109833,73.1966305 C108.109833,73.1966305 111.821516,76.5386363 112.382111,76.5386363 C112.425813,76.5386363 114.068418,73.4173804 116.007143,72.3478918 L113.590329,70.3405081 L113.590329,57.0951238 Z" id="Shape" fill="#939DA0" fill-rule="nonzero"></path>
                <path d="M94.7865694,50.8111838 L93.5505501,51.9389937 C93.5505501,51.9389937 94.826912,48.6040186 93.0107282,45.7612204 C93.0107282,45.7612204 94.3235905,46.5567155 94.826912,48.36785 C95.1769318,49.6356823 94.7865694,50.8111838 94.7865694,50.8111838 M92.7771255,74.5081637 L92.1489342,75.576073 C92.1931189,75.576073 86.8655952,72.3689113 81.6629413,72.4688728 C81.6629413,72.4688728 86.3138626,71.1171034 92.7771255,74.5081637 M80.8011473,51.2510907 L80.8011473,65.3994582 L80.8011473,66.3189514 C80.8011473,68.0343212 78.8639358,68.5661775 78.8639358,68.5661775 C79.633134,68.2266136 79.6131548,66.702773 79.6131548,66.702773 L79.6131548,53.2228503 C79.6131548,49.6276701 80.8207422,48.1000142 81.723263,47.2404217 C81.7555371,47.2083729 80.8011473,49.2117998 80.8011473,51.2510907 M79.1978185,60.3365227 C79.1978185,60.3365227 77.047752,60.2125247 74.9941234,61.968337 C74.9941234,61.968337 75.5739037,59.68105 79.1978185,58.7451509 C79.1978185,58.7451509 79.1336546,60.3365227 79.1978185,60.3365227 M87.2924579,43.8257063 C84.2279599,44.6330289 79.1905185,46.2205854 79.1943606,52.6547485 L79.1943606,56.1495857 C79.1943606,56.1495857 74.1319452,55.4937314 74.6598564,62.879818 C74.6598564,62.879818 76.4318555,60.8286996 79.1943606,60.8286996 C79.2385453,60.8286996 79.2062713,66.4788135 79.1978185,66.8149436 C79.1978185,66.8149436 79.1455653,68.1701468 77.8292451,69.3059689 C77.8292451,69.3059689 85.4440001,68.1262706 85.4881848,64.103774 L85.5769384,45.9248978 C85.5769384,45.9248978 86.2531566,44.2053311 88.0574298,44.2492073 L88.0574298,67.8626316 C88.0574298,67.8626316 76.3350334,67.7981527 74.6156717,74.464669 C73.5164329,78.7309648 80.4826331,78.2311573 85.7175611,76.0522255 L85.2910825,75.940055 C80.7323728,77.6474126 74.8373637,78.4554983 75.2680686,75.0842777 C75.5739037,72.689017 84.0788845,71.489479 92.3986739,76.4719112 C92.4428586,76.4719112 95.8293286,69.6100502 97.2828136,69.3502266 C97.2828136,69.3502266 96.791787,68.9419869 96.791787,68.8981107 C96.791787,68.8542345 96.0026096,69.2861292 95.6479792,69.7218392 C95.6479792,69.7218392 91.4961531,67.9183354 88.7017581,67.9065079 C88.7017581,67.9065079 88.6571892,44.2133433 88.7017581,44.2133433 C88.7463271,44.2133433 93.4575701,43.9252863 93.4575701,49.108023 C93.4575701,52.6265151 91.7259136,53.5746232 90.8963936,54.3262422 L91.3436198,54.7943825 C91.3436198,54.7943825 97.1056905,49.1999723 97.8549096,48.6318705 C98.6041286,48.0645317 92.1047495,42.5536771 87.2924579,43.8257063" id="Shape" fill="#939DA0" fill-rule="nonzero"></path>
                <path d="M127.881559,57.2788829 C127.921713,57.2583266 129.949664,54.90909 132.194444,57.2055783 L131.537072,58.2993289 L131.404756,58.5797479 C131.420435,58.1325513 130.911822,55.6851875 127.881559,57.2788829 Z M127.71712,65.6573225 C127.71712,65.7019258 127.761098,70.5598072 127.761098,72.3400608 C127.761098,73.4012316 130.145843,75.4048895 130.145843,75.4048895 L129.572602,76.0432985 C127.296463,73.8685966 126.971409,73.1285696 126.971409,72.1736711 C126.971409,72.0720531 126.931638,68.2671975 126.931638,66.6242445 C126.931638,64.6651899 125.829516,64.7140596 125.536968,64.7625414 C125.488401,64.7710742 125.460484,64.7792192 125.468515,64.7792192 C127.199711,63.8441012 127.713296,65.3198888 127.71712,65.6573225 Z M121.577052,75.6162704 C120.189647,74.1974975 117.73339,71.933589 117.73339,71.933589 C118.258065,71.5228507 119.10741,70.429488 119.063433,70.429488 C119.019455,70.429488 119.063433,47.2706774 119.063433,47.2706774 C119.063433,47.2706774 119.897099,46.8110695 119.897099,46.8560606 L119.897099,70.3398936 C119.897099,70.9333114 118.923468,71.8765743 118.879491,71.8765743 C118.83513,71.8765743 122.081841,74.8397851 122.081841,74.8397851 L121.577052,75.6162704 Z M130.518698,60.7179915 L135.164286,53.5880565 C135.164286,53.5880565 134.065605,53.3316845 134.065605,53.2832027 C127.103725,49.8642625 126.494919,57.9297033 126.382489,60.0714375 C126.21805,63.1735003 124.342301,64.827701 124.342301,64.827701 L124.342301,42.5714286 C122.110139,45.7180946 118.602622,47.0391281 118.646599,46.9945248 C118.690577,46.9456551 118.646599,70.2018173 118.646599,70.2018173 C118.20988,71.1125003 117.071429,71.933589 117.071429,71.933589 C117.376214,72.0677867 121.713192,76.2632122 121.668832,76.2632122 C122.194271,75.080255 125.789362,70.9294329 125.789362,70.8848296 C125.219945,71.1125003 124.346125,70.7467533 124.346125,70.7467533 L124.346125,66.323657 C124.346125,66.2790537 124.250138,65.7341177 125.256274,65.3644921 C126.562607,64.8804493 126.534308,66.9170749 126.534308,67.0555391 L126.534308,72.6612046 C126.534308,73.8480403 129.641054,76.6285714 129.641054,76.6285714 C130.125957,75.7628795 134.418575,71.3401711 134.418575,71.3401711 L133.84954,71.567454 C132.66711,71.9781923 131.552751,71.2707451 131.344334,70.1936723 C131.264027,69.7829341 131.308387,65.2299065 131.308387,65.2299065 C131.308387,64.1369316 131.280471,63.0761487 131.043755,62.4947544 C129.584839,58.8683119 127.075809,60.7909082 127.075809,60.7909082 C127.152292,60.3522444 127.224186,59.685522 127.276195,59.047113 C127.388242,57.7101774 128.655186,57.2827614 128.655186,57.2827614 C129.917541,56.8115179 130.867079,57.3680895 130.96383,58.3850448 C131.047962,59.2751716 130.110278,60.4088712 130.110278,60.4088712 L130.518698,60.7179915 Z" id="Shape" fill="#939DA0" fill-rule="nonzero"></path>
                <path d="M140.951226,65.27964 L140.951226,56.7610453 L144.119594,62.9298972 L140.951226,65.27964 Z M139.408355,76.172454 L135.517501,73.1222175 L135.517501,58.2432326 L136.235289,58.0027414 L136.235289,72.5891739 L140.031769,75.5488864 L139.408355,76.172454 Z M142.075877,55.6250255 L145.297893,62.0747742 L144.484949,62.6245239 L141.13175,56.1052309 C141.13175,56.0523927 142.075877,55.6778636 142.075877,55.6250255 Z M149,60.17299 L145.11267,53.2142857 C143.811803,54.3095114 141.534306,55.7104989 135.164286,57.9829271 L135.209319,73.248485 L139.424411,76.6285714 L146.51261,69.6857963 L146.245936,69.4212171 L143.150796,72.267483 L140.992343,70.4876927 L140.992343,65.7687813 C140.992343,65.7687813 147.251544,61.1547691 149,60.17299 Z" id="Shape" fill="#939DA0" fill-rule="nonzero"></path>
                <path d="M39.335015,32.7363001 C39.335015,32.7363001 39.237987,34.1606351 36.7665834,34.751434 C36.7665834,34.751434 38.6052448,33.7650075 38.6052448,32.1402161 L38.6052448,31.6845648 C38.6052448,31.0390273 38.5621628,17.0380367 38.5621628,17.0380367 C38.5621628,17.0380367 38.5501748,16.2354562 37.9331668,15.575951 C36.9010739,14.4721197 35.8169081,14.5344084 34.8102897,14.6268976 L35.6442058,14.0270386 C35.6442058,14.0270386 36.7583417,14.0157133 37.0763986,14.1104677 C37.3895854,14.2040895 38.3830919,14.280346 39.0124625,15.7998128 C39.382967,16.6956376 39.2919331,16.6922401 39.335015,17.4276243 C39.3777223,18.162631 39.335015,32.7363001 39.335015,32.7363001 Z M32.0309441,32.1455012 C31.1295954,31.1507695 28.2288711,28.438757 28.356993,28.3960987 C28.7327423,28.2696338 29.8079171,27.4243949 29.8079171,27.4243949 L29.8079171,4.8075554 L30.5803946,4.28848287 L30.6234765,27.5976708 C30.6624376,27.9442225 29.644955,28.5353989 29.644955,28.5353989 L32.6314685,31.5399795 L32.0309441,32.1455012 Z M38.6580669,9.08131549 C38.6580669,9.08131549 36.5549201,13.0055038 34.7956793,14.0866847 L34.7956793,0 C34.7956793,0 31.9204296,3.027231 29.3883367,4.62748442 L29.3883367,27.2881148 C29.3883367,27.2881148 28.2723277,28.1526065 27.6714286,28.3255049 C27.6714286,28.3255049 30.5035964,31.0933883 32.0058442,32.6068151 C32.0058442,32.6502284 35.0957542,29.0174757 35.954021,28.4123315 C35.954021,28.4123315 35.3531219,28.1091932 34.7956793,27.3311506 L34.7956793,14.8760525 C34.7956793,14.8760525 35.954021,14.616705 36.8553696,15.0927417 C37.7570929,15.5680233 38.1852897,16.2169584 38.2283716,17.1682768 C38.2714535,18.1195951 38.2283716,32.1745692 38.2283716,32.1745692 C38.2283716,32.1745692 38.0571678,33.818236 35.8258991,34.9416977 C35.8258991,34.9416977 39.2585914,35.7208728 41.3613636,34.0345477 C43.4645105,32.3470901 43.6357143,31.9578801 43.6357143,30.8332858 L43.6357143,13.4490749 C43.6357143,13.4490749 40.5034715,11.7627498 38.6580669,9.08131549 Z" id="Shape" fill="#939DA0" fill-rule="nonzero"></path>
                <path d="M51.5511266,22.7072342 L51.5511266,14.1887809 L54.7219661,20.3590845 L51.5511266,22.7072342 Z M50.0091698,33.6021985 L46.118646,30.55007 L46.118646,15.6721091 L46.8363725,15.4292908 L46.8363725,30.0158699 L50.6321391,32.9786412 L50.0091698,33.6021985 Z M52.6784231,13.0535569 L55.9009483,19.5020331 L55.0853322,20.0509966 L51.735159,13.5337543 C51.735159,13.4809171 52.6784231,13.1067827 52.6784231,13.0535569 Z M59.6,17.6010574 L55.7137834,10.6428571 C54.4130265,11.7361221 52.1345485,13.139806 45.7642857,15.4094769 L45.8093149,30.6747815 L50.0260068,34.0571429 L57.1132129,27.1144829 L56.848911,26.8483541 L53.7540338,29.6961268 L51.5961558,27.9152005 L51.5961558,23.1983099 C51.5961558,23.1983099 57.8509089,18.5808777 59.6,17.6010574 Z" id="Shape" fill="#939DA0" fill-rule="nonzero"></path>
                <path d="M21.6073044,92.3978067 C18.1386882,92.1071998 15.3293447,91.3970412 13.9204246,91.0140559 C12.5481951,90.6387688 10.7994038,89.9089798 8.15188529,89.3681816 C8.15188529,89.3681816 6.05511241,88.8273833 4.17732465,89.3358491 C4.17732465,89.3358491 5.31859631,88.7546353 6.13660423,88.5648748 C6.99053034,88.367801 8.72696262,88.662257 10.0061138,88.9405468 C11.3459011,89.2265348 13.9080656,90.0013582 14.9767285,90.3323806 C16.8429297,90.9093604 19.8179604,91.4135923 21.1133327,91.6395343 C22.7528245,91.9259072 24.6194119,91.9093561 24.6194119,91.9093561 C24.6194119,91.9093561 23.8782612,92.5914163 21.6073044,92.3978067 M8.11171871,117.055129 C4.5658591,115.013567 2.34781403,111.370396 2.07205499,107.049783 L2.07205499,105.883892 C3.23765833,114.372308 12.9734201,120.528555 21.0403377,117.482379 C17.3531226,119.818397 11.6413572,118.926945 8.11171871,117.055129 M12.5277256,110.358083 C12.5277256,110.358083 13.236434,109.60366 13.236434,109.341152 L13.236434,97.436661 L13.236434,96.5975576 L14.1633552,96.2626861 L14.1633552,109.046696 C14.1633552,109.046696 14.3047106,109.390035 13.0946923,110.131756 C11.88815,110.870398 12.5277256,110.358083 12.5277256,110.358083 M26.8169875,109.05093 C25.9387297,110.01128 24.841873,111.007811 23.404759,111.846914 L23.404759,92.7446104 C23.404759,92.7446104 25.9020391,92.281179 27.5901942,90.3804944 C28.4201749,89.4447786 29.0755854,87.7865872 28.4282854,86.2134608 C27.7767371,84.6357155 24.9793663,82.9013119 22.4693411,85.4020709 L21.8784289,86.0798971 C21.8784289,86.0798971 24.007644,85.49137 25.5988586,85.6164657 C26.647052,85.7011458 28.0517237,86.2215439 28.1486642,86.9355516 C28.1486642,86.9355516 28.598221,88.2265391 25.5463331,88.1576402 C23.8701507,88.1172247 16.2802113,86.161113 13.1711633,85.3620403 C9.0305293,84.3012288 5.6426325,85.2007631 3.69918782,86.2134608 C1.94692063,87.121463 0,88.2265391 0,91.8774086 C0,94.9031846 3.79265237,95.5686937 3.97880903,95.6614569 C3.97880903,95.6614569 2.08016555,94.7211223 1.46492163,93.7007264 C0.84967772,92.6841796 1.30734504,91.6591647 1.63871935,91.2319149 C2.37175949,90.2877311 3.16118734,89.9409274 3.85715063,89.7434686 C4.57783183,89.5375419 6.46411637,89.0009776 11.2284911,90.5664058 C16.9522292,92.4459204 21.3524011,92.8577739 22.8219574,92.8535399 L22.8296817,112.14522 C22.8296817,112.14522 20.5548627,113.82766 17.8552049,113.82766 C15.3413175,113.82766 13.9242868,113.634051 12.2527389,112.895794 C10.5769428,112.153303 9.94547772,111.41928 9.94547772,111.41928 C9.94547772,111.41928 11.3219556,111.410812 12.9935034,110.854232 C14.6692996,110.301502 19.3166505,108.074798 19.4093427,105.759181 C19.502421,103.443563 19.4093427,93.4386028 19.4093427,93.4386028 C19.4093427,93.4386028 15.8754558,95.3835521 10.0184728,97.4204948 L10.0184728,97.7430492 L12.9004251,96.7268873 L12.9081494,109.256856 C12.9081494,109.256856 11.8761772,111.03206 9.73885154,111.03206 C9.73885154,111.03206 9.18424372,110.636373 8.40717483,109.450466 C7.5370276,108.111365 5.55766473,105.666418 6.3949835,100.849656 C7.22921253,96.03251 10.1115511,95.1048774 10.1115511,95.1048774 C10.1115511,95.1048774 5.65074306,95.1976406 3.0476395,100.849656 C0.444922152,106.501287 2.12458052,110.478945 3.0476395,112.153303 C4.07188737,114.005104 5.80407126,117.30917 11.5077261,118.729102 C18.7574081,120.540487 22.291295,117.248739 23.4978374,116.321106 C24.7082419,115.396938 28.7357143,110.911199 28.7357143,106.388508 L28.715631,105.565571 C28.715631,105.565571 27.8775398,107.893506 26.8169875,109.05093" id="Shape" fill="#939DA0" fill-rule="nonzero"></path>
                <path d="M43.0463891,76.1185496 C42.1238229,75.5294938 39.2984876,72.9501848 39.2984876,72.9501848 L39.3546175,60.2514193 C36.4863371,58.9125146 35.2635319,56.9094135 35.2635319,56.9094135 L35.8489414,56.4640204 C37.3825334,58.5831417 40.0876979,59.9391769 40.0876979,59.9391769 L40.0876979,72.5160822 C40.1310197,72.6947846 43.4920387,75.3850525 43.4920387,75.3410582 C43.4920387,75.2966747 43.0463891,76.1185496 43.0463891,76.1185496 Z M38.8878721,70.4246033 C38.4565376,70.5137598 36.1695228,72.2089011 36.1695228,72.2532847 C32.9761404,68.9977101 32.4325458,67.1036213 32.260012,66.1225106 C32.0735399,65.0611979 32.3489159,63.5467055 33.8855217,63.5973184 C34.8815466,63.6304114 36.2207555,65.3142622 36.2207555,65.3590351 C36.2207555,65.4034187 36.6362682,65.0647019 36.6362682,65.0647019 C30.9611112,58.3623918 30.7848102,58.2420889 30.5689546,57.1835016 C33.1366194,58.4994358 34.9278821,57.1854482 34.9278821,57.1854482 C36.3834949,59.2683619 38.9311939,60.4838491 38.974139,60.4838491 C39.0174609,60.4838491 38.8878721,70.4246033 38.8878721,70.4246033 Z M33.2405918,75.9075329 C29.7085458,71.9410423 29.8626208,71.5957069 29.8626208,71.5957069 C32.1379575,73.9811297 34.0603157,74.9708057 34.0603157,74.9708057 L33.2405918,75.9075329 Z M44.4119679,57.0939558 C44.4119679,57.0939558 40.1830059,55.1317343 38.6723932,53.2142857 C38.6723932,53.2142857 35.6515446,56.2467744 34.615965,56.8268756 C33.5800087,57.4065875 32.5338812,57.315095 31.4613839,57.0764359 C31.4613839,57.0764359 32.3251831,56.7762628 32.5338812,56.014734 C32.7305245,55.2952527 32.4758677,54.7665431 32.0648755,54.3227073 C31.4941578,53.8150214 30.3745715,53.5763623 29.5563544,54.2841636 C28.8202604,54.9207176 28.856048,55.8181225 29.345396,56.6937249 C30.0799832,58.0077125 33.1916193,62.1338282 34.0554185,62.9370153 C34.0554185,62.9370153 30.4732699,63.2044848 29.4810121,65.7020345 C28.4880009,68.199195 28.2288235,70.2509623 30.3436812,73.0163708 C32.4581622,75.7813901 33.2778862,76.6285714 33.2778862,76.6285714 C33.2778862,76.6285714 37.1621573,71.5447047 38.9311939,71.0093765 L38.9311939,73.1942945 C38.9311939,73.1942945 42.6410477,76.5398043 43.2031011,76.5398043 C43.2464229,76.5398043 44.8866242,73.4177697 46.8285714,72.3475025 L44.4119679,70.3405081 L44.4119679,57.0939558 Z" id="Shape" fill="#939DA0" fill-rule="nonzero"></path>
                <path d="M16.2455865,58.5736352 C11.5615099,58.010846 7.73060572,56.6630245 6.80227928,56.1002353 C6.78319875,56.0885184 6.20143713,55.8088247 5.61967551,55.2192 C5.08152654,54.6734192 4.88137562,54.2614379 4.88137562,54.2614379 C4.88137562,54.2614379 5.59163881,55.3533774 10.2387226,56.6172908 C13.2900506,57.4473009 15.7685732,57.7719724 20.0060095,58.2047418 C24.2442247,58.6378891 24.808074,60.269184 24.808074,60.269184 C23.4249299,59.2732475 20.9288844,59.1364243 16.2455865,58.5736352 Z M24.2325428,66.2587878 C21.9498877,64.7076214 21.6142261,64.8202548 16.1906813,64.4691258 C10.2616971,64.0854918 7.82133562,61.8369808 7.82133562,61.8369808 L7.68816127,61.750427 C13.4025868,63.3446813 13.6782811,63.2581275 18.0870529,63.6553682 C22.4779123,64.051097 24.2325428,66.2587878 24.2325428,66.2587878 Z M25.2628916,68.0492058 C26.2990815,69.4249966 23.9545121,71.4486187 23.9545121,71.4486187 C20.3303786,68.6444999 18.4160948,68.1406732 18.4160948,68.1406732 C19.3666169,66.6771945 19.9857608,65.1536195 19.9857608,65.1536195 C23.10757,65.3267273 24.6289506,67.2071008 25.2628916,68.0492058 Z M20.4296753,75.3945683 C18.9176402,74.162404 16.2498699,72.361781 15.1576066,71.5453776 C10.6810795,68.1992577 7.56589009,68.845955 7.01683795,68.9978967 C6.98802245,69.0077238 6.95842815,69.0141492 6.92961265,69.0243542 C6.92961265,69.0243542 6.95920695,69.0137712 7.01683795,68.9978967 C12.9166173,66.9825899 21.1438325,74.6582934 21.1438325,74.6152055 L20.4296753,75.3945683 Z M8.60052236,75.7679973 C-0.981410821,79.9656712 -0.713504533,74.7044051 2.01423318,71.7736682 C3.73070254,69.9295793 6.40820783,69.2802362 8.2376028,69.1502164 C10.066219,69.0201966 12.1841584,70.102309 12.8566499,70.5127785 C14.0548296,71.2441399 14.7129134,71.7736682 14.7129134,71.7736682 C14.7129134,71.7736682 12.6962176,73.9734217 8.60052236,75.7679973 Z M16.1486263,59.0022469 C17.8717154,59.2210884 19.4869411,59.374164 20.7668945,59.5245939 C20.7322381,59.8568247 20.6601993,60.4301969 20.6235958,60.716694 C18.4959215,60.1569285 16.6821025,60.077178 16.6821025,60.077178 C16.2740126,60.056012 15.8814988,60.0287986 15.4987199,59.9978055 C15.6389034,59.790303 16.0189565,59.2229782 16.1486263,59.0022469 Z M11.9699891,45.5402845 C15.3838473,46.2055021 21.4892291,50.2841172 21.4892291,50.2841172 C20.0772695,52.0911656 18.64584,54.1809315 18.64584,54.1809315 C18.64584,54.1809315 18.0812119,54.1128978 13.6206501,53.5501087 C9.16008826,52.9876975 6.58888881,52.0038558 5.96507213,49.5795914 C5.34008726,47.1549489 7.48294817,44.6660526 11.9699891,45.5402845 Z M22.7177819,48.6048208 L22.7874843,48.6528223 L21.7536308,49.9326102 C21.7536308,49.9326102 20.2194,48.7408881 16.5789118,46.7887013 C13.922434,45.364531 11.8473285,44.885272 10.229377,44.8894296 C10.229377,44.8894296 15.0298839,43.3635868 22.7177819,48.6048208 Z M19.1812631,54.207011 C21.7801099,50.2323361 24.6231096,47.0706628 26.2515749,45.4329426 C27.5171206,44.1610919 28.2277732,43.5858299 28.2277732,43.5858299 C28.2277732,43.542364 27.9411757,43.2486856 27.9411757,43.2486856 C27.9411757,43.2486856 27.513616,43.5605063 25.9073465,45.1626979 L25.622696,45.43899 L25.5950487,45.4227375 C25.2831404,45.2492518 23.3894946,42.893021 17.1439293,42.5902714 C10.8991427,42.2867659 6.43858092,45.7508107 6.57253407,45.7073448 C6.70648721,45.6646348 1.67078355,49.4284055 4.34166906,54.4107339 C5.84202215,57.2080493 11.0432202,58.3245565 15.6548688,58.9383709 C15.584777,59.0476027 15.1393049,59.7426794 15.0002896,59.9524497 C4.85217072,58.9973334 3.87984223,54.6647261 3.87984223,54.6647261 L3.65632739,54.1019369 L3.61193594,55.0544075 C3.61193594,62.5698541 11.9485722,64.1807389 11.9485722,64.1807389 C11.6277077,64.5356475 10.711842,65.3562085 9.70329941,65.9072808 C9.06351739,66.256898 8.57793724,66.3442078 8.57793724,66.3442078 C8.57793724,66.3442078 9.31351134,66.0497734 9.16398225,64.9808898 C9.09194349,64.4649682 8.47708298,63.5639008 7.31589614,63.6398716 C5.39070909,63.7664897 5.22599345,65.3384442 5.78789574,66.0762309 C6.55306413,67.0812386 7.84197375,66.8733581 7.84197375,66.8733581 C10.4606798,66.6446896 12.3862563,64.2801435 12.3862563,64.2801435 C16.0076639,65.1608009 19.5523601,65.1154451 19.5523601,65.1154451 C19.5523601,65.1154451 19.1983967,65.9239112 18.8775322,66.5460408 C18.5566677,67.1685484 17.9998276,67.9766366 17.9998276,67.9766366 C17.9998276,67.9766366 16.8592789,67.4588252 14.8398573,67.0184965 C13.4029762,66.7051639 12.4793226,66.7013843 12.4793226,66.7013843 C6.9740041,66.6503591 3.58234164,69.7772596 1.82459603,71.477344 C-0.989198794,74.1998224 -1.81277699,80.70308 8.86064068,76.0771722 C12.2328332,74.6155834 15.0863467,72.0280383 15.0863467,72.0280383 C17.465962,73.5236439 20.5184582,76.1402923 20.5184582,76.1402923 C21.7668703,74.7977623 26.5845107,69.5157081 26.5397299,69.4722422 C26.5397299,69.4722422 27.4034162,68.3750112 27.2982785,66.7879381 C27.0697015,63.3306966 23.8692338,61.6476206 21.0410312,60.8315952 C21.097494,60.6040606 21.1644706,59.8239418 21.1847193,59.5756191 C21.3778611,59.5998088 21.5655512,59.6243765 21.7388336,59.6493222 C27.4933673,60.472151 28.1179627,66.3604603 28.1179627,66.3604603 C31.6065855,54.7512799 19.1812631,54.207011 19.1812631,54.207011 Z" id="Shape" fill="#939DA0" fill-rule="nonzero"></path>
                <path d="M52.4594349,74.9194737 C52.4594349,74.9194737 49.9667766,73.2450791 49.4370731,72.6501588 C49.2721312,72.4649549 49.4370731,47.6676626 49.4370731,47.6676626 L49.4370731,47.1237679 L50.1447977,46.7798177 L50.1447977,72.1739202 C50.1447977,72.1739202 52.4176544,74.0970172 52.8754229,74.3132144 L52.4594349,74.9194737 Z M55.2957828,70.8642639 C54.9499133,70.6238768 54.2429153,70.19564 54.2429153,70.19564 C54.2429153,70.19564 54.2182103,42.5099226 54.1597177,42.5715312 C50.1019273,46.7930466 48.9571429,46.7280362 48.9571429,46.7711245 L48.9571429,72.8795849 C49.0821209,73.270025 52.5778734,75.5642857 52.5778734,75.5642857 C53.2024003,74.3952333 56.4071429,70.4556814 56.4071429,70.4556814 L56.0449245,70.1279839 C56.0449245,70.1279839 55.4207608,70.9508184 55.2957828,70.8642639 Z" id="Shape" fill="#939DA0" fill-rule="nonzero"></path>
                <path d="M62.5561552,75.0855514 C61.6563636,74.4313825 59.329626,72.2561476 59.329626,72.2127647 L59.329626,48.8541051 L60.1014639,48.4183731 L60.1014639,71.7770327 C60.1867664,72.1259988 62.9845383,74.4313825 63.0275637,74.4313825 C63.0705891,74.4313825 62.5561552,75.0855514 62.5561552,75.0855514 Z M64.4286945,44.7 C64.4286945,44.7 62.885767,46.5308355 58.985423,48.5797272 L58.985423,53.5497357 L57.0141125,53.5497357 L55.3428571,56.2527962 L58.9423976,56.2527962 L58.9423976,72.2949639 C58.9423976,72.2949639 60.6574266,74.3879996 62.6717625,75.5642857 C62.6717625,75.5642857 65.8859453,71.3359729 66.4860558,71.2050631 L64.4717198,69.6356668 L64.4717198,56.2957986 L65.8432941,56.2957986 C65.8432941,56.2957986 68.0716345,53.5497357 68.1142857,53.5497357 L64.4286945,53.5497357 L64.4286945,44.7 Z" id="Shape" fill="#939DA0" fill-rule="nonzero"></path>
                <path d="M36.1523884,99.7389773 L36.1523884,98.7546249 C36.1523884,98.7546249 38.873552,99.872729 41.5474732,98.3766637 C41.5474732,98.3766637 40.6479775,99.7194405 39.0833084,99.9399805 C37.5980066,100.148498 36.1523884,99.7389773 36.1523884,99.7389773 M34.0963982,116.568772 C32.3537196,114.48172 29.9451119,112.461919 29.9451119,112.461919 C30.3770966,112.028353 30.8245769,111.426095 30.8245769,111.426095 L30.8245769,99.9320907 C30.8245769,99.9320907 29.7349776,98.5893138 28.3366019,97.6556819 C28.2931389,97.6556819 28.9704062,97.143969 28.9704062,97.143969 C30.455708,98.4987684 31.8189354,99.7032851 31.7747165,99.7032851 C31.7357887,99.7032851 31.7747165,111.406558 31.7747165,111.449765 C31.7747165,111.666172 31.1450695,112.351461 31.1450695,112.351461 C31.1450695,112.351461 34.6788028,115.926689 34.7222658,115.926689 C34.7657288,115.926689 34.0684307,116.537213 34.0963982,116.568772 M42.47796,94.0214681 C42.47796,94.0214681 40.7469976,97.1202995 38.2355903,95.1001229 C38.2355903,95.1001229 36.9800757,97.7661398 36.0295581,97.5102833 C36.0295581,97.467077 32.064596,94.194669 31.6129584,93.7220296 C31.5649601,93.6750662 29.402391,96.3921793 27.6714286,97.6834842 C27.6714286,97.6834842 30.0086057,99.361016 30.4439919,100.175925 L30.4439919,111.068046 C30.4439919,111.068046 30.1393728,111.713887 29.3154649,112.442382 C29.3154649,112.442382 33.1258498,115.801203 34.1243657,117.135714 C34.1678287,117.092508 37.2809155,113.521037 38.1486643,113.087847 C38.1486643,113.087847 36.6792359,111.540686 36.1996309,111.237114 C36.2430939,111.237114 36.1996309,100.132718 36.1996309,100.132718 C36.1996309,100.132718 43.4726964,102.287022 42.47796,94.0214681" id="Shape" fill="#939DA0" fill-rule="nonzero"></path>
                <path d="M103.287972,117.52909 C101.875979,115.533249 99.7403875,114.054792 99.7403875,114.054792 L99.7403875,99.8463227 C99.7403875,99.8463227 99.219006,98.9650821 97.9427359,98.0500658 L98.5572074,97.3849134 C99.8463848,98.3310188 100.636475,99.5968426 100.636475,99.5968426 L100.636475,113.487512 C102.476369,114.736448 103.915742,116.744188 103.915742,116.744188 L103.287972,117.52909 Z M92.5474343,117.694515 L90.1130167,115.043884 L89.5435256,114.460485 C89.8666023,114.277021 90.3774232,113.802241 90.3774232,113.802241 L90.3774232,101.248401 C89.2212313,100.177556 87.8401373,98.9443561 87.8401373,98.9443561 L88.4229269,98.3770767 C89.6201879,99.410692 91.2731199,100.943268 91.2731199,100.943268 C91.2731199,100.943268 91.3181003,114.060165 91.2731199,114.060165 L90.7497827,114.493877 L93.0848524,117.035504 L92.5474343,117.694515 Z M105.148597,111.660934 L105.148597,98.9719908 C105.148597,98.9719908 101.788365,96.2246389 100.265289,94.7857143 C100.265289,94.7857143 96.4630762,98.9750614 95.8290481,99.7242694 L95.8290481,98.7939004 L91.4831589,94.9131411 L87.2714286,98.9685365 C87.6297073,99.2299149 89.2873329,100.799721 90.0046726,101.410371 L90.0046726,113.568881 C90.0046726,113.568881 89.6010223,114.023319 88.9740346,114.374894 C88.9740346,114.374894 91.9313984,117.408572 92.6029753,118.2 C92.6029753,118.2 96.6351752,113.539711 97.3974952,113.451817 L95.8740285,111.692407 L95.8290481,111.090968 L95.8290481,100.344515 L97.6935836,98.3801472 C98.3815882,98.8840971 99.1963202,99.6993214 99.3688103,100.060108 L99.3019264,114.187592 L99.3469068,114.212156 C99.3469068,114.212156 102.057465,116.195715 103.311832,118.114025 C103.311832,118.070654 106.711959,113.684794 107.478973,113.535873 C107.702701,113.492118 105.148597,111.660934 105.148597,111.660934 Z" id="Shape" fill="#939DA0" fill-rule="nonzero"></path>
                <path d="M114.344147,98.3313083 L117.514685,104.502103 L114.344147,106.849903 L114.344147,98.3313083 Z M112.801755,117.745437 L108.911513,114.692869 L108.911513,99.8146612 L109.62926,99.5718389 L109.62926,114.15866 L113.425134,117.121869 L112.801755,117.745437 Z M115.471476,97.1960655 L118.694092,103.644649 L117.878453,104.19401 L114.527794,97.6766594 C114.527794,97.6234328 115.471476,97.2496807 115.471476,97.1960655 Z M116.547117,113.838912 L114.389178,112.057956 L114.389178,107.340987 C114.389178,107.340987 120.644108,102.723478 122.392857,101.74403 L118.506922,94.7857143 C117.206128,95.8789974 114.927586,97.282316 108.557143,99.5524131 L108.602173,114.817583 L112.818985,118.2 L119.906391,111.257225 L119.64169,110.991092 L116.547117,113.838912 Z" id="Shape" fill="#939DA0" fill-rule="nonzero"></path>
                <path d="M48.3917319,116.530201 C47.2894074,115.464362 45.1520934,114.076258 45.1520934,114.076258 L45.1520934,100.861132 C45.1520934,100.212099 43.2810925,99.3826133 43.2372113,99.3826133 L43.6934239,98.7332057 C45.7433539,99.68537 45.9332533,100.499099 45.9332533,100.499099 L45.9332533,113.683087 C47.1902966,114.512573 48.9542427,115.928439 48.9542427,115.928439 L48.3917319,116.530201 Z M50.4136688,111.548033 L50.4136688,98.0965536 C50.4136688,98.0965536 48.3796267,95.6902564 45.9968053,94.7857378 C45.9533025,94.7741077 42.832824,99.0873598 42.5714286,99.5161714 C42.5714286,99.5161714 44.5653723,100.373419 44.7840215,100.931287 L44.7840215,114.30023 C44.7840215,114.30023 47.6858508,116.231196 48.3796267,117.135714 C48.3796267,117.135714 51.5874892,113.439231 52.15,113.179993 C52.15,113.179993 51.2383315,112.019988 50.4136688,111.548033 Z" id="Shape" fill="#939DA0" fill-rule="nonzero"></path>
                <path d="M44.8610975,90.4833292 L46.4759671,91.9057829 L48.0534007,93.4355304 L47.4008326,94.1845539 C45.6374013,92.2427013 44.2329613,91.2372297 44.2329613,91.2372297 L44.8610975,90.4833292 Z M47.3432994,94.7214286 C47.3432994,94.7214286 50.6479105,91.1315617 51.0857143,91.2034972 C50.7976543,90.7491248 49.1284041,88.0342702 47.1198658,87.2714286 C47.1198658,87.2714286 43.4605981,91.2282885 43.6422611,91.3225769 C44.0264724,91.5184691 46.7565398,93.8821808 47.3432994,94.7214286 Z" id="Shape" fill="#939DA0" fill-rule="nonzero"></path>
                <path d="M51.0857143,91.5285714 C51.1245607,91.5881714 51.1517,91.6286143 51.1517,91.6227607 C51.1517,91.564225 51.1277536,91.5354893 51.0857143,91.5285714" id="Shape" fill="#939DA0" fill-rule="nonzero"></path>
                <path d="M63.4958326,113.950354 L62.734034,114.15663 L62.734034,101.597241 C62.734034,101.549929 61.7393985,100.145358 58.8933969,99.6976059 L59.7735673,99.2767265 C61.0147131,99.5507523 62.4144692,100.093884 63.5817792,101.450765 L63.5856858,101.946586 L63.4958326,113.950354 Z M62.205463,114.295914 C61.4893722,113.688818 58.852377,112.216876 58.852377,112.216876 L58.852377,100.264582 C61.3584991,100.566237 62.205463,101.823577 62.205463,101.823577 L62.205463,114.295914 Z M58.4386617,116.612643 C56.8873271,114.593406 53.6729276,113.458697 53.6729276,113.458697 L53.6729276,90.0022402 L54.569506,89.4390491 L54.569506,90.0855077 L54.569506,112.934869 C57.4401195,114.009776 59.2375736,116.029013 59.2375736,116.029013 C58.835969,116.247401 58.4386617,116.612643 58.4386617,116.612643 Z M62.8774084,94.8063969 C62.8774084,94.8063969 60.1954866,98.4716811 58.852377,99.0352507 L58.852377,84.1428571 C58.852377,84.1428571 56.3056255,88.2169092 53.2592123,89.6491103 L53.2142857,113.795552 C53.2142857,113.795552 56.4364986,114.795519 58.451163,117.135714 C58.451163,117.135714 61.1780115,113.926887 68.1142857,113.926887 L68.1142857,99.359994 C68.1142857,99.359994 64.0892543,97.4520326 62.8774084,94.8063969 Z" id="Fill-36" fill="#939DA0" fill-rule="nonzero"></path>
                <path d="M84.1331863,117.404487 C82.9200362,115.865852 80.5997203,114.057167 80.5997203,114.057167 L80.5997203,100.983398 C80.0956099,100.240662 78.1362669,98.8880972 78.1362669,98.8880972 L78.7842971,98.2177857 C80.8171644,99.6793728 81.4933529,100.511098 81.4933529,100.511098 L81.4933529,113.488173 C83.2106134,114.771781 84.760489,116.617063 84.760489,116.617063 L84.1331863,117.404487 Z M75.3532957,117.557811 C73.6153076,115.143149 71.2335912,114.247089 71.2335912,114.247089 C71.2335912,114.247089 71.2785661,101.265776 71.2335912,101.265776 C71.2335912,101.265776 69.1311105,99.3237996 68.7208608,98.9967338 L68.7208608,98.9971191 L68.7208608,98.9967338 L69.3031885,98.4277396 C70.4306907,99.3037673 72.1272237,100.959128 72.1272237,100.959128 L72.1272237,113.851066 C74.1026013,114.541795 75.9598708,116.895589 75.9598708,116.895589 L75.3532957,117.557811 Z M85.9896737,111.72302 L85.9896737,98.9886439 C85.9896737,98.9886439 82.6329788,96.2315067 81.1081327,94.7857143 C81.1081327,94.7857143 77.5664539,98.8110499 77.5257809,98.9000395 C77.4804149,98.9886439 79.8985024,100.519188 80.2105893,101.177172 L80.2105893,112.652595 C80.2105893,112.652595 78.6446792,113.524 78.5993132,113.56522 C78.5543383,113.609523 78.435448,111.893679 76.6732125,111.509984 L76.6732125,98.8110499 L72.3282421,94.9147685 L68.1142857,98.9847915 C68.4748674,99.2471375 70.1311185,100.821984 70.848371,101.435281 L70.848371,114.521762 C70.848371,114.521762 72.9348172,115.042987 75.3282662,118.155698 C75.3282662,118.111396 79.5132822,113.694275 80.1855598,113.431158 L80.1855598,114.218581 C80.1855598,114.218581 82.8993086,116.274203 84.1535228,118.2 C84.1535228,118.155698 87.5516729,113.754757 88.3221132,113.60567 C88.5434681,113.560598 85.9896737,111.72302 85.9896737,111.72302 Z" id="Shape" fill="#939DA0" fill-rule="nonzero"></path>
                <path d="M21.6093375,8.25735279 C18.1392362,7.96445044 15.3323321,7.2547107 13.9205756,6.87097398 C12.548217,6.49801422 10.8015787,5.76479611 8.1511073,5.22517837 C8.1511073,5.22517837 6.05529589,4.68402107 4.17733144,5.19169282 C4.17733144,5.19169282 5.32025551,4.61281616 6.13640912,4.42383448 C6.99157434,4.22561541 8.72855626,4.52082711 10.0082141,4.79717914 C11.3446511,5.08546279 13.908988,5.86101896 14.9765926,6.19048599 C16.8433557,6.76628352 19.8213701,7.27164592 21.1168643,7.49873185 C22.7553516,7.78547594 24.6201834,7.76661626 24.6201834,7.76661626 C24.6201834,7.76661626 23.8797355,8.44864381 21.6093375,8.25735279 Z M8.11132319,32.9131107 C4.56474369,30.8716468 2.34571742,27.2263404 2.07147744,22.9078589 L2.07147744,21.7412531 C3.23873547,30.2308026 12.9723233,36.3856009 21.0423174,33.3388006 C17.3532103,35.6731669 11.6420663,34.7821434 8.11132319,32.9131107 Z M12.526973,26.2156156 C12.526973,26.2156156 13.2353619,25.4604586 13.2353619,25.1987325 L13.2353619,13.2921171 L13.2353619,12.4569028 L14.1650741,12.1193531 L14.1650741,24.9042906 C14.1650741,24.9042906 14.3045116,25.2468439 13.0963107,25.9881447 C11.8877235,26.7294456 12.526973,26.2156156 12.526973,26.2156156 Z M28.7175604,21.4241026 C28.7175604,21.4241026 27.8813216,23.7507711 26.819897,24.9081395 C25.9396253,25.8695982 24.8418929,26.8649273 23.4085062,27.7032208 L23.4085062,8.6014457 C23.4085062,8.6014457 25.9029312,8.13765157 27.592404,6.23821252 C28.4224627,5.304466 29.0794799,3.64404451 28.429029,2.06945381 C27.7781919,0.494093326 24.9813304,-1.24215176 22.471069,1.25925742 L21.8808737,1.93897563 C21.8808737,1.93897563 24.0083579,1.34893712 25.5989497,1.4747966 C26.6472417,1.55754825 28.0532044,2.07984588 28.1528578,2.79227985 C28.1528578,2.79227985 28.6020706,4.08551495 25.5468055,4.01431004 C23.8739417,3.97543601 16.2813569,2.0205726 13.1716301,1.22153807 C9.03253775,0.157698246 5.64470843,1.0591139 3.69837712,2.06945381 C1.9447863,2.97972196 0,4.08474516 0,7.73390049 C0,10.7614562 3.79146421,11.4261637 3.97725214,11.5189225 C3.97725214,11.5189225 2.07881626,10.5786328 1.46351446,9.5586706 C0.849371414,8.54140264 1.30630929,7.51566707 1.63848728,7.08882251 C2.37236891,6.1454537 3.16109852,5.79982122 3.8563548,5.60198705 C4.5771038,5.39683993 6.46279331,4.85991643 11.2291613,6.42334529 C16.9553692,8.30200019 21.3544102,8.71460377 22.8241047,8.71075485 L22.832216,28.0015116 C22.832216,28.0015116 20.557183,29.6857964 17.8561124,29.6857964 C15.3439197,29.6857964 13.9252106,29.4914262 12.2519606,28.7508952 C10.5783242,28.0095944 9.94795851,27.2763762 9.94795851,27.2763762 C9.94795851,27.2763762 11.3218622,27.2682935 12.9958848,26.7125104 C14.6687486,26.1567272 19.3180818,23.9332096 19.4107826,21.6169332 C19.5038697,19.3010416 19.4107826,9.29501999 19.4107826,9.29501999 C19.4107826,9.29501999 15.877722,11.240646 10.0201879,13.2794157 L10.0201879,13.6015698 L12.9027977,12.5827623 L12.9074327,25.111747 C12.9074327,25.111747 11.8757497,26.8899453 9.73745036,26.8899453 C9.73745036,26.8899453 9.18510788,26.4950467 8.40873837,25.3053474 C7.53541924,23.9678498 5.5578014,21.5241743 6.39442645,16.7068736 C7.2310515,11.889188 10.1136613,10.9627544 10.1136613,10.9627544 C10.1136613,10.9627544 5.65088849,11.0555132 3.04754,16.7068736 C0.444191508,22.358234 2.12400792,26.3357017 3.04754,28.0095944 C4.06995297,29.8624615 5.80423112,33.1648297 11.5080363,34.5873883 C18.7587868,36.3963779 22.2930062,33.1051716 23.5015933,32.1783531 C24.7101805,31.2523044 28.7357143,26.7671649 28.7357143,22.2435363 L28.7175604,21.4241026 Z" id="Shape" fill="#939DA0" fill-rule="nonzero"></path>
                <path d="M205.278809,6.34716797 L195.479004,6.34716797 L195.479004,33 L188.887207,33 L188.887207,6.34716797 L179.219238,6.34716797 L179.219238,1.0078125 L205.278809,1.0078125 L205.278809,6.34716797 Z M234.700195,17.7290039 C234.700195,20.8784337 234.14356,23.6396366 233.030273,26.0126953 C231.916987,28.3857541 230.323985,30.2167904 228.251221,31.5058594 C226.178456,32.7949283 223.801771,33.4394531 221.121094,33.4394531 C218.469713,33.4394531 216.104014,32.8022525 214.023926,31.527832 C211.943837,30.2534116 210.332525,28.4333614 209.189941,26.067627 C208.047358,23.7018925 207.46875,20.9809724 207.454102,17.9047852 L207.454102,16.3227539 C207.454102,13.1733241 208.021723,10.401135 209.156982,8.00610352 C210.292242,5.61107201 211.89623,3.77271149 213.968994,2.4909668 C216.041758,1.20922211 218.411119,0.568359375 221.077148,0.568359375 C223.743177,0.568359375 226.112538,1.20922211 228.185303,2.4909668 C230.258067,3.77271149 231.862055,5.61107201 232.997314,8.00610352 C234.132574,10.401135 234.700195,13.166 234.700195,16.3007812 L234.700195,17.7290039 Z M228.020508,16.2788086 C228.020508,12.9242996 227.419928,10.375497 226.21875,8.63232422 C225.017572,6.88915144 223.303722,6.01757812 221.077148,6.01757812 C218.865223,6.01757812 217.158697,6.87816522 215.95752,8.59936523 C214.756342,10.3205652 214.148438,12.8437334 214.133789,16.1689453 L214.133789,17.7290039 C214.133789,20.9956218 214.734369,23.5297761 215.935547,25.331543 C217.136725,27.1333098 218.865223,28.0341797 221.121094,28.0341797 C223.333019,28.0341797 225.032221,27.1662684 226.21875,25.4304199 C227.405279,23.6945714 228.005859,21.1640791 228.020508,17.8388672 L228.020508,16.2788086 Z M246.082031,21.7280273 L246.082031,33 L239.490234,33 L239.490234,1.0078125 L251.970703,1.0078125 C254.373059,1.0078125 256.486075,1.44726123 258.309814,2.32617188 C260.133554,3.20508252 261.536128,4.45384933 262.517578,6.07250977 C263.499028,7.6911702 263.989746,9.5331928 263.989746,11.5986328 C263.989746,14.7334141 262.916759,17.2053132 260.770752,19.0144043 C258.624745,20.8234954 255.654804,21.7280273 251.86084,21.7280273 L246.082031,21.7280273 Z M246.082031,16.3886719 L251.970703,16.3886719 C253.713876,16.3886719 255.043208,15.9785197 255.95874,15.1582031 C256.874272,14.3378865 257.332031,13.1660232 257.332031,11.6425781 C257.332031,10.0751875 256.87061,8.8081103 255.947754,7.84130859 C255.024898,6.87450688 253.750496,6.37646499 252.124512,6.34716797 L246.082031,6.34716797 L246.082031,16.3886719 Z M189.160156,53.7246094 L189.542969,56.3496094 L190.103516,53.984375 L194.041016,40.09375 L196.255859,40.09375 L200.097656,53.984375 L200.644531,56.390625 L201.068359,53.7109375 L204.158203,40.09375 L206.796875,40.09375 L201.970703,60 L199.578125,60 L195.476562,45.4941406 L195.162109,43.9765625 L194.847656,45.4941406 L190.595703,60 L188.203125,60 L183.390625,40.09375 L186.015625,40.09375 L189.160156,53.7246094 Z M225.021484,50.6894531 C225.021484,52.6399837 224.693363,54.3421151 224.037109,55.7958984 C223.380856,57.2496817 222.451178,58.3593712 221.248047,59.125 C220.044916,59.8906288 218.641284,60.2734375 217.037109,60.2734375 C215.469393,60.2734375 214.079433,59.8883502 212.867188,59.1181641 C211.654942,58.3479779 210.713871,57.2496816 210.043945,55.8232422 C209.37402,54.3968028 209.029948,52.7448011 209.011719,50.8671875 L209.011719,49.4316406 C209.011719,47.5175686 209.344398,45.8268303 210.009766,44.359375 C210.675134,42.8919197 211.616205,41.7685586 212.833008,40.9892578 C214.049811,40.209957 215.442049,39.8203125 217.009766,39.8203125 C218.604826,39.8203125 220.010736,40.2053998 221.227539,40.9755859 C222.444342,41.7457721 223.380856,42.8622974 224.037109,44.3251953 C224.693363,45.7880933 225.021484,47.4902247 225.021484,49.4316406 L225.021484,50.6894531 Z M222.410156,49.4042969 C222.410156,47.043608 221.936203,45.2321027 220.988281,43.9697266 C220.04036,42.7073505 218.714201,42.0761719 217.009766,42.0761719 C215.350903,42.0761719 214.045252,42.7073505 213.092773,43.9697266 C212.140295,45.2321027 211.650391,46.9843638 211.623047,49.2265625 L211.623047,50.6894531 C211.623047,52.977225 212.103836,54.7750586 213.06543,56.0830078 C214.027023,57.3909571 215.350903,58.0449219 217.037109,58.0449219 C218.73243,58.0449219 220.044917,57.427415 220.974609,56.1923828 C221.904302,54.9573506 222.382812,53.1868605 222.410156,50.8808594 L222.410156,49.4042969 Z M236.259766,51.9472656 L231.583984,51.9472656 L231.583984,60 L228.945312,60 L228.945312,40.09375 L235.535156,40.09375 C237.777355,40.09375 239.502273,40.6041616 240.709961,41.625 C241.917649,42.6458384 242.521484,44.1315007 242.521484,46.0820312 C242.521484,47.3216208 242.186527,48.4016881 241.516602,49.3222656 C240.846676,50.2428431 239.91472,50.9309873 238.720703,51.3867188 L243.396484,59.8359375 L243.396484,60 L240.580078,60 L236.259766,51.9472656 Z M231.583984,49.8007812 L235.617188,49.8007812 C236.920579,49.8007812 237.957353,49.463545 238.727539,48.7890625 C239.497725,48.11458 239.882812,47.2122452 239.882812,46.0820312 C239.882812,44.8515563 239.515954,43.9082064 238.782227,43.2519531 C238.048499,42.5956998 236.988939,42.2630209 235.603516,42.2539062 L231.583984,42.2539062 L231.583984,49.8007812 Z M251.257812,50.7441406 L248.824219,53.2734375 L248.824219,60 L246.199219,60 L246.199219,40.09375 L248.824219,40.09375 L248.824219,49.9375 L257.669922,40.09375 L260.841797,40.09375 L253.007812,48.8847656 L261.457031,60 L258.3125,60 L251.257812,50.7441406 Z M185.863281,75.8769531 L185.863281,82 L183.800781,82 L183.800781,66.359375 L189.569336,66.359375 C191.280933,66.359375 192.621903,66.7962196 193.592285,67.6699219 C194.562668,68.5436242 195.047852,69.7001881 195.047852,71.1396484 C195.047852,72.6578852 194.57341,73.8269816 193.624512,74.6469727 C192.675614,75.4669637 191.316741,75.8769531 189.547852,75.8769531 L185.863281,75.8769531 Z M185.863281,74.1904297 L189.569336,74.1904297 C190.672206,74.1904297 191.51725,73.9308294 192.104492,73.4116211 C192.691735,72.8924128 192.985352,72.1422575 192.985352,71.1611328 C192.985352,70.2301386 192.691735,69.4853544 192.104492,68.9267578 C191.51725,68.3681613 190.711594,68.0781251 189.6875,68.0566406 L185.863281,68.0566406 L185.863281,74.1904297 Z M199.75293,80.3134766 L207.165039,80.3134766 L207.165039,82 L197.679688,82 L197.679688,66.359375 L199.75293,66.359375 L199.75293,80.3134766 Z M218.358398,77.9179688 L211.805664,77.9179688 L210.333984,82 L208.207031,82 L214.179688,66.359375 L215.984375,66.359375 L221.967773,82 L219.851562,82 L218.358398,77.9179688 Z M212.428711,76.2207031 L217.746094,76.2207031 L215.082031,68.9052734 L212.428711,76.2207031 Z M235.459961,77.0371094 C235.266601,78.6914145 234.656092,79.9679317 233.628418,80.8666992 C232.600744,81.7654667 231.234709,82.2148438 229.530273,82.2148438 C227.682608,82.2148438 226.201991,81.5524155 225.088379,80.2275391 C223.974767,78.9026626 223.417969,77.1302194 223.417969,74.9101562 L223.417969,73.40625 C223.417969,71.9524667 223.677569,70.6741592 224.196777,69.5712891 C224.715986,68.468419 225.451818,67.621585 226.404297,67.0307617 C227.356776,66.4399385 228.459629,66.1445312 229.712891,66.1445312 C231.374357,66.1445312 232.706375,66.608231 233.708984,67.5356445 C234.711594,68.463058 235.295247,69.7467366 235.459961,71.3867188 L233.386719,71.3867188 C233.207681,70.1406188 232.819176,69.238284 232.221191,68.6796875 C231.623207,68.121091 230.787115,67.8417969 229.712891,67.8417969 C228.395176,67.8417969 227.362146,68.3287712 226.61377,69.3027344 C225.865393,70.2766976 225.491211,71.6624259 225.491211,73.4599609 L225.491211,74.9746094 C225.491211,76.6718835 225.8457,78.0218049 226.554688,79.0244141 C227.263675,80.0270232 228.255527,80.5283203 229.530273,80.5283203 C230.676112,80.5283203 231.555173,80.26872 232.16748,79.7495117 C232.779788,79.2303034 233.186197,78.3261783 233.386719,77.0371094 L235.459961,77.0371094 Z M247.115234,74.7705078 L240.336914,74.7705078 L240.336914,80.3134766 L248.210938,80.3134766 L248.210938,82 L238.274414,82 L238.274414,66.359375 L248.103516,66.359375 L248.103516,68.0566406 L240.336914,68.0566406 L240.336914,73.0839844 L247.115234,73.0839844 L247.115234,74.7705078 Z M255.386719,75.0283203 C253.61783,74.5198542 252.33057,73.8950232 251.524902,73.1538086 C250.719234,72.412594 250.316406,71.4977268 250.316406,70.4091797 C250.316406,69.1774027 250.808752,68.1586954 251.793457,67.3530273 C252.778162,66.5473593 254.05826,66.1445312 255.633789,66.1445312 C256.708013,66.1445312 257.665849,66.3522115 258.507324,66.7675781 C259.3488,67.1829448 260.000486,67.7558557 260.462402,68.4863281 C260.924319,69.2168005 261.155273,70.0152951 261.155273,70.8818359 L259.082031,70.8818359 C259.082031,69.9365187 258.781253,69.1935248 258.179688,68.652832 C257.578122,68.1121392 256.729498,67.8417969 255.633789,67.8417969 C254.616857,67.8417969 253.823733,68.0655902 253.254395,68.5131836 C252.685056,68.960777 252.400391,69.5820273 252.400391,70.3769531 C252.400391,71.0143261 252.670733,71.5532205 253.211426,71.9936523 C253.752119,72.4340842 254.672357,72.8369122 255.972168,73.2021484 C257.271979,73.5673846 258.288896,73.9702126 259.022949,74.4106445 C259.757002,74.8510764 260.301268,75.3649059 260.655762,75.9521484 C261.010256,76.539391 261.1875,77.2304648 261.1875,78.0253906 C261.1875,79.2929751 260.693364,80.3081017 259.705078,81.0708008 C258.716792,81.8334999 257.395516,82.2148438 255.741211,82.2148438 C254.666987,82.2148438 253.664393,82.0089539 252.733398,81.597168 C251.802404,81.1853821 251.084475,80.6214229 250.57959,79.9052734 C250.074705,79.189124 249.822266,78.3763066 249.822266,77.4667969 L251.895508,77.4667969 C251.895508,78.4121141 252.244625,79.1586887 252.942871,79.706543 C253.641117,80.2543973 254.573887,80.5283203 255.741211,80.5283203 C256.829758,80.5283203 257.66406,80.3063173 258.244141,79.8623047 C258.824222,79.4182921 259.114258,78.8131549 259.114258,78.046875 C259.114258,77.2805951 258.845706,76.6879904 258.308594,76.269043 C257.771482,75.8500956 256.797533,75.4365255 255.386719,75.0283203 Z" id="TOP-WORK-PLACES" fill="#9EA8AA"></path>
                <path d="M201.086426,120 L184.030762,120 L184.030762,116.616211 L192.080078,108.037109 C193.185227,106.829421 194.002683,105.775558 194.532471,104.875488 C195.062259,103.975419 195.327148,103.120935 195.327148,102.312012 C195.327148,101.206863 195.048017,100.338138 194.489746,99.7058105 C193.931475,99.0734832 193.133957,98.7573242 192.097168,98.7573242 C190.980626,98.7573242 190.100508,99.1418419 189.456787,99.9108887 C188.813066,100.679935 188.491211,101.691074 188.491211,102.944336 L183.535156,102.944336 C183.535156,101.429029 183.896888,100.044765 184.620361,98.7915039 C185.343835,97.5382424 186.366367,96.5555862 187.687988,95.8435059 C189.009609,95.1314255 190.507804,94.7753906 192.182617,94.7753906 C194.746107,94.7753906 196.737053,95.3906188 198.155518,96.6210938 C199.573982,97.8515687 200.283203,99.5890187 200.283203,101.833496 C200.283203,103.063971 199.964196,104.317214 199.326172,105.593262 C198.688148,106.86931 197.594409,108.356111 196.044922,110.053711 L190.388184,116.018066 L201.086426,116.018066 L201.086426,120 Z M220.859375,109.711914 C220.859375,113.152686 220.147305,115.784496 218.723145,117.607422 C217.298984,119.430348 215.214044,120.341797 212.468262,120.341797 C209.75666,120.341797 207.683113,119.447437 206.247559,117.658691 C204.812005,115.869945 204.077149,113.306495 204.042969,109.968262 L204.042969,105.388184 C204.042969,101.913231 204.763583,99.2757251 206.204834,97.4755859 C207.646085,95.6754467 209.72248,94.7753906 212.434082,94.7753906 C215.145684,94.7753906 217.219231,95.6669019 218.654785,97.4499512 C220.090339,99.2330005 220.825195,101.793603 220.859375,105.131836 L220.859375,109.711914 Z M215.92041,104.6875 C215.92041,102.625315 215.638431,101.124272 215.074463,100.184326 C214.510495,99.2443801 213.630377,98.7744141 212.434082,98.7744141 C211.271967,98.7744141 210.414635,99.2215938 209.862061,100.115967 C209.309486,101.01034 209.016113,102.408845 208.981934,104.311523 L208.981934,110.361328 C208.981934,112.389333 209.258217,113.896073 209.810791,114.881592 C210.363365,115.867111 211.24918,116.359863 212.468262,116.359863 C213.67595,116.359863 214.547523,115.887049 215.083008,114.941406 C215.618492,113.995764 215.897624,112.548838 215.92041,110.600586 L215.92041,104.6875 Z M236.188965,120 L231.25,120 L231.25,100.961914 L225.354004,102.790527 L225.354004,98.7744141 L235.65918,95.0830078 L236.188965,95.0830078 L236.188965,120 Z M257.670898,94.8608398 L257.670898,98.9282227 L257.192383,98.9282227 C254.959299,98.9624025 253.162035,99.5434514 251.800537,100.671387 C250.439039,101.799322 249.621583,103.365875 249.348145,105.371094 C250.669766,104.026686 252.338857,103.354492 254.355469,103.354492 C256.520193,103.354492 258.240554,104.129224 259.516602,105.678711 C260.79265,107.228198 261.430664,109.267565 261.430664,111.796875 C261.430664,113.414722 261.080326,114.878737 260.379639,116.188965 C259.678952,117.499193 258.687751,118.518877 257.406006,119.248047 C256.124261,119.977217 254.674487,120.341797 253.056641,120.341797 C250.436185,120.341797 248.319914,119.430348 246.707764,117.607422 C245.095614,115.784496 244.289551,113.352066 244.289551,110.310059 L244.289551,108.532715 C244.289551,105.832506 244.799393,103.448497 245.819092,101.380615 C246.838791,99.3127338 248.302806,97.7120011 250.211182,96.5783691 C252.119557,95.4447372 254.33267,94.8722331 256.850586,94.8608398 L257.670898,94.8608398 Z M252.851562,107.319336 C252.054032,107.319336 251.33057,107.52726 250.681152,107.943115 C250.031735,108.35897 249.553224,108.908688 249.245605,109.592285 L249.245605,111.096191 C249.245605,112.748218 249.570309,114.038488 250.219727,114.967041 C250.869144,115.895594 251.780593,116.359863 252.954102,116.359863 C254.013677,116.359863 254.871009,115.941166 255.526123,115.10376 C256.181237,114.266353 256.508789,113.181159 256.508789,111.848145 C256.508789,110.492343 256.178389,109.398604 255.517578,108.566895 C254.856768,107.735185 253.968105,107.319336 252.851562,107.319336 Z M201.086426,152 L184.030762,152 L184.030762,148.616211 L192.080078,140.037109 C193.185227,138.829421 194.002683,137.775558 194.532471,136.875488 C195.062259,135.975419 195.327148,135.120935 195.327148,134.312012 C195.327148,133.206863 195.048017,132.338138 194.489746,131.705811 C193.931475,131.073483 193.133957,130.757324 192.097168,130.757324 C190.980626,130.757324 190.100508,131.141842 189.456787,131.910889 C188.813066,132.679935 188.491211,133.691074 188.491211,134.944336 L183.535156,134.944336 C183.535156,133.429029 183.896888,132.044765 184.620361,130.791504 C185.343835,129.538242 186.366367,128.555586 187.687988,127.843506 C189.009609,127.131425 190.507804,126.775391 192.182617,126.775391 C194.746107,126.775391 196.737053,127.390619 198.155518,128.621094 C199.573982,129.851569 200.283203,131.589019 200.283203,133.833496 C200.283203,135.063971 199.964196,136.317214 199.326172,137.593262 C198.688148,138.86931 197.594409,140.356111 196.044922,142.053711 L190.388184,148.018066 L201.086426,148.018066 L201.086426,152 Z M220.859375,141.711914 C220.859375,145.152686 220.147305,147.784496 218.723145,149.607422 C217.298984,151.430348 215.214044,152.341797 212.468262,152.341797 C209.75666,152.341797 207.683113,151.447437 206.247559,149.658691 C204.812005,147.869945 204.077149,145.306495 204.042969,141.968262 L204.042969,137.388184 C204.042969,133.913231 204.763583,131.275725 206.204834,129.475586 C207.646085,127.675447 209.72248,126.775391 212.434082,126.775391 C215.145684,126.775391 217.219231,127.666902 218.654785,129.449951 C220.090339,131.233 220.825195,133.793603 220.859375,137.131836 L220.859375,141.711914 Z M215.92041,136.6875 C215.92041,134.625315 215.638431,133.124272 215.074463,132.184326 C214.510495,131.24438 213.630377,130.774414 212.434082,130.774414 C211.271967,130.774414 210.414635,131.221594 209.862061,132.115967 C209.309486,133.01034 209.016113,134.408845 208.981934,136.311523 L208.981934,142.361328 C208.981934,144.389333 209.258217,145.896073 209.810791,146.881592 C210.363365,147.867111 211.24918,148.359863 212.468262,148.359863 C213.67595,148.359863 214.547523,147.887049 215.083008,146.941406 C215.618492,145.995764 215.897624,144.548838 215.92041,142.600586 L215.92041,136.6875 Z M236.188965,152 L231.25,152 L231.25,132.961914 L225.354004,134.790527 L225.354004,130.774414 L235.65918,127.083008 L236.188965,127.083008 L236.188965,152 Z M261.191406,129.885742 L251.569824,152 L246.357422,152 L255.996094,131.116211 L243.623047,131.116211 L243.623047,127.117188 L261.191406,127.117188 L261.191406,129.885742 Z" id="2016-2017" fill="#9EA8AA"></path>
                <path d="M182.465517,89.5 L262.799281,89.5" id="Line" stroke="#B6C1C2" stroke-linecap="square"></path>
            </g>
        </g>
    </g>
</svg>